%TF.GenerationSoftware,KiCad,Pcbnew,9.0.5*%
%TF.CreationDate,2025-12-07T22:18:12-05:00*%
%TF.ProjectId,LED_PCB,4c45445f-5043-4422-9e6b-696361645f70,rev?*%
%TF.SameCoordinates,Original*%
%TF.FileFunction,Legend,Top*%
%TF.FilePolarity,Positive*%
%FSLAX46Y46*%
G04 Gerber Fmt 4.6, Leading zero omitted, Abs format (unit mm)*
G04 Created by KiCad (PCBNEW 9.0.5) date 2025-12-07 22:18:12*
%MOMM*%
%LPD*%
G01*
G04 APERTURE LIST*
%ADD10C,0.095250*%
%ADD11C,0.150000*%
%ADD12C,0.120000*%
%TA.AperFunction,Profile*%
%ADD13C,0.100000*%
%TD*%
G04 APERTURE END LIST*
D10*
X135663858Y-127320785D02*
X135409858Y-126957928D01*
X135228429Y-127320785D02*
X135228429Y-126558785D01*
X135228429Y-126558785D02*
X135518715Y-126558785D01*
X135518715Y-126558785D02*
X135591286Y-126595071D01*
X135591286Y-126595071D02*
X135627572Y-126631357D01*
X135627572Y-126631357D02*
X135663858Y-126703928D01*
X135663858Y-126703928D02*
X135663858Y-126812785D01*
X135663858Y-126812785D02*
X135627572Y-126885357D01*
X135627572Y-126885357D02*
X135591286Y-126921642D01*
X135591286Y-126921642D02*
X135518715Y-126957928D01*
X135518715Y-126957928D02*
X135228429Y-126957928D01*
X136389572Y-126595071D02*
X136317001Y-126558785D01*
X136317001Y-126558785D02*
X136208143Y-126558785D01*
X136208143Y-126558785D02*
X136099286Y-126595071D01*
X136099286Y-126595071D02*
X136026715Y-126667642D01*
X136026715Y-126667642D02*
X135990429Y-126740214D01*
X135990429Y-126740214D02*
X135954143Y-126885357D01*
X135954143Y-126885357D02*
X135954143Y-126994214D01*
X135954143Y-126994214D02*
X135990429Y-127139357D01*
X135990429Y-127139357D02*
X136026715Y-127211928D01*
X136026715Y-127211928D02*
X136099286Y-127284500D01*
X136099286Y-127284500D02*
X136208143Y-127320785D01*
X136208143Y-127320785D02*
X136280715Y-127320785D01*
X136280715Y-127320785D02*
X136389572Y-127284500D01*
X136389572Y-127284500D02*
X136425858Y-127248214D01*
X136425858Y-127248214D02*
X136425858Y-126994214D01*
X136425858Y-126994214D02*
X136280715Y-126994214D01*
X137006429Y-126921642D02*
X137115286Y-126957928D01*
X137115286Y-126957928D02*
X137151572Y-126994214D01*
X137151572Y-126994214D02*
X137187858Y-127066785D01*
X137187858Y-127066785D02*
X137187858Y-127175642D01*
X137187858Y-127175642D02*
X137151572Y-127248214D01*
X137151572Y-127248214D02*
X137115286Y-127284500D01*
X137115286Y-127284500D02*
X137042715Y-127320785D01*
X137042715Y-127320785D02*
X136752429Y-127320785D01*
X136752429Y-127320785D02*
X136752429Y-126558785D01*
X136752429Y-126558785D02*
X137006429Y-126558785D01*
X137006429Y-126558785D02*
X137079001Y-126595071D01*
X137079001Y-126595071D02*
X137115286Y-126631357D01*
X137115286Y-126631357D02*
X137151572Y-126703928D01*
X137151572Y-126703928D02*
X137151572Y-126776500D01*
X137151572Y-126776500D02*
X137115286Y-126849071D01*
X137115286Y-126849071D02*
X137079001Y-126885357D01*
X137079001Y-126885357D02*
X137006429Y-126921642D01*
X137006429Y-126921642D02*
X136752429Y-126921642D01*
X138457857Y-127320785D02*
X138095000Y-127320785D01*
X138095000Y-127320785D02*
X138095000Y-126558785D01*
X138711857Y-126921642D02*
X138965857Y-126921642D01*
X139074714Y-127320785D02*
X138711857Y-127320785D01*
X138711857Y-127320785D02*
X138711857Y-126558785D01*
X138711857Y-126558785D02*
X139074714Y-126558785D01*
X139401286Y-127320785D02*
X139401286Y-126558785D01*
X139401286Y-126558785D02*
X139582715Y-126558785D01*
X139582715Y-126558785D02*
X139691572Y-126595071D01*
X139691572Y-126595071D02*
X139764143Y-126667642D01*
X139764143Y-126667642D02*
X139800429Y-126740214D01*
X139800429Y-126740214D02*
X139836715Y-126885357D01*
X139836715Y-126885357D02*
X139836715Y-126994214D01*
X139836715Y-126994214D02*
X139800429Y-127139357D01*
X139800429Y-127139357D02*
X139764143Y-127211928D01*
X139764143Y-127211928D02*
X139691572Y-127284500D01*
X139691572Y-127284500D02*
X139582715Y-127320785D01*
X139582715Y-127320785D02*
X139401286Y-127320785D01*
X141179286Y-127320785D02*
X140925286Y-126957928D01*
X140743857Y-127320785D02*
X140743857Y-126558785D01*
X140743857Y-126558785D02*
X141034143Y-126558785D01*
X141034143Y-126558785D02*
X141106714Y-126595071D01*
X141106714Y-126595071D02*
X141143000Y-126631357D01*
X141143000Y-126631357D02*
X141179286Y-126703928D01*
X141179286Y-126703928D02*
X141179286Y-126812785D01*
X141179286Y-126812785D02*
X141143000Y-126885357D01*
X141143000Y-126885357D02*
X141106714Y-126921642D01*
X141106714Y-126921642D02*
X141034143Y-126957928D01*
X141034143Y-126957928D02*
X140743857Y-126957928D01*
X141505857Y-127320785D02*
X141505857Y-126812785D01*
X141505857Y-126558785D02*
X141469571Y-126595071D01*
X141469571Y-126595071D02*
X141505857Y-126631357D01*
X141505857Y-126631357D02*
X141542143Y-126595071D01*
X141542143Y-126595071D02*
X141505857Y-126558785D01*
X141505857Y-126558785D02*
X141505857Y-126631357D01*
X141868714Y-126812785D02*
X141868714Y-127320785D01*
X141868714Y-126885357D02*
X141905000Y-126849071D01*
X141905000Y-126849071D02*
X141977571Y-126812785D01*
X141977571Y-126812785D02*
X142086428Y-126812785D01*
X142086428Y-126812785D02*
X142159000Y-126849071D01*
X142159000Y-126849071D02*
X142195286Y-126921642D01*
X142195286Y-126921642D02*
X142195286Y-127320785D01*
X142884715Y-126812785D02*
X142884715Y-127429642D01*
X142884715Y-127429642D02*
X142848429Y-127502214D01*
X142848429Y-127502214D02*
X142812143Y-127538500D01*
X142812143Y-127538500D02*
X142739572Y-127574785D01*
X142739572Y-127574785D02*
X142630715Y-127574785D01*
X142630715Y-127574785D02*
X142558143Y-127538500D01*
X142884715Y-127284500D02*
X142812143Y-127320785D01*
X142812143Y-127320785D02*
X142667000Y-127320785D01*
X142667000Y-127320785D02*
X142594429Y-127284500D01*
X142594429Y-127284500D02*
X142558143Y-127248214D01*
X142558143Y-127248214D02*
X142521857Y-127175642D01*
X142521857Y-127175642D02*
X142521857Y-126957928D01*
X142521857Y-126957928D02*
X142558143Y-126885357D01*
X142558143Y-126885357D02*
X142594429Y-126849071D01*
X142594429Y-126849071D02*
X142667000Y-126812785D01*
X142667000Y-126812785D02*
X142812143Y-126812785D01*
X142812143Y-126812785D02*
X142884715Y-126849071D01*
X143755572Y-126812785D02*
X143937000Y-127320785D01*
X143937000Y-127320785D02*
X144118429Y-126812785D01*
X144807857Y-127320785D02*
X144372428Y-127320785D01*
X144590143Y-127320785D02*
X144590143Y-126558785D01*
X144590143Y-126558785D02*
X144517571Y-126667642D01*
X144517571Y-126667642D02*
X144445000Y-126740214D01*
X144445000Y-126740214D02*
X144372428Y-126776500D01*
X137478142Y-127785562D02*
X137913571Y-127785562D01*
X137695856Y-128547562D02*
X137695856Y-127785562D01*
X139002141Y-128148419D02*
X139110998Y-128184705D01*
X139110998Y-128184705D02*
X139147284Y-128220991D01*
X139147284Y-128220991D02*
X139183570Y-128293562D01*
X139183570Y-128293562D02*
X139183570Y-128402419D01*
X139183570Y-128402419D02*
X139147284Y-128474991D01*
X139147284Y-128474991D02*
X139110998Y-128511277D01*
X139110998Y-128511277D02*
X139038427Y-128547562D01*
X139038427Y-128547562D02*
X138748141Y-128547562D01*
X138748141Y-128547562D02*
X138748141Y-127785562D01*
X138748141Y-127785562D02*
X139002141Y-127785562D01*
X139002141Y-127785562D02*
X139074713Y-127821848D01*
X139074713Y-127821848D02*
X139110998Y-127858134D01*
X139110998Y-127858134D02*
X139147284Y-127930705D01*
X139147284Y-127930705D02*
X139147284Y-128003277D01*
X139147284Y-128003277D02*
X139110998Y-128075848D01*
X139110998Y-128075848D02*
X139074713Y-128112134D01*
X139074713Y-128112134D02*
X139002141Y-128148419D01*
X139002141Y-128148419D02*
X138748141Y-128148419D01*
X139836713Y-128039562D02*
X139836713Y-128547562D01*
X139510141Y-128039562D02*
X139510141Y-128438705D01*
X139510141Y-128438705D02*
X139546427Y-128511277D01*
X139546427Y-128511277D02*
X139618998Y-128547562D01*
X139618998Y-128547562D02*
X139727855Y-128547562D01*
X139727855Y-128547562D02*
X139800427Y-128511277D01*
X139800427Y-128511277D02*
X139836713Y-128474991D01*
X140489856Y-128511277D02*
X140417284Y-128547562D01*
X140417284Y-128547562D02*
X140272142Y-128547562D01*
X140272142Y-128547562D02*
X140199570Y-128511277D01*
X140199570Y-128511277D02*
X140163284Y-128438705D01*
X140163284Y-128438705D02*
X140163284Y-128148419D01*
X140163284Y-128148419D02*
X140199570Y-128075848D01*
X140199570Y-128075848D02*
X140272142Y-128039562D01*
X140272142Y-128039562D02*
X140417284Y-128039562D01*
X140417284Y-128039562D02*
X140489856Y-128075848D01*
X140489856Y-128075848D02*
X140526142Y-128148419D01*
X140526142Y-128148419D02*
X140526142Y-128220991D01*
X140526142Y-128220991D02*
X140163284Y-128293562D01*
X140743856Y-128039562D02*
X141034142Y-128039562D01*
X140852713Y-127785562D02*
X140852713Y-128438705D01*
X140852713Y-128438705D02*
X140888999Y-128511277D01*
X140888999Y-128511277D02*
X140961570Y-128547562D01*
X140961570Y-128547562D02*
X141034142Y-128547562D01*
X141396999Y-128547562D02*
X141324428Y-128511277D01*
X141324428Y-128511277D02*
X141288142Y-128474991D01*
X141288142Y-128474991D02*
X141251856Y-128402419D01*
X141251856Y-128402419D02*
X141251856Y-128184705D01*
X141251856Y-128184705D02*
X141288142Y-128112134D01*
X141288142Y-128112134D02*
X141324428Y-128075848D01*
X141324428Y-128075848D02*
X141396999Y-128039562D01*
X141396999Y-128039562D02*
X141505856Y-128039562D01*
X141505856Y-128039562D02*
X141578428Y-128075848D01*
X141578428Y-128075848D02*
X141614714Y-128112134D01*
X141614714Y-128112134D02*
X141650999Y-128184705D01*
X141650999Y-128184705D02*
X141650999Y-128402419D01*
X141650999Y-128402419D02*
X141614714Y-128474991D01*
X141614714Y-128474991D02*
X141578428Y-128511277D01*
X141578428Y-128511277D02*
X141505856Y-128547562D01*
X141505856Y-128547562D02*
X141396999Y-128547562D01*
X141905000Y-128039562D02*
X142050143Y-128547562D01*
X142050143Y-128547562D02*
X142195285Y-128184705D01*
X142195285Y-128184705D02*
X142340428Y-128547562D01*
X142340428Y-128547562D02*
X142485571Y-128039562D01*
X137405572Y-129774339D02*
X137405572Y-129012339D01*
X137405572Y-129012339D02*
X137587001Y-129012339D01*
X137587001Y-129012339D02*
X137695858Y-129048625D01*
X137695858Y-129048625D02*
X137768429Y-129121196D01*
X137768429Y-129121196D02*
X137804715Y-129193768D01*
X137804715Y-129193768D02*
X137841001Y-129338911D01*
X137841001Y-129338911D02*
X137841001Y-129447768D01*
X137841001Y-129447768D02*
X137804715Y-129592911D01*
X137804715Y-129592911D02*
X137768429Y-129665482D01*
X137768429Y-129665482D02*
X137695858Y-129738054D01*
X137695858Y-129738054D02*
X137587001Y-129774339D01*
X137587001Y-129774339D02*
X137405572Y-129774339D01*
X138457858Y-129738054D02*
X138385286Y-129774339D01*
X138385286Y-129774339D02*
X138240144Y-129774339D01*
X138240144Y-129774339D02*
X138167572Y-129738054D01*
X138167572Y-129738054D02*
X138131286Y-129665482D01*
X138131286Y-129665482D02*
X138131286Y-129375196D01*
X138131286Y-129375196D02*
X138167572Y-129302625D01*
X138167572Y-129302625D02*
X138240144Y-129266339D01*
X138240144Y-129266339D02*
X138385286Y-129266339D01*
X138385286Y-129266339D02*
X138457858Y-129302625D01*
X138457858Y-129302625D02*
X138494144Y-129375196D01*
X138494144Y-129375196D02*
X138494144Y-129447768D01*
X138494144Y-129447768D02*
X138131286Y-129520339D01*
X139147287Y-129738054D02*
X139074715Y-129774339D01*
X139074715Y-129774339D02*
X138929572Y-129774339D01*
X138929572Y-129774339D02*
X138857001Y-129738054D01*
X138857001Y-129738054D02*
X138820715Y-129701768D01*
X138820715Y-129701768D02*
X138784429Y-129629196D01*
X138784429Y-129629196D02*
X138784429Y-129411482D01*
X138784429Y-129411482D02*
X138820715Y-129338911D01*
X138820715Y-129338911D02*
X138857001Y-129302625D01*
X138857001Y-129302625D02*
X138929572Y-129266339D01*
X138929572Y-129266339D02*
X139074715Y-129266339D01*
X139074715Y-129266339D02*
X139147287Y-129302625D01*
X140018143Y-129084911D02*
X140054429Y-129048625D01*
X140054429Y-129048625D02*
X140127001Y-129012339D01*
X140127001Y-129012339D02*
X140308429Y-129012339D01*
X140308429Y-129012339D02*
X140381001Y-129048625D01*
X140381001Y-129048625D02*
X140417286Y-129084911D01*
X140417286Y-129084911D02*
X140453572Y-129157482D01*
X140453572Y-129157482D02*
X140453572Y-129230054D01*
X140453572Y-129230054D02*
X140417286Y-129338911D01*
X140417286Y-129338911D02*
X139981858Y-129774339D01*
X139981858Y-129774339D02*
X140453572Y-129774339D01*
X140925286Y-129012339D02*
X140997857Y-129012339D01*
X140997857Y-129012339D02*
X141070429Y-129048625D01*
X141070429Y-129048625D02*
X141106715Y-129084911D01*
X141106715Y-129084911D02*
X141143000Y-129157482D01*
X141143000Y-129157482D02*
X141179286Y-129302625D01*
X141179286Y-129302625D02*
X141179286Y-129484054D01*
X141179286Y-129484054D02*
X141143000Y-129629196D01*
X141143000Y-129629196D02*
X141106715Y-129701768D01*
X141106715Y-129701768D02*
X141070429Y-129738054D01*
X141070429Y-129738054D02*
X140997857Y-129774339D01*
X140997857Y-129774339D02*
X140925286Y-129774339D01*
X140925286Y-129774339D02*
X140852715Y-129738054D01*
X140852715Y-129738054D02*
X140816429Y-129701768D01*
X140816429Y-129701768D02*
X140780143Y-129629196D01*
X140780143Y-129629196D02*
X140743857Y-129484054D01*
X140743857Y-129484054D02*
X140743857Y-129302625D01*
X140743857Y-129302625D02*
X140780143Y-129157482D01*
X140780143Y-129157482D02*
X140816429Y-129084911D01*
X140816429Y-129084911D02*
X140852715Y-129048625D01*
X140852715Y-129048625D02*
X140925286Y-129012339D01*
X141469571Y-129084911D02*
X141505857Y-129048625D01*
X141505857Y-129048625D02*
X141578429Y-129012339D01*
X141578429Y-129012339D02*
X141759857Y-129012339D01*
X141759857Y-129012339D02*
X141832429Y-129048625D01*
X141832429Y-129048625D02*
X141868714Y-129084911D01*
X141868714Y-129084911D02*
X141905000Y-129157482D01*
X141905000Y-129157482D02*
X141905000Y-129230054D01*
X141905000Y-129230054D02*
X141868714Y-129338911D01*
X141868714Y-129338911D02*
X141433286Y-129774339D01*
X141433286Y-129774339D02*
X141905000Y-129774339D01*
X142594428Y-129012339D02*
X142231571Y-129012339D01*
X142231571Y-129012339D02*
X142195285Y-129375196D01*
X142195285Y-129375196D02*
X142231571Y-129338911D01*
X142231571Y-129338911D02*
X142304143Y-129302625D01*
X142304143Y-129302625D02*
X142485571Y-129302625D01*
X142485571Y-129302625D02*
X142558143Y-129338911D01*
X142558143Y-129338911D02*
X142594428Y-129375196D01*
X142594428Y-129375196D02*
X142630714Y-129447768D01*
X142630714Y-129447768D02*
X142630714Y-129629196D01*
X142630714Y-129629196D02*
X142594428Y-129701768D01*
X142594428Y-129701768D02*
X142558143Y-129738054D01*
X142558143Y-129738054D02*
X142485571Y-129774339D01*
X142485571Y-129774339D02*
X142304143Y-129774339D01*
X142304143Y-129774339D02*
X142231571Y-129738054D01*
X142231571Y-129738054D02*
X142195285Y-129701768D01*
X136485562Y-72945142D02*
X136485562Y-73307999D01*
X136485562Y-73307999D02*
X136848419Y-73344285D01*
X136848419Y-73344285D02*
X136812134Y-73307999D01*
X136812134Y-73307999D02*
X136775848Y-73235428D01*
X136775848Y-73235428D02*
X136775848Y-73053999D01*
X136775848Y-73053999D02*
X136812134Y-72981428D01*
X136812134Y-72981428D02*
X136848419Y-72945142D01*
X136848419Y-72945142D02*
X136920991Y-72908856D01*
X136920991Y-72908856D02*
X137102419Y-72908856D01*
X137102419Y-72908856D02*
X137174991Y-72945142D01*
X137174991Y-72945142D02*
X137211277Y-72981428D01*
X137211277Y-72981428D02*
X137247562Y-73053999D01*
X137247562Y-73053999D02*
X137247562Y-73235428D01*
X137247562Y-73235428D02*
X137211277Y-73307999D01*
X137211277Y-73307999D02*
X137174991Y-73344285D01*
X136485562Y-72691142D02*
X137247562Y-72437142D01*
X137247562Y-72437142D02*
X136485562Y-72183142D01*
X143474991Y-73353570D02*
X143511277Y-73389856D01*
X143511277Y-73389856D02*
X143547562Y-73498713D01*
X143547562Y-73498713D02*
X143547562Y-73571285D01*
X143547562Y-73571285D02*
X143511277Y-73680142D01*
X143511277Y-73680142D02*
X143438705Y-73752713D01*
X143438705Y-73752713D02*
X143366134Y-73788999D01*
X143366134Y-73788999D02*
X143220991Y-73825285D01*
X143220991Y-73825285D02*
X143112134Y-73825285D01*
X143112134Y-73825285D02*
X142966991Y-73788999D01*
X142966991Y-73788999D02*
X142894419Y-73752713D01*
X142894419Y-73752713D02*
X142821848Y-73680142D01*
X142821848Y-73680142D02*
X142785562Y-73571285D01*
X142785562Y-73571285D02*
X142785562Y-73498713D01*
X142785562Y-73498713D02*
X142821848Y-73389856D01*
X142821848Y-73389856D02*
X142858134Y-73353570D01*
X143547562Y-72664142D02*
X143547562Y-73026999D01*
X143547562Y-73026999D02*
X142785562Y-73026999D01*
X143547562Y-72410142D02*
X142785562Y-72410142D01*
X143547562Y-71974713D02*
X143112134Y-72301285D01*
X142785562Y-71974713D02*
X143220991Y-72410142D01*
X142821848Y-70780571D02*
X142785562Y-70853143D01*
X142785562Y-70853143D02*
X142785562Y-70962000D01*
X142785562Y-70962000D02*
X142821848Y-71070857D01*
X142821848Y-71070857D02*
X142894419Y-71143428D01*
X142894419Y-71143428D02*
X142966991Y-71179714D01*
X142966991Y-71179714D02*
X143112134Y-71216000D01*
X143112134Y-71216000D02*
X143220991Y-71216000D01*
X143220991Y-71216000D02*
X143366134Y-71179714D01*
X143366134Y-71179714D02*
X143438705Y-71143428D01*
X143438705Y-71143428D02*
X143511277Y-71070857D01*
X143511277Y-71070857D02*
X143547562Y-70962000D01*
X143547562Y-70962000D02*
X143547562Y-70889428D01*
X143547562Y-70889428D02*
X143511277Y-70780571D01*
X143511277Y-70780571D02*
X143474991Y-70744285D01*
X143474991Y-70744285D02*
X143220991Y-70744285D01*
X143220991Y-70744285D02*
X143220991Y-70889428D01*
X143547562Y-70417714D02*
X142785562Y-70417714D01*
X142785562Y-70417714D02*
X143547562Y-69982285D01*
X143547562Y-69982285D02*
X142785562Y-69982285D01*
X143547562Y-69619428D02*
X142785562Y-69619428D01*
X142785562Y-69619428D02*
X142785562Y-69437999D01*
X142785562Y-69437999D02*
X142821848Y-69329142D01*
X142821848Y-69329142D02*
X142894419Y-69256571D01*
X142894419Y-69256571D02*
X142966991Y-69220285D01*
X142966991Y-69220285D02*
X143112134Y-69183999D01*
X143112134Y-69183999D02*
X143220991Y-69183999D01*
X143220991Y-69183999D02*
X143366134Y-69220285D01*
X143366134Y-69220285D02*
X143438705Y-69256571D01*
X143438705Y-69256571D02*
X143511277Y-69329142D01*
X143511277Y-69329142D02*
X143547562Y-69437999D01*
X143547562Y-69437999D02*
X143547562Y-69619428D01*
X137247562Y-71016428D02*
X136485562Y-71016428D01*
X136485562Y-71016428D02*
X136485562Y-70834999D01*
X136485562Y-70834999D02*
X136521848Y-70726142D01*
X136521848Y-70726142D02*
X136594419Y-70653571D01*
X136594419Y-70653571D02*
X136666991Y-70617285D01*
X136666991Y-70617285D02*
X136812134Y-70580999D01*
X136812134Y-70580999D02*
X136920991Y-70580999D01*
X136920991Y-70580999D02*
X137066134Y-70617285D01*
X137066134Y-70617285D02*
X137138705Y-70653571D01*
X137138705Y-70653571D02*
X137211277Y-70726142D01*
X137211277Y-70726142D02*
X137247562Y-70834999D01*
X137247562Y-70834999D02*
X137247562Y-71016428D01*
X137029848Y-70290714D02*
X137029848Y-69927857D01*
X137247562Y-70363285D02*
X136485562Y-70109285D01*
X136485562Y-70109285D02*
X137247562Y-69855285D01*
X136485562Y-69710142D02*
X136485562Y-69274714D01*
X137247562Y-69492428D02*
X136485562Y-69492428D01*
D11*
X161570204Y-79501797D02*
X160982419Y-78692780D01*
X160982419Y-78692780D02*
X161175042Y-78552831D01*
X161175042Y-78552831D02*
X161318606Y-78507386D01*
X161318606Y-78507386D02*
X161451634Y-78528456D01*
X161451634Y-78528456D02*
X161546139Y-78577516D01*
X161546139Y-78577516D02*
X161696622Y-78703624D01*
X161696622Y-78703624D02*
X161780592Y-78819198D01*
X161780592Y-78819198D02*
X161854026Y-79001286D01*
X161854026Y-79001286D02*
X161871481Y-79106325D01*
X161871481Y-79106325D02*
X161850411Y-79239354D01*
X161850411Y-79239354D02*
X161762827Y-79361848D01*
X161762827Y-79361848D02*
X161570204Y-79501797D01*
X161808891Y-78210034D02*
X161819426Y-78143519D01*
X161819426Y-78143519D02*
X161868485Y-78049015D01*
X161868485Y-78049015D02*
X162061108Y-77909066D01*
X162061108Y-77909066D02*
X162166147Y-77891611D01*
X162166147Y-77891611D02*
X162232662Y-77902146D01*
X162232662Y-77902146D02*
X162327166Y-77951206D01*
X162327166Y-77951206D02*
X162383145Y-78028255D01*
X162383145Y-78028255D02*
X162428590Y-78171819D01*
X162428590Y-78171819D02*
X162302172Y-78969991D01*
X162302172Y-78969991D02*
X162802992Y-78606124D01*
X155153807Y-77092943D02*
X155087293Y-77103478D01*
X155087293Y-77103478D02*
X154943729Y-77058033D01*
X154943729Y-77058033D02*
X154866680Y-77002053D01*
X154866680Y-77002053D02*
X154779096Y-76879559D01*
X154779096Y-76879559D02*
X154758026Y-76746531D01*
X154758026Y-76746531D02*
X154775481Y-76641492D01*
X154775481Y-76641492D02*
X154848916Y-76459403D01*
X154848916Y-76459403D02*
X154932885Y-76343829D01*
X154932885Y-76343829D02*
X155083369Y-76217721D01*
X155083369Y-76217721D02*
X155177873Y-76168661D01*
X155177873Y-76168661D02*
X155310902Y-76147592D01*
X155310902Y-76147592D02*
X155454465Y-76193036D01*
X155454465Y-76193036D02*
X155531515Y-76249016D01*
X155531515Y-76249016D02*
X155619099Y-76371510D01*
X155619099Y-76371510D02*
X155629633Y-76438024D01*
X155868320Y-77729787D02*
X155406025Y-77393910D01*
X155637172Y-77561849D02*
X156224958Y-76752832D01*
X156224958Y-76752832D02*
X156063939Y-76812426D01*
X156063939Y-76812426D02*
X155930910Y-76833496D01*
X155930910Y-76833496D02*
X155825871Y-76816041D01*
X113590479Y-92169625D02*
X113621052Y-92229629D01*
X113621052Y-92229629D02*
X113622195Y-92380209D01*
X113622195Y-92380209D02*
X113592765Y-92470786D01*
X113592765Y-92470786D02*
X113503331Y-92591936D01*
X113503331Y-92591936D02*
X113383324Y-92653082D01*
X113383324Y-92653082D02*
X113278032Y-92668941D01*
X113278032Y-92668941D02*
X113082164Y-92655369D01*
X113082164Y-92655369D02*
X112946298Y-92611223D01*
X112946298Y-92611223D02*
X112779860Y-92507075D01*
X112779860Y-92507075D02*
X112703998Y-92432356D01*
X112703998Y-92432356D02*
X112642851Y-92312349D01*
X112642851Y-92312349D02*
X112641708Y-92161769D01*
X112641708Y-92161769D02*
X112671139Y-92071192D01*
X112671139Y-92071192D02*
X112760572Y-91950042D01*
X112760572Y-91950042D02*
X112820576Y-91919468D01*
X113311889Y-91177853D02*
X113945927Y-91383864D01*
X112876007Y-91286574D02*
X113481757Y-91733742D01*
X113481757Y-91733742D02*
X113673054Y-91144993D01*
X166890479Y-108969625D02*
X166921052Y-109029629D01*
X166921052Y-109029629D02*
X166922195Y-109180209D01*
X166922195Y-109180209D02*
X166892765Y-109270786D01*
X166892765Y-109270786D02*
X166803331Y-109391936D01*
X166803331Y-109391936D02*
X166683324Y-109453082D01*
X166683324Y-109453082D02*
X166578032Y-109468941D01*
X166578032Y-109468941D02*
X166382164Y-109455369D01*
X166382164Y-109455369D02*
X166246298Y-109411223D01*
X166246298Y-109411223D02*
X166079860Y-109307075D01*
X166079860Y-109307075D02*
X166003998Y-109232356D01*
X166003998Y-109232356D02*
X165942851Y-109112349D01*
X165942851Y-109112349D02*
X165941708Y-108961769D01*
X165941708Y-108961769D02*
X165971139Y-108871192D01*
X165971139Y-108871192D02*
X166060572Y-108750042D01*
X166060572Y-108750042D02*
X166120576Y-108719468D01*
X166238296Y-108357161D02*
X166207723Y-108297158D01*
X166207723Y-108297158D02*
X166191865Y-108191866D01*
X166191865Y-108191866D02*
X166265440Y-107965424D01*
X166265440Y-107965424D02*
X166340159Y-107889562D01*
X166340159Y-107889562D02*
X166400163Y-107858989D01*
X166400163Y-107858989D02*
X166505454Y-107843131D01*
X166505454Y-107843131D02*
X166596031Y-107872561D01*
X166596031Y-107872561D02*
X166717181Y-107961994D01*
X166717181Y-107961994D02*
X167084061Y-108682036D01*
X167084061Y-108682036D02*
X167275357Y-108093287D01*
X123153807Y-122792943D02*
X123087293Y-122803478D01*
X123087293Y-122803478D02*
X122943729Y-122758033D01*
X122943729Y-122758033D02*
X122866680Y-122702053D01*
X122866680Y-122702053D02*
X122779096Y-122579559D01*
X122779096Y-122579559D02*
X122758026Y-122446531D01*
X122758026Y-122446531D02*
X122775481Y-122341492D01*
X122775481Y-122341492D02*
X122848916Y-122159403D01*
X122848916Y-122159403D02*
X122932885Y-122043829D01*
X122932885Y-122043829D02*
X123083369Y-121917721D01*
X123083369Y-121917721D02*
X123177873Y-121868661D01*
X123177873Y-121868661D02*
X123310902Y-121847592D01*
X123310902Y-121847592D02*
X123454465Y-121893036D01*
X123454465Y-121893036D02*
X123531515Y-121949016D01*
X123531515Y-121949016D02*
X123619099Y-122071510D01*
X123619099Y-122071510D02*
X123629633Y-122138024D01*
X123955285Y-122256903D02*
X124456105Y-122620770D01*
X124456105Y-122620770D02*
X123962515Y-122733039D01*
X123962515Y-122733039D02*
X124078089Y-122817008D01*
X124078089Y-122817008D02*
X124127148Y-122911512D01*
X124127148Y-122911512D02*
X124137683Y-122978027D01*
X124137683Y-122978027D02*
X124120228Y-123083066D01*
X124120228Y-123083066D02*
X123980279Y-123275689D01*
X123980279Y-123275689D02*
X123885775Y-123324748D01*
X123885775Y-123324748D02*
X123819261Y-123335283D01*
X123819261Y-123335283D02*
X123714222Y-123317828D01*
X123714222Y-123317828D02*
X123483074Y-123149890D01*
X123483074Y-123149890D02*
X123434015Y-123055385D01*
X123434015Y-123055385D02*
X123423480Y-122988871D01*
X169361905Y-96054819D02*
X169361905Y-95054819D01*
X169361905Y-95054819D02*
X169600000Y-95054819D01*
X169600000Y-95054819D02*
X169742857Y-95102438D01*
X169742857Y-95102438D02*
X169838095Y-95197676D01*
X169838095Y-95197676D02*
X169885714Y-95292914D01*
X169885714Y-95292914D02*
X169933333Y-95483390D01*
X169933333Y-95483390D02*
X169933333Y-95626247D01*
X169933333Y-95626247D02*
X169885714Y-95816723D01*
X169885714Y-95816723D02*
X169838095Y-95911961D01*
X169838095Y-95911961D02*
X169742857Y-96007200D01*
X169742857Y-96007200D02*
X169600000Y-96054819D01*
X169600000Y-96054819D02*
X169361905Y-96054819D01*
X170266667Y-95054819D02*
X170885714Y-95054819D01*
X170885714Y-95054819D02*
X170552381Y-95435771D01*
X170552381Y-95435771D02*
X170695238Y-95435771D01*
X170695238Y-95435771D02*
X170790476Y-95483390D01*
X170790476Y-95483390D02*
X170838095Y-95531009D01*
X170838095Y-95531009D02*
X170885714Y-95626247D01*
X170885714Y-95626247D02*
X170885714Y-95864342D01*
X170885714Y-95864342D02*
X170838095Y-95959580D01*
X170838095Y-95959580D02*
X170790476Y-96007200D01*
X170790476Y-96007200D02*
X170695238Y-96054819D01*
X170695238Y-96054819D02*
X170409524Y-96054819D01*
X170409524Y-96054819D02*
X170314286Y-96007200D01*
X170314286Y-96007200D02*
X170266667Y-95959580D01*
X135004475Y-131142516D02*
X134053419Y-130833499D01*
X134053419Y-130833499D02*
X134126994Y-130607057D01*
X134126994Y-130607057D02*
X134216428Y-130485907D01*
X134216428Y-130485907D02*
X134336435Y-130424760D01*
X134336435Y-130424760D02*
X134441727Y-130408902D01*
X134441727Y-130408902D02*
X134637596Y-130422474D01*
X134637596Y-130422474D02*
X134773461Y-130466619D01*
X134773461Y-130466619D02*
X134939899Y-130570768D01*
X134939899Y-130570768D02*
X135015761Y-130645487D01*
X135015761Y-130645487D02*
X135076908Y-130765494D01*
X135076908Y-130765494D02*
X135078051Y-130916074D01*
X135078051Y-130916074D02*
X135004475Y-131142516D01*
X134494872Y-129474847D02*
X134436011Y-129656001D01*
X134436011Y-129656001D02*
X134451869Y-129761293D01*
X134451869Y-129761293D02*
X134482443Y-129821296D01*
X134482443Y-129821296D02*
X134588878Y-129956018D01*
X134588878Y-129956018D02*
X134755316Y-130060167D01*
X134755316Y-130060167D02*
X135117624Y-130177888D01*
X135117624Y-130177888D02*
X135222915Y-130162029D01*
X135222915Y-130162029D02*
X135282919Y-130131456D01*
X135282919Y-130131456D02*
X135357638Y-130055594D01*
X135357638Y-130055594D02*
X135416498Y-129874441D01*
X135416498Y-129874441D02*
X135400640Y-129769149D01*
X135400640Y-129769149D02*
X135370066Y-129709145D01*
X135370066Y-129709145D02*
X135294205Y-129634427D01*
X135294205Y-129634427D02*
X135067763Y-129560851D01*
X135067763Y-129560851D02*
X134962471Y-129576710D01*
X134962471Y-129576710D02*
X134902467Y-129607283D01*
X134902467Y-129607283D02*
X134827749Y-129683145D01*
X134827749Y-129683145D02*
X134768888Y-129864298D01*
X134768888Y-129864298D02*
X134784747Y-129969590D01*
X134784747Y-129969590D02*
X134815320Y-130029594D01*
X134815320Y-130029594D02*
X134891182Y-130104312D01*
X166235532Y-114234115D02*
X166823318Y-113425098D01*
X166823318Y-113425098D02*
X167015941Y-113565046D01*
X167015941Y-113565046D02*
X167103525Y-113687540D01*
X167103525Y-113687540D02*
X167124594Y-113820569D01*
X167124594Y-113820569D02*
X167107140Y-113925608D01*
X167107140Y-113925608D02*
X167033705Y-114107696D01*
X167033705Y-114107696D02*
X166949736Y-114223270D01*
X166949736Y-114223270D02*
X166799252Y-114349379D01*
X166799252Y-114349379D02*
X166704748Y-114398439D01*
X166704748Y-114398439D02*
X166571719Y-114419508D01*
X166571719Y-114419508D02*
X166428155Y-114374063D01*
X166428155Y-114374063D02*
X166235532Y-114234115D01*
X167783128Y-114534463D02*
X167391271Y-115073808D01*
X167814423Y-114086317D02*
X167201953Y-114524238D01*
X167201953Y-114524238D02*
X167702773Y-114888105D01*
X152739357Y-126938576D02*
X153690414Y-126629559D01*
X153690414Y-126629559D02*
X153763989Y-126856002D01*
X153763989Y-126856002D02*
X153762846Y-127006582D01*
X153762846Y-127006582D02*
X153701699Y-127126589D01*
X153701699Y-127126589D02*
X153625838Y-127201307D01*
X153625838Y-127201307D02*
X153459399Y-127305456D01*
X153459399Y-127305456D02*
X153323534Y-127349601D01*
X153323534Y-127349601D02*
X153127665Y-127363173D01*
X153127665Y-127363173D02*
X153022373Y-127347315D01*
X153022373Y-127347315D02*
X152902366Y-127286169D01*
X152902366Y-127286169D02*
X152812933Y-127165019D01*
X152812933Y-127165019D02*
X152739357Y-126938576D01*
X154146582Y-128033500D02*
X153999431Y-127580616D01*
X153999431Y-127580616D02*
X153531831Y-127682479D01*
X153531831Y-127682479D02*
X153591835Y-127713052D01*
X153591835Y-127713052D02*
X153666554Y-127788914D01*
X153666554Y-127788914D02*
X153740129Y-128015356D01*
X153740129Y-128015356D02*
X153724271Y-128120648D01*
X153724271Y-128120648D02*
X153693697Y-128180651D01*
X153693697Y-128180651D02*
X153617836Y-128255370D01*
X153617836Y-128255370D02*
X153391394Y-128328945D01*
X153391394Y-128328945D02*
X153286102Y-128313087D01*
X153286102Y-128313087D02*
X153226098Y-128282514D01*
X153226098Y-128282514D02*
X153151380Y-128206652D01*
X153151380Y-128206652D02*
X153077804Y-127980210D01*
X153077804Y-127980210D02*
X153093662Y-127874918D01*
X153093662Y-127874918D02*
X153124236Y-127814914D01*
X145604474Y-70642516D02*
X144653418Y-70333499D01*
X144653418Y-70333499D02*
X144726993Y-70107057D01*
X144726993Y-70107057D02*
X144816427Y-69985907D01*
X144816427Y-69985907D02*
X144936434Y-69924760D01*
X144936434Y-69924760D02*
X145041726Y-69908902D01*
X145041726Y-69908902D02*
X145237595Y-69922474D01*
X145237595Y-69922474D02*
X145373460Y-69966619D01*
X145373460Y-69966619D02*
X145539898Y-70070768D01*
X145539898Y-70070768D02*
X145615760Y-70145487D01*
X145615760Y-70145487D02*
X145676907Y-70265494D01*
X145676907Y-70265494D02*
X145678050Y-70416074D01*
X145678050Y-70416074D02*
X145604474Y-70642516D01*
X146075357Y-69193287D02*
X145898776Y-69736748D01*
X145987067Y-69465018D02*
X145036010Y-69156001D01*
X145036010Y-69156001D02*
X145142445Y-69290723D01*
X145142445Y-69290723D02*
X145203592Y-69410730D01*
X145203592Y-69410730D02*
X145219450Y-69516022D01*
X117570205Y-122301797D02*
X116982420Y-121492780D01*
X116982420Y-121492780D02*
X117175043Y-121352831D01*
X117175043Y-121352831D02*
X117318607Y-121307386D01*
X117318607Y-121307386D02*
X117451635Y-121328456D01*
X117451635Y-121328456D02*
X117546140Y-121377516D01*
X117546140Y-121377516D02*
X117696623Y-121503624D01*
X117696623Y-121503624D02*
X117780593Y-121619198D01*
X117780593Y-121619198D02*
X117854027Y-121801286D01*
X117854027Y-121801286D02*
X117871482Y-121906325D01*
X117871482Y-121906325D02*
X117850412Y-122039354D01*
X117850412Y-122039354D02*
X117762828Y-122161848D01*
X117762828Y-122161848D02*
X117570205Y-122301797D01*
X117714388Y-120960974D02*
X118253732Y-120569118D01*
X118253732Y-120569118D02*
X118494796Y-121630042D01*
X112035532Y-85634115D02*
X112623318Y-84825098D01*
X112623318Y-84825098D02*
X112815941Y-84965046D01*
X112815941Y-84965046D02*
X112903525Y-85087540D01*
X112903525Y-85087540D02*
X112924594Y-85220569D01*
X112924594Y-85220569D02*
X112907140Y-85325608D01*
X112907140Y-85325608D02*
X112833705Y-85507696D01*
X112833705Y-85507696D02*
X112749736Y-85623270D01*
X112749736Y-85623270D02*
X112599252Y-85749379D01*
X112599252Y-85749379D02*
X112504748Y-85798439D01*
X112504748Y-85798439D02*
X112371719Y-85819508D01*
X112371719Y-85819508D02*
X112228155Y-85774063D01*
X112228155Y-85774063D02*
X112035532Y-85634115D01*
X112883074Y-86249890D02*
X113037172Y-86361849D01*
X113037172Y-86361849D02*
X113142211Y-86379304D01*
X113142211Y-86379304D02*
X113208726Y-86368769D01*
X113208726Y-86368769D02*
X113369744Y-86309175D01*
X113369744Y-86309175D02*
X113520228Y-86183066D01*
X113520228Y-86183066D02*
X113744146Y-85874869D01*
X113744146Y-85874869D02*
X113761601Y-85769830D01*
X113761601Y-85769830D02*
X113751066Y-85703315D01*
X113751066Y-85703315D02*
X113702007Y-85608811D01*
X113702007Y-85608811D02*
X113547908Y-85496852D01*
X113547908Y-85496852D02*
X113442869Y-85479397D01*
X113442869Y-85479397D02*
X113376355Y-85489932D01*
X113376355Y-85489932D02*
X113281851Y-85538992D01*
X113281851Y-85538992D02*
X113141902Y-85731615D01*
X113141902Y-85731615D02*
X113124447Y-85836654D01*
X113124447Y-85836654D02*
X113134982Y-85903168D01*
X113134982Y-85903168D02*
X113184041Y-85997672D01*
X113184041Y-85997672D02*
X113338140Y-86109631D01*
X113338140Y-86109631D02*
X113443179Y-86127086D01*
X113443179Y-86127086D02*
X113509693Y-86116551D01*
X113509693Y-86116551D02*
X113604197Y-86067492D01*
X108961905Y-104854819D02*
X108961905Y-103854819D01*
X108961905Y-103854819D02*
X109200000Y-103854819D01*
X109200000Y-103854819D02*
X109342857Y-103902438D01*
X109342857Y-103902438D02*
X109438095Y-103997676D01*
X109438095Y-103997676D02*
X109485714Y-104092914D01*
X109485714Y-104092914D02*
X109533333Y-104283390D01*
X109533333Y-104283390D02*
X109533333Y-104426247D01*
X109533333Y-104426247D02*
X109485714Y-104616723D01*
X109485714Y-104616723D02*
X109438095Y-104711961D01*
X109438095Y-104711961D02*
X109342857Y-104807200D01*
X109342857Y-104807200D02*
X109200000Y-104854819D01*
X109200000Y-104854819D02*
X108961905Y-104854819D01*
X110104762Y-104283390D02*
X110009524Y-104235771D01*
X110009524Y-104235771D02*
X109961905Y-104188152D01*
X109961905Y-104188152D02*
X109914286Y-104092914D01*
X109914286Y-104092914D02*
X109914286Y-104045295D01*
X109914286Y-104045295D02*
X109961905Y-103950057D01*
X109961905Y-103950057D02*
X110009524Y-103902438D01*
X110009524Y-103902438D02*
X110104762Y-103854819D01*
X110104762Y-103854819D02*
X110295238Y-103854819D01*
X110295238Y-103854819D02*
X110390476Y-103902438D01*
X110390476Y-103902438D02*
X110438095Y-103950057D01*
X110438095Y-103950057D02*
X110485714Y-104045295D01*
X110485714Y-104045295D02*
X110485714Y-104092914D01*
X110485714Y-104092914D02*
X110438095Y-104188152D01*
X110438095Y-104188152D02*
X110390476Y-104235771D01*
X110390476Y-104235771D02*
X110295238Y-104283390D01*
X110295238Y-104283390D02*
X110104762Y-104283390D01*
X110104762Y-104283390D02*
X110009524Y-104331009D01*
X110009524Y-104331009D02*
X109961905Y-104378628D01*
X109961905Y-104378628D02*
X109914286Y-104473866D01*
X109914286Y-104473866D02*
X109914286Y-104664342D01*
X109914286Y-104664342D02*
X109961905Y-104759580D01*
X109961905Y-104759580D02*
X110009524Y-104807200D01*
X110009524Y-104807200D02*
X110104762Y-104854819D01*
X110104762Y-104854819D02*
X110295238Y-104854819D01*
X110295238Y-104854819D02*
X110390476Y-104807200D01*
X110390476Y-104807200D02*
X110438095Y-104759580D01*
X110438095Y-104759580D02*
X110485714Y-104664342D01*
X110485714Y-104664342D02*
X110485714Y-104473866D01*
X110485714Y-104473866D02*
X110438095Y-104378628D01*
X110438095Y-104378628D02*
X110390476Y-104331009D01*
X110390476Y-104331009D02*
X110295238Y-104283390D01*
X125792206Y-71885692D02*
X126743262Y-71576675D01*
X126743262Y-71576675D02*
X126816838Y-71803117D01*
X126816838Y-71803117D02*
X126815695Y-71953697D01*
X126815695Y-71953697D02*
X126754548Y-72073704D01*
X126754548Y-72073704D02*
X126678686Y-72148423D01*
X126678686Y-72148423D02*
X126512248Y-72252572D01*
X126512248Y-72252572D02*
X126376383Y-72296717D01*
X126376383Y-72296717D02*
X126180514Y-72310289D01*
X126180514Y-72310289D02*
X126075222Y-72294431D01*
X126075222Y-72294431D02*
X125955215Y-72233284D01*
X125955215Y-72233284D02*
X125865781Y-72112134D01*
X125865781Y-72112134D02*
X125792206Y-71885692D01*
X126263089Y-73334921D02*
X126086508Y-72791460D01*
X126174798Y-73063190D02*
X127125855Y-72754173D01*
X127125855Y-72754173D02*
X126960560Y-72707742D01*
X126960560Y-72707742D02*
X126840553Y-72646595D01*
X126840553Y-72646595D02*
X126765834Y-72570734D01*
X127405442Y-73614653D02*
X127434872Y-73705230D01*
X127434872Y-73705230D02*
X127419014Y-73810522D01*
X127419014Y-73810522D02*
X127388440Y-73870525D01*
X127388440Y-73870525D02*
X127312579Y-73945244D01*
X127312579Y-73945244D02*
X127146140Y-74049393D01*
X127146140Y-74049393D02*
X126919698Y-74122968D01*
X126919698Y-74122968D02*
X126723829Y-74136540D01*
X126723829Y-74136540D02*
X126618538Y-74120682D01*
X126618538Y-74120682D02*
X126558534Y-74090109D01*
X126558534Y-74090109D02*
X126483815Y-74014247D01*
X126483815Y-74014247D02*
X126454385Y-73923670D01*
X126454385Y-73923670D02*
X126470243Y-73818378D01*
X126470243Y-73818378D02*
X126500817Y-73758375D01*
X126500817Y-73758375D02*
X126576678Y-73683656D01*
X126576678Y-73683656D02*
X126743117Y-73579507D01*
X126743117Y-73579507D02*
X126969559Y-73505932D01*
X126969559Y-73505932D02*
X127165428Y-73492360D01*
X127165428Y-73492360D02*
X127270720Y-73508218D01*
X127270720Y-73508218D02*
X127330723Y-73538792D01*
X127330723Y-73538792D02*
X127405442Y-73614653D01*
D12*
%TO.C,D2*%
X162332101Y-86857682D02*
X159393175Y-82812598D01*
X163761867Y-79638558D02*
X166700793Y-83683642D01*
X163714215Y-79351801D02*
X163306170Y-79351606D01*
X163432078Y-78963473D01*
X163714215Y-79351801D01*
G36*
X163714215Y-79351801D02*
G01*
X163306170Y-79351606D01*
X163432078Y-78963473D01*
X163714215Y-79351801D01*
G37*
%TO.C,C1*%
X154613962Y-78495230D02*
X154386498Y-78329968D01*
X155213502Y-77670032D02*
X154986038Y-77504770D01*
%TO.C,C4*%
X114158403Y-92008702D02*
X114071520Y-92276101D01*
X115128480Y-92323899D02*
X115041597Y-92591298D01*
%TO.C,C2*%
X164771520Y-108076101D02*
X164858403Y-107808702D01*
X165741597Y-108391298D02*
X165828480Y-108123899D01*
%TO.C,C3*%
X123886498Y-121729968D02*
X124113961Y-121895230D01*
X124486039Y-120904770D02*
X124713502Y-121070032D01*
%TO.C,D3*%
X165790000Y-102500000D02*
X165790000Y-97500000D01*
X171190000Y-97500000D02*
X171190000Y-102500000D01*
X171320000Y-97240000D02*
X170990000Y-97000000D01*
X171320000Y-96760000D01*
X171320000Y-97240000D01*
G36*
X171320000Y-97240000D02*
G01*
X170990000Y-97000000D01*
X171320000Y-96760000D01*
X171320000Y-97240000D01*
G37*
%TO.C,D6*%
X129639721Y-123764715D02*
X134395003Y-125309800D01*
X132726311Y-130445505D02*
X127971029Y-128900420D01*
X133389921Y-130797815D02*
X132933414Y-130649487D01*
X133263643Y-130409802D01*
X133389921Y-130797815D01*
G36*
X133389921Y-130797815D02*
G01*
X132933414Y-130649487D01*
X133263643Y-130409802D01*
X133389921Y-130797815D01*
G37*
%TO.C,D4*%
X159393175Y-117187402D02*
X162332101Y-113142317D01*
X166700793Y-116316358D02*
X163761867Y-120361443D01*
X166958789Y-116182425D02*
X166832882Y-115794292D01*
X167240926Y-115794097D01*
X166958789Y-116182425D01*
G36*
X166958789Y-116182425D02*
G01*
X166832882Y-115794292D01*
X167240926Y-115794097D01*
X166958789Y-116182425D01*
G37*
%TO.C,D5*%
X145584997Y-125309801D02*
X150340279Y-123764716D01*
X152008971Y-128900421D02*
X147253689Y-130445506D01*
X152752925Y-128795386D02*
X152296418Y-128943714D01*
X152422696Y-128555701D01*
X152752925Y-128795386D01*
G36*
X152752925Y-128795386D02*
G01*
X152296418Y-128943714D01*
X152422696Y-128555701D01*
X152752925Y-128795386D01*
G37*
%TO.C,D1*%
X147253689Y-69554494D02*
X152008971Y-71099579D01*
X150340279Y-76235284D02*
X145584997Y-74690199D01*
X147046586Y-69350513D02*
X146716357Y-69590197D01*
X146590079Y-69202184D01*
X147046586Y-69350513D01*
G36*
X147046586Y-69350513D02*
G01*
X146716357Y-69590197D01*
X146590079Y-69202184D01*
X147046586Y-69350513D01*
G37*
%TO.C,D7*%
X116218133Y-120361443D02*
X113279207Y-116316358D01*
X117647899Y-113142317D02*
X120586825Y-117187402D01*
X116673829Y-120648394D02*
X116547922Y-121036527D01*
X116265785Y-120648199D01*
X116673829Y-120648394D01*
G36*
X116673829Y-120648394D02*
G01*
X116547922Y-121036527D01*
X116265785Y-120648199D01*
X116673829Y-120648394D01*
G37*
%TO.C,D9*%
X113279207Y-83683642D02*
X116218133Y-79638557D01*
X120586825Y-82812598D02*
X117647899Y-86857683D01*
X113147118Y-84205708D02*
X112739074Y-84205903D01*
X113021211Y-83817575D01*
X113147118Y-84205708D01*
G36*
X113147118Y-84205708D02*
G01*
X112739074Y-84205903D01*
X113021211Y-83817575D01*
X113147118Y-84205708D01*
G37*
%TO.C,D8*%
X108790000Y-102500000D02*
X108790000Y-97500000D01*
X114190000Y-97500000D02*
X114190000Y-102500000D01*
X108990000Y-103000000D02*
X108660000Y-103240000D01*
X108660000Y-102760000D01*
X108990000Y-103000000D01*
G36*
X108990000Y-103000000D02*
G01*
X108660000Y-103240000D01*
X108660000Y-102760000D01*
X108990000Y-103000000D01*
G37*
%TO.C,D10*%
X127971029Y-71099579D02*
X132726311Y-69554494D01*
X134395003Y-74690199D02*
X129639721Y-76235284D01*
X127557304Y-71444299D02*
X127227075Y-71204614D01*
X127683582Y-71056286D01*
X127557304Y-71444299D01*
G36*
X127557304Y-71444299D02*
G01*
X127227075Y-71204614D01*
X127683582Y-71056286D01*
X127557304Y-71444299D01*
G37*
%TD*%
D13*
X171980000Y-99990000D02*
G75*
G02*
X108000000Y-99990000I-31990000J0D01*
G01*
X108000000Y-99990000D02*
G75*
G02*
X171980000Y-99990000I31990000J0D01*
G01*
X165000002Y-100000000D02*
G75*
G02*
X114999998Y-100000000I-25000002J0D01*
G01*
X114999998Y-100000000D02*
G75*
G02*
X165000002Y-100000000I25000002J0D01*
G01*
M02*
