%TF.GenerationSoftware,KiCad,Pcbnew,9.0.5*%
%TF.CreationDate,2025-12-07T22:18:13-05:00*%
%TF.ProjectId,LED_PCB,4c45445f-5043-4422-9e6b-696361645f70,rev?*%
%TF.SameCoordinates,Original*%
%TF.FileFunction,Soldermask,Top*%
%TF.FilePolarity,Negative*%
%FSLAX46Y46*%
G04 Gerber Fmt 4.6, Leading zero omitted, Abs format (unit mm)*
G04 Created by KiCad (PCBNEW 9.0.5) date 2025-12-07 22:18:13*
%MOMM*%
%LPD*%
G01*
G04 APERTURE LIST*
G04 Aperture macros list*
%AMRoundRect*
0 Rectangle with rounded corners*
0 $1 Rounding radius*
0 $2 $3 $4 $5 $6 $7 $8 $9 X,Y pos of 4 corners*
0 Add a 4 corners polygon primitive as box body*
4,1,4,$2,$3,$4,$5,$6,$7,$8,$9,$2,$3,0*
0 Add four circle primitives for the rounded corners*
1,1,$1+$1,$2,$3*
1,1,$1+$1,$4,$5*
1,1,$1+$1,$6,$7*
1,1,$1+$1,$8,$9*
0 Add four rect primitives between the rounded corners*
20,1,$1+$1,$2,$3,$4,$5,0*
20,1,$1+$1,$4,$5,$6,$7,0*
20,1,$1+$1,$6,$7,$8,$9,0*
20,1,$1+$1,$8,$9,$2,$3,0*%
%AMRotRect*
0 Rectangle, with rotation*
0 The origin of the aperture is its center*
0 $1 length*
0 $2 width*
0 $3 Rotation angle, in degrees counterclockwise*
0 Add horizontal line*
21,1,$1,$2,0,0,$3*%
G04 Aperture macros list end*
%ADD10RotRect,1.100000X2.000000X36.000000*%
%ADD11RoundRect,0.225000X0.328975X0.070003X-0.035083X0.334506X-0.328975X-0.070003X0.035083X-0.334506X0*%
%ADD12C,2.700000*%
%ADD13RoundRect,0.225000X-0.168235X0.291242X-0.307293X-0.136733X0.168235X-0.291242X0.307293X0.136733X0*%
%ADD14RoundRect,0.225000X0.168235X-0.291242X0.307293X0.136733X-0.168235X0.291242X-0.307293X-0.136733X0*%
%ADD15RoundRect,0.225000X-0.328975X-0.070003X0.035083X-0.334506X0.328975X0.070003X-0.035083X0.334506X0*%
%ADD16R,1.100000X2.000000*%
%ADD17RotRect,1.100000X2.000000X252.000000*%
%ADD18RotRect,1.100000X2.000000X324.000000*%
%ADD19RotRect,1.100000X2.000000X288.000000*%
%ADD20RotRect,1.100000X2.000000X72.000000*%
%ADD21RotRect,1.100000X2.000000X216.000000*%
%ADD22RotRect,1.100000X2.000000X144.000000*%
%ADD23RotRect,1.100000X2.000000X108.000000*%
%ADD24R,1.700000X1.700000*%
%ADD25C,1.700000*%
%TA.AperFunction,Profile*%
%ADD26C,0.100000*%
%TD*%
G04 APERTURE END LIST*
D10*
%TO.C,D2*%
X163011628Y-80307244D03*
X161636299Y-81306479D03*
X160260971Y-82305714D03*
X163082340Y-86188996D03*
X164457669Y-85189761D03*
X165832997Y-84190526D03*
%TD*%
D11*
%TO.C,C1*%
X155426988Y-78455534D03*
X154173012Y-77544466D03*
%TD*%
D12*
%TO.C,REF\u002A\u002A*%
X123238120Y-76943016D03*
%TD*%
D13*
%TO.C,C4*%
X114839488Y-91562931D03*
X114360512Y-93037069D03*
%TD*%
D14*
%TO.C,C2*%
X165060511Y-108837068D03*
X165539489Y-107362932D03*
%TD*%
D15*
%TO.C,C3*%
X123673012Y-120944466D03*
X124926988Y-121855534D03*
%TD*%
D16*
%TO.C,D3*%
X170190000Y-97600000D03*
X168490000Y-97600000D03*
X166790000Y-97600000D03*
X166790000Y-102400000D03*
X168490000Y-102400000D03*
X170190000Y-102400000D03*
%TD*%
D12*
%TO.C,REF\u002A\u002A*%
X156741880Y-123056984D03*
%TD*%
D17*
%TO.C,D6*%
X132940223Y-129463547D03*
X133465552Y-127846751D03*
X133990881Y-126229955D03*
X129425809Y-124746673D03*
X128900480Y-126363469D03*
X128375151Y-127980265D03*
%TD*%
D18*
%TO.C,D4*%
X165832997Y-115809474D03*
X164457669Y-114810239D03*
X163082340Y-113811004D03*
X160260971Y-117694286D03*
X161636299Y-118693521D03*
X163011628Y-119692756D03*
%TD*%
D19*
%TO.C,D5*%
X151604849Y-127980266D03*
X151079520Y-126363470D03*
X150554191Y-124746674D03*
X145989119Y-126229956D03*
X146514448Y-127846752D03*
X147039777Y-129463548D03*
%TD*%
D20*
%TO.C,D1*%
X147039777Y-70536453D03*
X146514448Y-72153248D03*
X145989119Y-73770044D03*
X150554191Y-75253325D03*
X151079520Y-73636530D03*
X151604849Y-72019734D03*
%TD*%
D21*
%TO.C,D7*%
X116968372Y-119692756D03*
X118343701Y-118693521D03*
X119719029Y-117694286D03*
X116897660Y-113811004D03*
X115522331Y-114810239D03*
X114147003Y-115809474D03*
%TD*%
D22*
%TO.C,D9*%
X114147003Y-84190526D03*
X115522331Y-85189761D03*
X116897660Y-86188996D03*
X119719029Y-82305714D03*
X118343701Y-81306479D03*
X116968372Y-80307244D03*
%TD*%
D16*
%TO.C,D8*%
X109790000Y-102400000D03*
X111490000Y-102400000D03*
X113190000Y-102400000D03*
X113190000Y-97600000D03*
X111490000Y-97600000D03*
X109790000Y-97600000D03*
%TD*%
D23*
%TO.C,D10*%
X128375151Y-72019734D03*
X128900480Y-73636530D03*
X129425809Y-75253326D03*
X133990881Y-73770044D03*
X133465552Y-72153248D03*
X132940223Y-70536452D03*
%TD*%
D24*
%TO.C,J1*%
X141280000Y-70250000D03*
D25*
X141280000Y-72790000D03*
X138740000Y-70250000D03*
X138740000Y-72790000D03*
%TD*%
D26*
X171980000Y-99990000D02*
G75*
G02*
X108000000Y-99990000I-31990000J0D01*
G01*
X108000000Y-99990000D02*
G75*
G02*
X171980000Y-99990000I31990000J0D01*
G01*
X165000002Y-100000000D02*
G75*
G02*
X114999998Y-100000000I-25000002J0D01*
G01*
X114999998Y-100000000D02*
G75*
G02*
X165000002Y-100000000I25000002J0D01*
G01*
M02*
