%TF.GenerationSoftware,KiCad,Pcbnew,9.0.5*%
%TF.CreationDate,2025-12-07T22:15:23-05:00*%
%TF.ProjectId,Control_PCB,436f6e74-726f-46c5-9f50-43422e6b6963,rev?*%
%TF.SameCoordinates,Original*%
%TF.FileFunction,Legend,Top*%
%TF.FilePolarity,Positive*%
%FSLAX46Y46*%
G04 Gerber Fmt 4.6, Leading zero omitted, Abs format (unit mm)*
G04 Created by KiCad (PCBNEW 9.0.5) date 2025-12-07 22:15:23*
%MOMM*%
%LPD*%
G01*
G04 APERTURE LIST*
%ADD10C,0.095250*%
%ADD11C,0.120000*%
%TA.AperFunction,Profile*%
%ADD12C,0.100000*%
%TD*%
G04 APERTURE END LIST*
D10*
X142695071Y-67856764D02*
X142658785Y-67929336D01*
X142658785Y-67929336D02*
X142658785Y-68038193D01*
X142658785Y-68038193D02*
X142695071Y-68147050D01*
X142695071Y-68147050D02*
X142767642Y-68219621D01*
X142767642Y-68219621D02*
X142840214Y-68255907D01*
X142840214Y-68255907D02*
X142985357Y-68292193D01*
X142985357Y-68292193D02*
X143094214Y-68292193D01*
X143094214Y-68292193D02*
X143239357Y-68255907D01*
X143239357Y-68255907D02*
X143311928Y-68219621D01*
X143311928Y-68219621D02*
X143384500Y-68147050D01*
X143384500Y-68147050D02*
X143420785Y-68038193D01*
X143420785Y-68038193D02*
X143420785Y-67965621D01*
X143420785Y-67965621D02*
X143384500Y-67856764D01*
X143384500Y-67856764D02*
X143348214Y-67820478D01*
X143348214Y-67820478D02*
X143094214Y-67820478D01*
X143094214Y-67820478D02*
X143094214Y-67965621D01*
X143420785Y-67493907D02*
X142658785Y-67493907D01*
X142658785Y-67493907D02*
X143420785Y-67058478D01*
X143420785Y-67058478D02*
X142658785Y-67058478D01*
X143420785Y-66695621D02*
X142658785Y-66695621D01*
X142658785Y-66695621D02*
X142658785Y-66514192D01*
X142658785Y-66514192D02*
X142695071Y-66405335D01*
X142695071Y-66405335D02*
X142767642Y-66332764D01*
X142767642Y-66332764D02*
X142840214Y-66296478D01*
X142840214Y-66296478D02*
X142985357Y-66260192D01*
X142985357Y-66260192D02*
X143094214Y-66260192D01*
X143094214Y-66260192D02*
X143239357Y-66296478D01*
X143239357Y-66296478D02*
X143311928Y-66332764D01*
X143311928Y-66332764D02*
X143384500Y-66405335D01*
X143384500Y-66405335D02*
X143420785Y-66514192D01*
X143420785Y-66514192D02*
X143420785Y-66695621D01*
X143885562Y-68255907D02*
X144502419Y-68255907D01*
X144502419Y-68255907D02*
X144574991Y-68219621D01*
X144574991Y-68219621D02*
X144611277Y-68183336D01*
X144611277Y-68183336D02*
X144647562Y-68110764D01*
X144647562Y-68110764D02*
X144647562Y-67965621D01*
X144647562Y-67965621D02*
X144611277Y-67893050D01*
X144611277Y-67893050D02*
X144574991Y-67856764D01*
X144574991Y-67856764D02*
X144502419Y-67820478D01*
X144502419Y-67820478D02*
X143885562Y-67820478D01*
X144647562Y-67457621D02*
X143885562Y-67457621D01*
X143885562Y-67457621D02*
X143885562Y-67167335D01*
X143885562Y-67167335D02*
X143921848Y-67094764D01*
X143921848Y-67094764D02*
X143958134Y-67058478D01*
X143958134Y-67058478D02*
X144030705Y-67022192D01*
X144030705Y-67022192D02*
X144139562Y-67022192D01*
X144139562Y-67022192D02*
X144212134Y-67058478D01*
X144212134Y-67058478D02*
X144248419Y-67094764D01*
X144248419Y-67094764D02*
X144284705Y-67167335D01*
X144284705Y-67167335D02*
X144284705Y-67457621D01*
X144647562Y-66695621D02*
X143885562Y-66695621D01*
X143885562Y-66695621D02*
X143885562Y-66514192D01*
X143885562Y-66514192D02*
X143921848Y-66405335D01*
X143921848Y-66405335D02*
X143994419Y-66332764D01*
X143994419Y-66332764D02*
X144066991Y-66296478D01*
X144066991Y-66296478D02*
X144212134Y-66260192D01*
X144212134Y-66260192D02*
X144320991Y-66260192D01*
X144320991Y-66260192D02*
X144466134Y-66296478D01*
X144466134Y-66296478D02*
X144538705Y-66332764D01*
X144538705Y-66332764D02*
X144611277Y-66405335D01*
X144611277Y-66405335D02*
X144647562Y-66514192D01*
X144647562Y-66514192D02*
X144647562Y-66695621D01*
X144647562Y-65933621D02*
X143885562Y-65933621D01*
X145584054Y-68255907D02*
X145584054Y-67675336D01*
X145874339Y-67965621D02*
X145293768Y-67965621D01*
X145112339Y-66949621D02*
X145112339Y-67312478D01*
X145112339Y-67312478D02*
X145475196Y-67348764D01*
X145475196Y-67348764D02*
X145438911Y-67312478D01*
X145438911Y-67312478D02*
X145402625Y-67239907D01*
X145402625Y-67239907D02*
X145402625Y-67058478D01*
X145402625Y-67058478D02*
X145438911Y-66985907D01*
X145438911Y-66985907D02*
X145475196Y-66949621D01*
X145475196Y-66949621D02*
X145547768Y-66913335D01*
X145547768Y-66913335D02*
X145729196Y-66913335D01*
X145729196Y-66913335D02*
X145801768Y-66949621D01*
X145801768Y-66949621D02*
X145838054Y-66985907D01*
X145838054Y-66985907D02*
X145874339Y-67058478D01*
X145874339Y-67058478D02*
X145874339Y-67239907D01*
X145874339Y-67239907D02*
X145838054Y-67312478D01*
X145838054Y-67312478D02*
X145801768Y-67348764D01*
X145112339Y-66695621D02*
X145874339Y-66441621D01*
X145874339Y-66441621D02*
X145112339Y-66187621D01*
X145434174Y-73350570D02*
X145071317Y-73604570D01*
X145434174Y-73785999D02*
X144672174Y-73785999D01*
X144672174Y-73785999D02*
X144672174Y-73495713D01*
X144672174Y-73495713D02*
X144708460Y-73423142D01*
X144708460Y-73423142D02*
X144744746Y-73386856D01*
X144744746Y-73386856D02*
X144817317Y-73350570D01*
X144817317Y-73350570D02*
X144926174Y-73350570D01*
X144926174Y-73350570D02*
X144998746Y-73386856D01*
X144998746Y-73386856D02*
X145035031Y-73423142D01*
X145035031Y-73423142D02*
X145071317Y-73495713D01*
X145071317Y-73495713D02*
X145071317Y-73785999D01*
X144708460Y-72624856D02*
X144672174Y-72697428D01*
X144672174Y-72697428D02*
X144672174Y-72806285D01*
X144672174Y-72806285D02*
X144708460Y-72915142D01*
X144708460Y-72915142D02*
X144781031Y-72987713D01*
X144781031Y-72987713D02*
X144853603Y-73023999D01*
X144853603Y-73023999D02*
X144998746Y-73060285D01*
X144998746Y-73060285D02*
X145107603Y-73060285D01*
X145107603Y-73060285D02*
X145252746Y-73023999D01*
X145252746Y-73023999D02*
X145325317Y-72987713D01*
X145325317Y-72987713D02*
X145397889Y-72915142D01*
X145397889Y-72915142D02*
X145434174Y-72806285D01*
X145434174Y-72806285D02*
X145434174Y-72733713D01*
X145434174Y-72733713D02*
X145397889Y-72624856D01*
X145397889Y-72624856D02*
X145361603Y-72588570D01*
X145361603Y-72588570D02*
X145107603Y-72588570D01*
X145107603Y-72588570D02*
X145107603Y-72733713D01*
X145035031Y-72007999D02*
X145071317Y-71899142D01*
X145071317Y-71899142D02*
X145107603Y-71862856D01*
X145107603Y-71862856D02*
X145180174Y-71826570D01*
X145180174Y-71826570D02*
X145289031Y-71826570D01*
X145289031Y-71826570D02*
X145361603Y-71862856D01*
X145361603Y-71862856D02*
X145397889Y-71899142D01*
X145397889Y-71899142D02*
X145434174Y-71971713D01*
X145434174Y-71971713D02*
X145434174Y-72261999D01*
X145434174Y-72261999D02*
X144672174Y-72261999D01*
X144672174Y-72261999D02*
X144672174Y-72007999D01*
X144672174Y-72007999D02*
X144708460Y-71935428D01*
X144708460Y-71935428D02*
X144744746Y-71899142D01*
X144744746Y-71899142D02*
X144817317Y-71862856D01*
X144817317Y-71862856D02*
X144889889Y-71862856D01*
X144889889Y-71862856D02*
X144962460Y-71899142D01*
X144962460Y-71899142D02*
X144998746Y-71935428D01*
X144998746Y-71935428D02*
X145035031Y-72007999D01*
X145035031Y-72007999D02*
X145035031Y-72261999D01*
X145434174Y-70556571D02*
X145434174Y-70919428D01*
X145434174Y-70919428D02*
X144672174Y-70919428D01*
X145035031Y-70302571D02*
X145035031Y-70048571D01*
X145434174Y-69939714D02*
X145434174Y-70302571D01*
X145434174Y-70302571D02*
X144672174Y-70302571D01*
X144672174Y-70302571D02*
X144672174Y-69939714D01*
X145434174Y-69613142D02*
X144672174Y-69613142D01*
X144672174Y-69613142D02*
X144672174Y-69431713D01*
X144672174Y-69431713D02*
X144708460Y-69322856D01*
X144708460Y-69322856D02*
X144781031Y-69250285D01*
X144781031Y-69250285D02*
X144853603Y-69213999D01*
X144853603Y-69213999D02*
X144998746Y-69177713D01*
X144998746Y-69177713D02*
X145107603Y-69177713D01*
X145107603Y-69177713D02*
X145252746Y-69213999D01*
X145252746Y-69213999D02*
X145325317Y-69250285D01*
X145325317Y-69250285D02*
X145397889Y-69322856D01*
X145397889Y-69322856D02*
X145434174Y-69431713D01*
X145434174Y-69431713D02*
X145434174Y-69613142D01*
X146588380Y-73096570D02*
X146624666Y-73132856D01*
X146624666Y-73132856D02*
X146660951Y-73241713D01*
X146660951Y-73241713D02*
X146660951Y-73314285D01*
X146660951Y-73314285D02*
X146624666Y-73423142D01*
X146624666Y-73423142D02*
X146552094Y-73495713D01*
X146552094Y-73495713D02*
X146479523Y-73531999D01*
X146479523Y-73531999D02*
X146334380Y-73568285D01*
X146334380Y-73568285D02*
X146225523Y-73568285D01*
X146225523Y-73568285D02*
X146080380Y-73531999D01*
X146080380Y-73531999D02*
X146007808Y-73495713D01*
X146007808Y-73495713D02*
X145935237Y-73423142D01*
X145935237Y-73423142D02*
X145898951Y-73314285D01*
X145898951Y-73314285D02*
X145898951Y-73241713D01*
X145898951Y-73241713D02*
X145935237Y-73132856D01*
X145935237Y-73132856D02*
X145971523Y-73096570D01*
X146152951Y-72878856D02*
X146152951Y-72588570D01*
X145898951Y-72769999D02*
X146552094Y-72769999D01*
X146552094Y-72769999D02*
X146624666Y-72733713D01*
X146624666Y-72733713D02*
X146660951Y-72661142D01*
X146660951Y-72661142D02*
X146660951Y-72588570D01*
X146660951Y-72334570D02*
X146152951Y-72334570D01*
X146298094Y-72334570D02*
X146225523Y-72298284D01*
X146225523Y-72298284D02*
X146189237Y-72261999D01*
X146189237Y-72261999D02*
X146152951Y-72189427D01*
X146152951Y-72189427D02*
X146152951Y-72116856D01*
X146660951Y-71753999D02*
X146624666Y-71826570D01*
X146624666Y-71826570D02*
X146552094Y-71862856D01*
X146552094Y-71862856D02*
X145898951Y-71862856D01*
X146660951Y-71463713D02*
X146152951Y-71463713D01*
X146298094Y-71463713D02*
X146225523Y-71427427D01*
X146225523Y-71427427D02*
X146189237Y-71391142D01*
X146189237Y-71391142D02*
X146152951Y-71318570D01*
X146152951Y-71318570D02*
X146152951Y-71245999D01*
X146152951Y-70483999D02*
X146660951Y-70302571D01*
X146660951Y-70302571D02*
X146152951Y-70121142D01*
X146660951Y-69431714D02*
X146660951Y-69867143D01*
X146660951Y-69649428D02*
X145898951Y-69649428D01*
X145898951Y-69649428D02*
X146007808Y-69722000D01*
X146007808Y-69722000D02*
X146080380Y-69794571D01*
X146080380Y-69794571D02*
X146116666Y-69867143D01*
X153272174Y-74021857D02*
X153272174Y-73586429D01*
X154034174Y-73804143D02*
X153272174Y-73804143D01*
X153635031Y-72497858D02*
X153671317Y-72389001D01*
X153671317Y-72389001D02*
X153707603Y-72352715D01*
X153707603Y-72352715D02*
X153780174Y-72316429D01*
X153780174Y-72316429D02*
X153889031Y-72316429D01*
X153889031Y-72316429D02*
X153961603Y-72352715D01*
X153961603Y-72352715D02*
X153997889Y-72389001D01*
X153997889Y-72389001D02*
X154034174Y-72461572D01*
X154034174Y-72461572D02*
X154034174Y-72751858D01*
X154034174Y-72751858D02*
X153272174Y-72751858D01*
X153272174Y-72751858D02*
X153272174Y-72497858D01*
X153272174Y-72497858D02*
X153308460Y-72425287D01*
X153308460Y-72425287D02*
X153344746Y-72389001D01*
X153344746Y-72389001D02*
X153417317Y-72352715D01*
X153417317Y-72352715D02*
X153489889Y-72352715D01*
X153489889Y-72352715D02*
X153562460Y-72389001D01*
X153562460Y-72389001D02*
X153598746Y-72425287D01*
X153598746Y-72425287D02*
X153635031Y-72497858D01*
X153635031Y-72497858D02*
X153635031Y-72751858D01*
X153526174Y-71663287D02*
X154034174Y-71663287D01*
X153526174Y-71989858D02*
X153925317Y-71989858D01*
X153925317Y-71989858D02*
X153997889Y-71953572D01*
X153997889Y-71953572D02*
X154034174Y-71881001D01*
X154034174Y-71881001D02*
X154034174Y-71772144D01*
X154034174Y-71772144D02*
X153997889Y-71699572D01*
X153997889Y-71699572D02*
X153961603Y-71663287D01*
X153997889Y-71010143D02*
X154034174Y-71082715D01*
X154034174Y-71082715D02*
X154034174Y-71227858D01*
X154034174Y-71227858D02*
X153997889Y-71300429D01*
X153997889Y-71300429D02*
X153925317Y-71336715D01*
X153925317Y-71336715D02*
X153635031Y-71336715D01*
X153635031Y-71336715D02*
X153562460Y-71300429D01*
X153562460Y-71300429D02*
X153526174Y-71227858D01*
X153526174Y-71227858D02*
X153526174Y-71082715D01*
X153526174Y-71082715D02*
X153562460Y-71010143D01*
X153562460Y-71010143D02*
X153635031Y-70973858D01*
X153635031Y-70973858D02*
X153707603Y-70973858D01*
X153707603Y-70973858D02*
X153780174Y-71336715D01*
X153526174Y-70756143D02*
X153526174Y-70465857D01*
X153272174Y-70647286D02*
X153925317Y-70647286D01*
X153925317Y-70647286D02*
X153997889Y-70611000D01*
X153997889Y-70611000D02*
X154034174Y-70538429D01*
X154034174Y-70538429D02*
X154034174Y-70465857D01*
X154034174Y-70103000D02*
X153997889Y-70175571D01*
X153997889Y-70175571D02*
X153961603Y-70211857D01*
X153961603Y-70211857D02*
X153889031Y-70248143D01*
X153889031Y-70248143D02*
X153671317Y-70248143D01*
X153671317Y-70248143D02*
X153598746Y-70211857D01*
X153598746Y-70211857D02*
X153562460Y-70175571D01*
X153562460Y-70175571D02*
X153526174Y-70103000D01*
X153526174Y-70103000D02*
X153526174Y-69994143D01*
X153526174Y-69994143D02*
X153562460Y-69921571D01*
X153562460Y-69921571D02*
X153598746Y-69885286D01*
X153598746Y-69885286D02*
X153671317Y-69849000D01*
X153671317Y-69849000D02*
X153889031Y-69849000D01*
X153889031Y-69849000D02*
X153961603Y-69885286D01*
X153961603Y-69885286D02*
X153997889Y-69921571D01*
X153997889Y-69921571D02*
X154034174Y-69994143D01*
X154034174Y-69994143D02*
X154034174Y-70103000D01*
X153526174Y-69594999D02*
X154034174Y-69449857D01*
X154034174Y-69449857D02*
X153671317Y-69304714D01*
X153671317Y-69304714D02*
X154034174Y-69159571D01*
X154034174Y-69159571D02*
X153526174Y-69014428D01*
X155260951Y-74094427D02*
X154498951Y-74094427D01*
X154498951Y-74094427D02*
X154498951Y-73912998D01*
X154498951Y-73912998D02*
X154535237Y-73804141D01*
X154535237Y-73804141D02*
X154607808Y-73731570D01*
X154607808Y-73731570D02*
X154680380Y-73695284D01*
X154680380Y-73695284D02*
X154825523Y-73658998D01*
X154825523Y-73658998D02*
X154934380Y-73658998D01*
X154934380Y-73658998D02*
X155079523Y-73695284D01*
X155079523Y-73695284D02*
X155152094Y-73731570D01*
X155152094Y-73731570D02*
X155224666Y-73804141D01*
X155224666Y-73804141D02*
X155260951Y-73912998D01*
X155260951Y-73912998D02*
X155260951Y-74094427D01*
X155224666Y-73042141D02*
X155260951Y-73114713D01*
X155260951Y-73114713D02*
X155260951Y-73259856D01*
X155260951Y-73259856D02*
X155224666Y-73332427D01*
X155224666Y-73332427D02*
X155152094Y-73368713D01*
X155152094Y-73368713D02*
X154861808Y-73368713D01*
X154861808Y-73368713D02*
X154789237Y-73332427D01*
X154789237Y-73332427D02*
X154752951Y-73259856D01*
X154752951Y-73259856D02*
X154752951Y-73114713D01*
X154752951Y-73114713D02*
X154789237Y-73042141D01*
X154789237Y-73042141D02*
X154861808Y-73005856D01*
X154861808Y-73005856D02*
X154934380Y-73005856D01*
X154934380Y-73005856D02*
X155006951Y-73368713D01*
X155224666Y-72352713D02*
X155260951Y-72425284D01*
X155260951Y-72425284D02*
X155260951Y-72570427D01*
X155260951Y-72570427D02*
X155224666Y-72642998D01*
X155224666Y-72642998D02*
X155188380Y-72679284D01*
X155188380Y-72679284D02*
X155115808Y-72715570D01*
X155115808Y-72715570D02*
X154898094Y-72715570D01*
X154898094Y-72715570D02*
X154825523Y-72679284D01*
X154825523Y-72679284D02*
X154789237Y-72642998D01*
X154789237Y-72642998D02*
X154752951Y-72570427D01*
X154752951Y-72570427D02*
X154752951Y-72425284D01*
X154752951Y-72425284D02*
X154789237Y-72352713D01*
X154571523Y-71481856D02*
X154535237Y-71445570D01*
X154535237Y-71445570D02*
X154498951Y-71372999D01*
X154498951Y-71372999D02*
X154498951Y-71191570D01*
X154498951Y-71191570D02*
X154535237Y-71118999D01*
X154535237Y-71118999D02*
X154571523Y-71082713D01*
X154571523Y-71082713D02*
X154644094Y-71046427D01*
X154644094Y-71046427D02*
X154716666Y-71046427D01*
X154716666Y-71046427D02*
X154825523Y-71082713D01*
X154825523Y-71082713D02*
X155260951Y-71518141D01*
X155260951Y-71518141D02*
X155260951Y-71046427D01*
X154498951Y-70574713D02*
X154498951Y-70502142D01*
X154498951Y-70502142D02*
X154535237Y-70429570D01*
X154535237Y-70429570D02*
X154571523Y-70393285D01*
X154571523Y-70393285D02*
X154644094Y-70356999D01*
X154644094Y-70356999D02*
X154789237Y-70320713D01*
X154789237Y-70320713D02*
X154970666Y-70320713D01*
X154970666Y-70320713D02*
X155115808Y-70356999D01*
X155115808Y-70356999D02*
X155188380Y-70393285D01*
X155188380Y-70393285D02*
X155224666Y-70429570D01*
X155224666Y-70429570D02*
X155260951Y-70502142D01*
X155260951Y-70502142D02*
X155260951Y-70574713D01*
X155260951Y-70574713D02*
X155224666Y-70647285D01*
X155224666Y-70647285D02*
X155188380Y-70683570D01*
X155188380Y-70683570D02*
X155115808Y-70719856D01*
X155115808Y-70719856D02*
X154970666Y-70756142D01*
X154970666Y-70756142D02*
X154789237Y-70756142D01*
X154789237Y-70756142D02*
X154644094Y-70719856D01*
X154644094Y-70719856D02*
X154571523Y-70683570D01*
X154571523Y-70683570D02*
X154535237Y-70647285D01*
X154535237Y-70647285D02*
X154498951Y-70574713D01*
X154571523Y-70030428D02*
X154535237Y-69994142D01*
X154535237Y-69994142D02*
X154498951Y-69921571D01*
X154498951Y-69921571D02*
X154498951Y-69740142D01*
X154498951Y-69740142D02*
X154535237Y-69667571D01*
X154535237Y-69667571D02*
X154571523Y-69631285D01*
X154571523Y-69631285D02*
X154644094Y-69594999D01*
X154644094Y-69594999D02*
X154716666Y-69594999D01*
X154716666Y-69594999D02*
X154825523Y-69631285D01*
X154825523Y-69631285D02*
X155260951Y-70066713D01*
X155260951Y-70066713D02*
X155260951Y-69594999D01*
X154498951Y-68905571D02*
X154498951Y-69268428D01*
X154498951Y-69268428D02*
X154861808Y-69304714D01*
X154861808Y-69304714D02*
X154825523Y-69268428D01*
X154825523Y-69268428D02*
X154789237Y-69195857D01*
X154789237Y-69195857D02*
X154789237Y-69014428D01*
X154789237Y-69014428D02*
X154825523Y-68941857D01*
X154825523Y-68941857D02*
X154861808Y-68905571D01*
X154861808Y-68905571D02*
X154934380Y-68869285D01*
X154934380Y-68869285D02*
X155115808Y-68869285D01*
X155115808Y-68869285D02*
X155188380Y-68905571D01*
X155188380Y-68905571D02*
X155224666Y-68941857D01*
X155224666Y-68941857D02*
X155260951Y-69014428D01*
X155260951Y-69014428D02*
X155260951Y-69195857D01*
X155260951Y-69195857D02*
X155224666Y-69268428D01*
X155224666Y-69268428D02*
X155188380Y-69304714D01*
X164342690Y-63193959D02*
X164429032Y-63269535D01*
X164429032Y-63269535D02*
X164596332Y-63339728D01*
X164596332Y-63339728D02*
X164677290Y-63334345D01*
X164677290Y-63334345D02*
X164724789Y-63314923D01*
X164724789Y-63314923D02*
X164786326Y-63262041D01*
X164786326Y-63262041D02*
X164814403Y-63195121D01*
X164814403Y-63195121D02*
X164809020Y-63114163D01*
X164809020Y-63114163D02*
X164789599Y-63066664D01*
X164789599Y-63066664D02*
X164736717Y-63005127D01*
X164736717Y-63005127D02*
X164616915Y-62915513D01*
X164616915Y-62915513D02*
X164564034Y-62853976D01*
X164564034Y-62853976D02*
X164544612Y-62806478D01*
X164544612Y-62806478D02*
X164539229Y-62725519D01*
X164539229Y-62725519D02*
X164567306Y-62658599D01*
X164567306Y-62658599D02*
X164628843Y-62605717D01*
X164628843Y-62605717D02*
X164676342Y-62586296D01*
X164676342Y-62586296D02*
X164757300Y-62580913D01*
X164757300Y-62580913D02*
X164924601Y-62651105D01*
X164924601Y-62651105D02*
X165010942Y-62726681D01*
X165259201Y-62791490D02*
X165131692Y-63564344D01*
X165131692Y-63564344D02*
X165476110Y-63118597D01*
X165476110Y-63118597D02*
X165399372Y-63676652D01*
X165399372Y-63676652D02*
X165861481Y-63044184D01*
X166202413Y-64013576D02*
X165800892Y-63845114D01*
X166001653Y-63929345D02*
X166296461Y-63226684D01*
X166296461Y-63226684D02*
X166187426Y-63298987D01*
X166187426Y-63298987D02*
X166092429Y-63337830D01*
X166092429Y-63337830D02*
X166011470Y-63343213D01*
X139819428Y-60885562D02*
X139819428Y-61502419D01*
X139819428Y-61502419D02*
X139855714Y-61574991D01*
X139855714Y-61574991D02*
X139892000Y-61611277D01*
X139892000Y-61611277D02*
X139964571Y-61647562D01*
X139964571Y-61647562D02*
X140109714Y-61647562D01*
X140109714Y-61647562D02*
X140182285Y-61611277D01*
X140182285Y-61611277D02*
X140218571Y-61574991D01*
X140218571Y-61574991D02*
X140254857Y-61502419D01*
X140254857Y-61502419D02*
X140254857Y-60885562D01*
X141016857Y-61647562D02*
X140581428Y-61647562D01*
X140799143Y-61647562D02*
X140799143Y-60885562D01*
X140799143Y-60885562D02*
X140726571Y-60994419D01*
X140726571Y-60994419D02*
X140654000Y-61066991D01*
X140654000Y-61066991D02*
X140581428Y-61103277D01*
X156237571Y-65947562D02*
X156237571Y-65185562D01*
X156237571Y-65185562D02*
X156419000Y-65185562D01*
X156419000Y-65185562D02*
X156527857Y-65221848D01*
X156527857Y-65221848D02*
X156600428Y-65294419D01*
X156600428Y-65294419D02*
X156636714Y-65366991D01*
X156636714Y-65366991D02*
X156673000Y-65512134D01*
X156673000Y-65512134D02*
X156673000Y-65620991D01*
X156673000Y-65620991D02*
X156636714Y-65766134D01*
X156636714Y-65766134D02*
X156600428Y-65838705D01*
X156600428Y-65838705D02*
X156527857Y-65911277D01*
X156527857Y-65911277D02*
X156419000Y-65947562D01*
X156419000Y-65947562D02*
X156237571Y-65947562D01*
X157398714Y-65947562D02*
X156963285Y-65947562D01*
X157181000Y-65947562D02*
X157181000Y-65185562D01*
X157181000Y-65185562D02*
X157108428Y-65294419D01*
X157108428Y-65294419D02*
X157035857Y-65366991D01*
X157035857Y-65366991D02*
X156963285Y-65403277D01*
X144285562Y-62078999D02*
X144829848Y-62078999D01*
X144829848Y-62078999D02*
X144938705Y-62115284D01*
X144938705Y-62115284D02*
X145011277Y-62187856D01*
X145011277Y-62187856D02*
X145047562Y-62296713D01*
X145047562Y-62296713D02*
X145047562Y-62369284D01*
X145047562Y-61316999D02*
X145047562Y-61752428D01*
X145047562Y-61534713D02*
X144285562Y-61534713D01*
X144285562Y-61534713D02*
X144394419Y-61607285D01*
X144394419Y-61607285D02*
X144466991Y-61679856D01*
X144466991Y-61679856D02*
X144503277Y-61752428D01*
X158047562Y-64326999D02*
X157684705Y-64580999D01*
X158047562Y-64762428D02*
X157285562Y-64762428D01*
X157285562Y-64762428D02*
X157285562Y-64472142D01*
X157285562Y-64472142D02*
X157321848Y-64399571D01*
X157321848Y-64399571D02*
X157358134Y-64363285D01*
X157358134Y-64363285D02*
X157430705Y-64326999D01*
X157430705Y-64326999D02*
X157539562Y-64326999D01*
X157539562Y-64326999D02*
X157612134Y-64363285D01*
X157612134Y-64363285D02*
X157648419Y-64399571D01*
X157648419Y-64399571D02*
X157684705Y-64472142D01*
X157684705Y-64472142D02*
X157684705Y-64762428D01*
X158047562Y-63601285D02*
X158047562Y-64036714D01*
X158047562Y-63818999D02*
X157285562Y-63818999D01*
X157285562Y-63818999D02*
X157394419Y-63891571D01*
X157394419Y-63891571D02*
X157466991Y-63964142D01*
X157466991Y-63964142D02*
X157503277Y-64036714D01*
X133783549Y-63980115D02*
X133897967Y-63971460D01*
X133897967Y-63971460D02*
X134065268Y-63901267D01*
X134065268Y-63901267D02*
X134118149Y-63839730D01*
X134118149Y-63839730D02*
X134137571Y-63792232D01*
X134137571Y-63792232D02*
X134142954Y-63711273D01*
X134142954Y-63711273D02*
X134114877Y-63644353D01*
X134114877Y-63644353D02*
X134053340Y-63591471D01*
X134053340Y-63591471D02*
X134005841Y-63572050D01*
X134005841Y-63572050D02*
X133924883Y-63566667D01*
X133924883Y-63566667D02*
X133777004Y-63589361D01*
X133777004Y-63589361D02*
X133696045Y-63583978D01*
X133696045Y-63583978D02*
X133648547Y-63564556D01*
X133648547Y-63564556D02*
X133587010Y-63511675D01*
X133587010Y-63511675D02*
X133558933Y-63444755D01*
X133558933Y-63444755D02*
X133564316Y-63363796D01*
X133564316Y-63363796D02*
X133583737Y-63316298D01*
X133583737Y-63316298D02*
X133636619Y-63254761D01*
X133636619Y-63254761D02*
X133803919Y-63184568D01*
X133803919Y-63184568D02*
X133918338Y-63175913D01*
X134138519Y-63044183D02*
X134600628Y-63676651D01*
X134600628Y-63676651D02*
X134523890Y-63118597D01*
X134523890Y-63118597D02*
X134868308Y-63564343D01*
X134868308Y-63564343D02*
X134740799Y-62791490D01*
X135003097Y-62760141D02*
X135022518Y-62712642D01*
X135022518Y-62712642D02*
X135075400Y-62651105D01*
X135075400Y-62651105D02*
X135242700Y-62580912D01*
X135242700Y-62580912D02*
X135323658Y-62586295D01*
X135323658Y-62586295D02*
X135371157Y-62605717D01*
X135371157Y-62605717D02*
X135432694Y-62658599D01*
X135432694Y-62658599D02*
X135460771Y-62725519D01*
X135460771Y-62725519D02*
X135469426Y-62839937D01*
X135469426Y-62839937D02*
X135236368Y-63409920D01*
X135236368Y-63409920D02*
X135671348Y-63227419D01*
X135130368Y-69017357D02*
X135366699Y-68642752D01*
X134961906Y-68615837D02*
X135664566Y-68321028D01*
X135664566Y-68321028D02*
X135776874Y-68588709D01*
X135776874Y-68588709D02*
X135771491Y-68669667D01*
X135771491Y-68669667D02*
X135752070Y-68717166D01*
X135752070Y-68717166D02*
X135699188Y-68778703D01*
X135699188Y-68778703D02*
X135598808Y-68820818D01*
X135598808Y-68820818D02*
X135517850Y-68815435D01*
X135517850Y-68815435D02*
X135470351Y-68796014D01*
X135470351Y-68796014D02*
X135408814Y-68743132D01*
X135408814Y-68743132D02*
X135296506Y-68475452D01*
X136099760Y-69358289D02*
X135959375Y-69023689D01*
X135959375Y-69023689D02*
X135610736Y-69130614D01*
X135610736Y-69130614D02*
X135658235Y-69150036D01*
X135658235Y-69150036D02*
X135719772Y-69202917D01*
X135719772Y-69202917D02*
X135789964Y-69370217D01*
X135789964Y-69370217D02*
X135784581Y-69451176D01*
X135784581Y-69451176D02*
X135765160Y-69498674D01*
X135765160Y-69498674D02*
X135712278Y-69560211D01*
X135712278Y-69560211D02*
X135544978Y-69630404D01*
X135544978Y-69630404D02*
X135464020Y-69625021D01*
X135464020Y-69625021D02*
X135416521Y-69605599D01*
X135416521Y-69605599D02*
X135354984Y-69552718D01*
X135354984Y-69552718D02*
X135284791Y-69385418D01*
X135284791Y-69385418D02*
X135290175Y-69304459D01*
X135290175Y-69304459D02*
X135309596Y-69256961D01*
X138217357Y-63169631D02*
X137842752Y-62933300D01*
X137815837Y-63338093D02*
X137521028Y-62635433D01*
X137521028Y-62635433D02*
X137788709Y-62523125D01*
X137788709Y-62523125D02*
X137869667Y-62528508D01*
X137869667Y-62528508D02*
X137917166Y-62547929D01*
X137917166Y-62547929D02*
X137978703Y-62600811D01*
X137978703Y-62600811D02*
X138020818Y-62701191D01*
X138020818Y-62701191D02*
X138015435Y-62782149D01*
X138015435Y-62782149D02*
X137996014Y-62829648D01*
X137996014Y-62829648D02*
X137943132Y-62891185D01*
X137943132Y-62891185D02*
X137675452Y-63003493D01*
X138156769Y-62368701D02*
X138591749Y-62186200D01*
X138591749Y-62186200D02*
X138469837Y-62552150D01*
X138469837Y-62552150D02*
X138570217Y-62510035D01*
X138570217Y-62510035D02*
X138651176Y-62515418D01*
X138651176Y-62515418D02*
X138698674Y-62534839D01*
X138698674Y-62534839D02*
X138760211Y-62587721D01*
X138760211Y-62587721D02*
X138830404Y-62755021D01*
X138830404Y-62755021D02*
X138825021Y-62835979D01*
X138825021Y-62835979D02*
X138805599Y-62883478D01*
X138805599Y-62883478D02*
X138752718Y-62945015D01*
X138752718Y-62945015D02*
X138551958Y-63029246D01*
X138551958Y-63029246D02*
X138470999Y-63023863D01*
X138470999Y-63023863D02*
X138423501Y-63004441D01*
X161548422Y-63071362D02*
X161454587Y-62638492D01*
X161146901Y-62902900D02*
X161441710Y-62200239D01*
X161441710Y-62200239D02*
X161709390Y-62312547D01*
X161709390Y-62312547D02*
X161762272Y-62374084D01*
X161762272Y-62374084D02*
X161781693Y-62421583D01*
X161781693Y-62421583D02*
X161787076Y-62502541D01*
X161787076Y-62502541D02*
X161744961Y-62602921D01*
X161744961Y-62602921D02*
X161683424Y-62655803D01*
X161683424Y-62655803D02*
X161635925Y-62675224D01*
X161635925Y-62675224D02*
X161554967Y-62680607D01*
X161554967Y-62680607D02*
X161287286Y-62568299D01*
X162347241Y-62855614D02*
X162150702Y-63324055D01*
X162292249Y-62517742D02*
X161914371Y-62949450D01*
X161914371Y-62949450D02*
X162349352Y-63131950D01*
X156547562Y-64326999D02*
X156184705Y-64580999D01*
X156547562Y-64762428D02*
X155785562Y-64762428D01*
X155785562Y-64762428D02*
X155785562Y-64472142D01*
X155785562Y-64472142D02*
X155821848Y-64399571D01*
X155821848Y-64399571D02*
X155858134Y-64363285D01*
X155858134Y-64363285D02*
X155930705Y-64326999D01*
X155930705Y-64326999D02*
X156039562Y-64326999D01*
X156039562Y-64326999D02*
X156112134Y-64363285D01*
X156112134Y-64363285D02*
X156148419Y-64399571D01*
X156148419Y-64399571D02*
X156184705Y-64472142D01*
X156184705Y-64472142D02*
X156184705Y-64762428D01*
X155858134Y-64036714D02*
X155821848Y-64000428D01*
X155821848Y-64000428D02*
X155785562Y-63927857D01*
X155785562Y-63927857D02*
X155785562Y-63746428D01*
X155785562Y-63746428D02*
X155821848Y-63673857D01*
X155821848Y-63673857D02*
X155858134Y-63637571D01*
X155858134Y-63637571D02*
X155930705Y-63601285D01*
X155930705Y-63601285D02*
X156003277Y-63601285D01*
X156003277Y-63601285D02*
X156112134Y-63637571D01*
X156112134Y-63637571D02*
X156547562Y-64072999D01*
X156547562Y-64072999D02*
X156547562Y-63601285D01*
X140673000Y-68074991D02*
X140636714Y-68111277D01*
X140636714Y-68111277D02*
X140527857Y-68147562D01*
X140527857Y-68147562D02*
X140455285Y-68147562D01*
X140455285Y-68147562D02*
X140346428Y-68111277D01*
X140346428Y-68111277D02*
X140273857Y-68038705D01*
X140273857Y-68038705D02*
X140237571Y-67966134D01*
X140237571Y-67966134D02*
X140201285Y-67820991D01*
X140201285Y-67820991D02*
X140201285Y-67712134D01*
X140201285Y-67712134D02*
X140237571Y-67566991D01*
X140237571Y-67566991D02*
X140273857Y-67494419D01*
X140273857Y-67494419D02*
X140346428Y-67421848D01*
X140346428Y-67421848D02*
X140455285Y-67385562D01*
X140455285Y-67385562D02*
X140527857Y-67385562D01*
X140527857Y-67385562D02*
X140636714Y-67421848D01*
X140636714Y-67421848D02*
X140673000Y-67458134D01*
X140963285Y-67458134D02*
X140999571Y-67421848D01*
X140999571Y-67421848D02*
X141072143Y-67385562D01*
X141072143Y-67385562D02*
X141253571Y-67385562D01*
X141253571Y-67385562D02*
X141326143Y-67421848D01*
X141326143Y-67421848D02*
X141362428Y-67458134D01*
X141362428Y-67458134D02*
X141398714Y-67530705D01*
X141398714Y-67530705D02*
X141398714Y-67603277D01*
X141398714Y-67603277D02*
X141362428Y-67712134D01*
X141362428Y-67712134D02*
X140927000Y-68147562D01*
X140927000Y-68147562D02*
X141398714Y-68147562D01*
X159474991Y-64326999D02*
X159511277Y-64363285D01*
X159511277Y-64363285D02*
X159547562Y-64472142D01*
X159547562Y-64472142D02*
X159547562Y-64544714D01*
X159547562Y-64544714D02*
X159511277Y-64653571D01*
X159511277Y-64653571D02*
X159438705Y-64726142D01*
X159438705Y-64726142D02*
X159366134Y-64762428D01*
X159366134Y-64762428D02*
X159220991Y-64798714D01*
X159220991Y-64798714D02*
X159112134Y-64798714D01*
X159112134Y-64798714D02*
X158966991Y-64762428D01*
X158966991Y-64762428D02*
X158894419Y-64726142D01*
X158894419Y-64726142D02*
X158821848Y-64653571D01*
X158821848Y-64653571D02*
X158785562Y-64544714D01*
X158785562Y-64544714D02*
X158785562Y-64472142D01*
X158785562Y-64472142D02*
X158821848Y-64363285D01*
X158821848Y-64363285D02*
X158858134Y-64326999D01*
X159547562Y-63601285D02*
X159547562Y-64036714D01*
X159547562Y-63818999D02*
X158785562Y-63818999D01*
X158785562Y-63818999D02*
X158894419Y-63891571D01*
X158894419Y-63891571D02*
X158966991Y-63964142D01*
X158966991Y-63964142D02*
X159003277Y-64036714D01*
D11*
%TO.C,SW1*%
X165281096Y-68101565D02*
X162053652Y-66747458D01*
X165281096Y-68101565D02*
X165296571Y-68064681D01*
X166034272Y-68374192D02*
X165296571Y-68064681D01*
%TO.C,U1*%
X140665000Y-61865000D02*
X141115000Y-61865000D01*
X140665000Y-62315000D02*
X140665000Y-61865000D01*
X140665000Y-65085000D02*
X140665000Y-64635000D01*
X141115000Y-65085000D02*
X140665000Y-65085000D01*
X143435000Y-61865000D02*
X143885000Y-61865000D01*
X143885000Y-61865000D02*
X143885000Y-62315000D01*
X143885000Y-64635000D02*
X143885000Y-65085000D01*
X143885000Y-65085000D02*
X143435000Y-65085000D01*
X140155000Y-62675000D02*
X139825000Y-62915000D01*
X139825000Y-62435000D01*
X140155000Y-62675000D01*
G36*
X140155000Y-62675000D02*
G01*
X139825000Y-62915000D01*
X139825000Y-62435000D01*
X140155000Y-62675000D01*
G37*
%TO.C,D1*%
X158810000Y-66150000D02*
X155550000Y-66150000D01*
X158810000Y-67850000D02*
X155550000Y-67850000D01*
X158810000Y-67850000D02*
X158810000Y-66150000D01*
%TO.C,J1*%
X145330000Y-61450000D02*
X145330000Y-63150000D01*
X154670000Y-61450000D02*
X154670000Y-63150000D01*
%TO.C,R1*%
X157177500Y-62437258D02*
X157177500Y-61962742D01*
X158222500Y-62437258D02*
X158222500Y-61962742D01*
%TO.C,SW2*%
X137946348Y-66747458D02*
X134718905Y-68101566D01*
X137946348Y-66747458D02*
X137930873Y-66710573D01*
X138668574Y-66401063D02*
X137930873Y-66710573D01*
%TO.C,R5*%
X137116633Y-67726397D02*
X136679069Y-67909981D01*
X137520931Y-68690019D02*
X137083367Y-68873603D01*
%TO.C,R3*%
X138509981Y-64820931D02*
X138326397Y-64383367D01*
X139473603Y-64416633D02*
X139290019Y-63979069D01*
%TO.C,R4*%
X160526397Y-64416633D02*
X160709981Y-63979069D01*
X161490019Y-64820931D02*
X161673603Y-64383367D01*
%TO.C,R2*%
X155677500Y-62437258D02*
X155677500Y-61962742D01*
X156722500Y-62437258D02*
X156722500Y-61962742D01*
%TO.C,J3*%
X146080000Y-65620000D02*
X146080000Y-68380000D01*
X151270000Y-65620000D02*
X146080000Y-65620000D01*
X151270000Y-65620000D02*
X151270000Y-68380000D01*
X151270000Y-68380000D02*
X146080000Y-68380000D01*
X152540000Y-65620000D02*
X153920000Y-65620000D01*
X153920000Y-65620000D02*
X153920000Y-67000000D01*
%TO.C,C2*%
X140940580Y-66190000D02*
X140659420Y-66190000D01*
X140940580Y-67210000D02*
X140659420Y-67210000D01*
%TO.C,C1*%
X158690000Y-62340580D02*
X158690000Y-62059420D01*
X159710000Y-62340580D02*
X159710000Y-62059420D01*
%TD*%
D12*
X136047870Y-74500002D02*
X163952131Y-74500000D01*
X163952130Y-74500000D02*
X168518935Y-63615255D01*
X131481065Y-63615255D02*
G75*
G02*
X168518935Y-63615255I18518935J-36384742D01*
G01*
X131481065Y-63615255D02*
X136047870Y-74500000D01*
M02*
