%TF.GenerationSoftware,KiCad,Pcbnew,9.0.5*%
%TF.CreationDate,2025-12-07T22:15:23-05:00*%
%TF.ProjectId,Control_PCB,436f6e74-726f-46c5-9f50-43422e6b6963,rev?*%
%TF.SameCoordinates,Original*%
%TF.FileFunction,Copper,L1,Top*%
%TF.FilePolarity,Positive*%
%FSLAX46Y46*%
G04 Gerber Fmt 4.6, Leading zero omitted, Abs format (unit mm)*
G04 Created by KiCad (PCBNEW 9.0.5) date 2025-12-07 22:15:23*
%MOMM*%
%LPD*%
G01*
G04 APERTURE LIST*
G04 Aperture macros list*
%AMRoundRect*
0 Rectangle with rounded corners*
0 $1 Rounding radius*
0 $2 $3 $4 $5 $6 $7 $8 $9 X,Y pos of 4 corners*
0 Add a 4 corners polygon primitive as box body*
4,1,4,$2,$3,$4,$5,$6,$7,$8,$9,$2,$3,0*
0 Add four circle primitives for the rounded corners*
1,1,$1+$1,$2,$3*
1,1,$1+$1,$4,$5*
1,1,$1+$1,$6,$7*
1,1,$1+$1,$8,$9*
0 Add four rect primitives between the rounded corners*
20,1,$1+$1,$2,$3,$4,$5,0*
20,1,$1+$1,$4,$5,$6,$7,0*
20,1,$1+$1,$6,$7,$8,$9,0*
20,1,$1+$1,$8,$9,$2,$3,0*%
%AMFreePoly0*
4,1,14,0.334644,0.085355,0.385355,0.034644,0.400000,-0.000711,0.400000,-0.050000,0.385355,-0.085355,0.350000,-0.100000,-0.350000,-0.100000,-0.385355,-0.085355,-0.400000,-0.050000,-0.400000,0.050000,-0.385355,0.085355,-0.350000,0.100000,0.299289,0.100000,0.334644,0.085355,0.334644,0.085355,$1*%
%AMFreePoly1*
4,1,14,0.385355,0.085355,0.400000,0.050000,0.400000,0.000711,0.385355,-0.034644,0.334644,-0.085355,0.299289,-0.100000,-0.350000,-0.100000,-0.385355,-0.085355,-0.400000,-0.050000,-0.400000,0.050000,-0.385355,0.085355,-0.350000,0.100000,0.350000,0.100000,0.385355,0.085355,0.385355,0.085355,$1*%
%AMFreePoly2*
4,1,14,0.085355,0.385355,0.100000,0.350000,0.100000,-0.350000,0.085355,-0.385355,0.050000,-0.400000,-0.050000,-0.400000,-0.085355,-0.385355,-0.100000,-0.350000,-0.100000,0.299289,-0.085355,0.334644,-0.034644,0.385355,0.000711,0.400000,0.050000,0.400000,0.085355,0.385355,0.085355,0.385355,$1*%
%AMFreePoly3*
4,1,14,0.034644,0.385355,0.085355,0.334644,0.100000,0.299289,0.100000,-0.350000,0.085355,-0.385355,0.050000,-0.400000,-0.050000,-0.400000,-0.085355,-0.385355,-0.100000,-0.350000,-0.100000,0.350000,-0.085355,0.385355,-0.050000,0.400000,-0.000711,0.400000,0.034644,0.385355,0.034644,0.385355,$1*%
%AMFreePoly4*
4,1,14,0.385355,0.085355,0.400000,0.050000,0.400000,-0.050000,0.385355,-0.085355,0.350000,-0.100000,-0.299289,-0.100000,-0.334644,-0.085355,-0.385355,-0.034644,-0.400000,0.000711,-0.400000,0.050000,-0.385355,0.085355,-0.350000,0.100000,0.350000,0.100000,0.385355,0.085355,0.385355,0.085355,$1*%
%AMFreePoly5*
4,1,14,0.385355,0.085355,0.400000,0.050000,0.400000,-0.050000,0.385355,-0.085355,0.350000,-0.100000,-0.350000,-0.100000,-0.385355,-0.085355,-0.400000,-0.050000,-0.400000,-0.000711,-0.385355,0.034644,-0.334644,0.085355,-0.299289,0.100000,0.350000,0.100000,0.385355,0.085355,0.385355,0.085355,$1*%
%AMFreePoly6*
4,1,14,0.085355,0.385355,0.100000,0.350000,0.100000,-0.299289,0.085355,-0.334644,0.034644,-0.385355,-0.000711,-0.400000,-0.050000,-0.400000,-0.085355,-0.385355,-0.100000,-0.350000,-0.100000,0.350000,-0.085355,0.385355,-0.050000,0.400000,0.050000,0.400000,0.085355,0.385355,0.085355,0.385355,$1*%
%AMFreePoly7*
4,1,14,0.085355,0.385355,0.100000,0.350000,0.100000,-0.350000,0.085355,-0.385355,0.050000,-0.400000,0.000711,-0.400000,-0.034644,-0.385355,-0.085355,-0.334644,-0.100000,-0.299289,-0.100000,0.350000,-0.085355,0.385355,-0.050000,0.400000,0.050000,0.400000,0.085355,0.385355,0.085355,0.385355,$1*%
G04 Aperture macros list end*
%TA.AperFunction,SMDPad,CuDef*%
%ADD10RoundRect,0.250000X0.521351X0.079485X-0.308563X0.427684X-0.521351X-0.079485X0.308563X-0.427684X0*%
%TD*%
%TA.AperFunction,SMDPad,CuDef*%
%ADD11FreePoly0,0.000000*%
%TD*%
%TA.AperFunction,SMDPad,CuDef*%
%ADD12RoundRect,0.050000X-0.350000X-0.050000X0.350000X-0.050000X0.350000X0.050000X-0.350000X0.050000X0*%
%TD*%
%TA.AperFunction,SMDPad,CuDef*%
%ADD13FreePoly1,0.000000*%
%TD*%
%TA.AperFunction,SMDPad,CuDef*%
%ADD14FreePoly2,0.000000*%
%TD*%
%TA.AperFunction,SMDPad,CuDef*%
%ADD15RoundRect,0.050000X-0.050000X-0.350000X0.050000X-0.350000X0.050000X0.350000X-0.050000X0.350000X0*%
%TD*%
%TA.AperFunction,SMDPad,CuDef*%
%ADD16FreePoly3,0.000000*%
%TD*%
%TA.AperFunction,SMDPad,CuDef*%
%ADD17FreePoly4,0.000000*%
%TD*%
%TA.AperFunction,SMDPad,CuDef*%
%ADD18FreePoly5,0.000000*%
%TD*%
%TA.AperFunction,SMDPad,CuDef*%
%ADD19FreePoly6,0.000000*%
%TD*%
%TA.AperFunction,SMDPad,CuDef*%
%ADD20FreePoly7,0.000000*%
%TD*%
%TA.AperFunction,HeatsinkPad*%
%ADD21R,1.700000X1.700000*%
%TD*%
%TA.AperFunction,SMDPad,CuDef*%
%ADD22RoundRect,0.250000X0.250000X0.250000X-0.250000X0.250000X-0.250000X-0.250000X0.250000X-0.250000X0*%
%TD*%
%TA.AperFunction,SMDPad,CuDef*%
%ADD23RoundRect,0.175000X0.175000X0.425000X-0.175000X0.425000X-0.175000X-0.425000X0.175000X-0.425000X0*%
%TD*%
%TA.AperFunction,SMDPad,CuDef*%
%ADD24RoundRect,0.190000X-0.190000X-0.410000X0.190000X-0.410000X0.190000X0.410000X-0.190000X0.410000X0*%
%TD*%
%TA.AperFunction,SMDPad,CuDef*%
%ADD25RoundRect,0.200000X-0.200000X-0.400000X0.200000X-0.400000X0.200000X0.400000X-0.200000X0.400000X0*%
%TD*%
%TA.AperFunction,SMDPad,CuDef*%
%ADD26RoundRect,0.175000X-0.175000X-0.425000X0.175000X-0.425000X0.175000X0.425000X-0.175000X0.425000X0*%
%TD*%
%TA.AperFunction,SMDPad,CuDef*%
%ADD27RoundRect,0.190000X0.190000X0.410000X-0.190000X0.410000X-0.190000X-0.410000X0.190000X-0.410000X0*%
%TD*%
%TA.AperFunction,SMDPad,CuDef*%
%ADD28RoundRect,0.200000X0.200000X0.400000X-0.200000X0.400000X-0.200000X-0.400000X0.200000X-0.400000X0*%
%TD*%
%TA.AperFunction,HeatsinkPad*%
%ADD29O,1.100000X1.700000*%
%TD*%
%TA.AperFunction,SMDPad,CuDef*%
%ADD30RoundRect,0.200000X0.275000X-0.200000X0.275000X0.200000X-0.275000X0.200000X-0.275000X-0.200000X0*%
%TD*%
%TA.AperFunction,SMDPad,CuDef*%
%ADD31RoundRect,0.250000X0.308563X0.427684X-0.521351X0.079485X-0.308563X-0.427684X0.521351X-0.079485X0*%
%TD*%
%TA.AperFunction,SMDPad,CuDef*%
%ADD32RoundRect,0.200000X0.078031X0.330962X-0.290820X0.176207X-0.078031X-0.330962X0.290820X-0.176207X0*%
%TD*%
%TA.AperFunction,SMDPad,CuDef*%
%ADD33RoundRect,0.200000X0.330962X-0.078031X0.176207X0.290820X-0.330962X0.078031X-0.176207X-0.290820X0*%
%TD*%
%TA.AperFunction,SMDPad,CuDef*%
%ADD34RoundRect,0.200000X0.176207X-0.290820X0.330962X0.078031X-0.176207X0.290820X-0.330962X-0.078031X0*%
%TD*%
%TA.AperFunction,ComponentPad*%
%ADD35R,1.700000X1.700000*%
%TD*%
%TA.AperFunction,ComponentPad*%
%ADD36C,1.700000*%
%TD*%
%TA.AperFunction,SMDPad,CuDef*%
%ADD37RoundRect,0.225000X0.225000X0.250000X-0.225000X0.250000X-0.225000X-0.250000X0.225000X-0.250000X0*%
%TD*%
%TA.AperFunction,SMDPad,CuDef*%
%ADD38RoundRect,0.225000X0.250000X-0.225000X0.250000X0.225000X-0.250000X0.225000X-0.250000X-0.225000X0*%
%TD*%
%TA.AperFunction,ViaPad*%
%ADD39C,0.600000*%
%TD*%
%TA.AperFunction,Conductor*%
%ADD40C,0.180000*%
%TD*%
%TA.AperFunction,Conductor*%
%ADD41C,0.400000*%
%TD*%
%TA.AperFunction,Conductor*%
%ADD42C,0.300000*%
%TD*%
%TA.AperFunction,Conductor*%
%ADD43C,0.200000*%
%TD*%
%TA.AperFunction,Conductor*%
%ADD44C,0.304800*%
%TD*%
%TA.AperFunction,Profile*%
%ADD45C,0.100000*%
%TD*%
G04 APERTURE END LIST*
D10*
%TO.P,SW1,1,1*%
%TO.N,GND*%
X165648319Y-67355545D03*
X162328663Y-65962749D03*
%TO.P,SW1,2,2*%
%TO.N,/brightness*%
X166205437Y-66027683D03*
X162885781Y-64634887D03*
%TD*%
D11*
%TO.P,U1,1,PA2*%
%TO.N,/mode*%
X140825000Y-62675000D03*
D12*
%TO.P,U1,2,PA3*%
%TO.N,unconnected-(U1-PA3-Pad2)*%
X140825000Y-63075000D03*
%TO.P,U1,3,GND*%
%TO.N,GND*%
X140825000Y-63475000D03*
%TO.P,U1,4,VCC*%
%TO.N,VBUS*%
X140825000Y-63875000D03*
D13*
%TO.P,U1,5,PA4*%
%TO.N,unconnected-(U1-PA4-Pad5)*%
X140825000Y-64275000D03*
D14*
%TO.P,U1,6,PA5*%
%TO.N,unconnected-(U1-PA5-Pad6)*%
X141475000Y-64925000D03*
D15*
%TO.P,U1,7,PA6*%
%TO.N,unconnected-(U1-PA6-Pad7)*%
X141875000Y-64925000D03*
%TO.P,U1,8,PA7*%
%TO.N,unconnected-(U1-PA7-Pad8)*%
X142275000Y-64925000D03*
%TO.P,U1,9,PB5*%
%TO.N,/CLK*%
X142675000Y-64925000D03*
D16*
%TO.P,U1,10,PB4*%
%TO.N,/DATA*%
X143075000Y-64925000D03*
D17*
%TO.P,U1,11,PB3*%
%TO.N,unconnected-(U1-PB3-Pad11)*%
X143725000Y-64275000D03*
D12*
%TO.P,U1,12,PB2*%
%TO.N,unconnected-(U1-PB2-Pad12)*%
X143725000Y-63875000D03*
%TO.P,U1,13,PB1*%
%TO.N,unconnected-(U1-PB1-Pad13)*%
X143725000Y-63475000D03*
%TO.P,U1,14,PB0*%
%TO.N,/brightness*%
X143725000Y-63075000D03*
D18*
%TO.P,U1,15,PC0*%
%TO.N,Net-(U1-PC0)*%
X143725000Y-62675000D03*
D19*
%TO.P,U1,16,PC1*%
%TO.N,unconnected-(U1-PC1-Pad16)*%
X143075000Y-62025000D03*
D15*
%TO.P,U1,17,PC2*%
%TO.N,unconnected-(U1-PC2-Pad17)*%
X142675000Y-62025000D03*
%TO.P,U1,18,PC3*%
%TO.N,unconnected-(U1-PC3-Pad18)*%
X142275000Y-62025000D03*
%TO.P,U1,19,~{RESET}/PA0*%
%TO.N,Net-(U1-~{RESET}{slash}PA0)*%
X141875000Y-62025000D03*
D20*
%TO.P,U1,20,PA1*%
%TO.N,unconnected-(U1-PA1-Pad20)*%
X141475000Y-62025000D03*
D21*
%TO.P,U1,21,GND*%
%TO.N,GND*%
X142275000Y-63475000D03*
%TD*%
D22*
%TO.P,D1,1,K*%
%TO.N,VBUS*%
X158050000Y-67000000D03*
%TO.P,D1,2,A*%
%TO.N,Net-(D1-A)*%
X155550000Y-67000000D03*
%TD*%
D23*
%TO.P,J1,A5,CC1*%
%TO.N,Net-(J1-CC1)*%
X150500000Y-64280000D03*
D24*
%TO.P,J1,A9,VBUS*%
%TO.N,VBUS*%
X148480000Y-64280000D03*
D25*
%TO.P,J1,A12,GND*%
%TO.N,GND*%
X147250000Y-64280000D03*
D26*
%TO.P,J1,B5,CC2*%
%TO.N,Net-(J1-CC2)*%
X149500000Y-64280000D03*
D27*
%TO.P,J1,B9,VBUS*%
%TO.N,VBUS*%
X151520000Y-64280000D03*
D28*
%TO.P,J1,B12,GND*%
%TO.N,GND*%
X152750000Y-64280000D03*
D29*
%TO.P,J1,S1,SHIELD*%
X154320000Y-64200000D03*
X154320000Y-60400000D03*
X145680000Y-64200000D03*
X145680000Y-60400000D03*
%TD*%
D30*
%TO.P,R1,1*%
%TO.N,Net-(J1-CC1)*%
X157700000Y-63025000D03*
%TO.P,R1,2*%
%TO.N,GND*%
X157700000Y-61375000D03*
%TD*%
D31*
%TO.P,SW2,1,1*%
%TO.N,GND*%
X137671337Y-65962749D03*
X134351681Y-67355546D03*
%TO.P,SW2,2,2*%
%TO.N,/mode*%
X137114219Y-64634886D03*
X133794563Y-66027683D03*
%TD*%
D32*
%TO.P,R5,1*%
%TO.N,Net-(U1-~{RESET}{slash}PA0)*%
X137860755Y-67980817D03*
%TO.P,R5,2*%
%TO.N,/UPDI*%
X136339245Y-68619183D03*
%TD*%
D33*
%TO.P,R3,1*%
%TO.N,VBUS*%
X139219183Y-65160755D03*
%TO.P,R3,2*%
%TO.N,/mode*%
X138580817Y-63639245D03*
%TD*%
D34*
%TO.P,R4,1*%
%TO.N,VBUS*%
X160780817Y-65160755D03*
%TO.P,R4,2*%
%TO.N,/brightness*%
X161419183Y-63639245D03*
%TD*%
D30*
%TO.P,R2,1*%
%TO.N,Net-(J1-CC2)*%
X156200000Y-63025000D03*
%TO.P,R2,2*%
%TO.N,GND*%
X156200000Y-61375000D03*
%TD*%
D35*
%TO.P,J3,1,Pin_1*%
%TO.N,Net-(D1-A)*%
X152540000Y-67000000D03*
D36*
%TO.P,J3,2,Pin_2*%
%TO.N,/UPDI*%
X150000000Y-67000000D03*
%TO.P,J3,3,Pin_3*%
%TO.N,GND*%
X147460000Y-67000000D03*
%TD*%
D37*
%TO.P,C2,1*%
%TO.N,VBUS*%
X141575000Y-66700000D03*
%TO.P,C2,2*%
%TO.N,GND*%
X140025000Y-66700000D03*
%TD*%
D38*
%TO.P,C1,1*%
%TO.N,VBUS*%
X159200000Y-62975000D03*
%TO.P,C1,2*%
%TO.N,GND*%
X159200000Y-61425000D03*
%TD*%
D35*
%TO.P,J2,1,Pin_1*%
%TO.N,GND*%
X148725000Y-70225000D03*
D36*
%TO.P,J2,2,Pin_2*%
%TO.N,/CLK*%
X148725000Y-72765000D03*
%TO.P,J2,3,Pin_3*%
%TO.N,/DATA*%
X151265000Y-70225000D03*
%TO.P,J2,4,Pin_4*%
%TO.N,VBUS*%
X151265000Y-72765000D03*
%TD*%
D39*
%TO.N,GND*%
X160400000Y-61400000D03*
X140025000Y-66700000D03*
X165600000Y-68600000D03*
X156200000Y-60400000D03*
X147100000Y-73600000D03*
X134600000Y-68600000D03*
X163700000Y-65800000D03*
X159200000Y-65500000D03*
X136900000Y-62500000D03*
X163500000Y-73600000D03*
X142275000Y-63475000D03*
X136200000Y-65800000D03*
X136800000Y-73600000D03*
X146300000Y-66200000D03*
X139600000Y-67900000D03*
X154300000Y-67800000D03*
X139821176Y-63446960D03*
X156000000Y-73600000D03*
%TO.N,VBUS*%
X148700000Y-65700000D03*
X151900000Y-68700000D03*
%TO.N,Net-(J1-CC2)*%
X155067000Y-62992000D03*
X150010000Y-63096000D03*
%TO.N,/DATA*%
X144200000Y-68900000D03*
X143500000Y-65900000D03*
%TO.N,/CLK*%
X144200000Y-71300000D03*
X142700000Y-65900000D03*
%TO.N,Net-(U1-~{RESET}{slash}PA0)*%
X138700000Y-67300000D03*
X139000000Y-61700000D03*
%TO.N,Net-(U1-PC0)*%
X143300000Y-61000000D03*
%TD*%
D40*
%TO.N,GND*%
X139825000Y-63475000D02*
X140825000Y-63475000D01*
X139821176Y-63471176D02*
X139825000Y-63475000D01*
X139821176Y-63446960D02*
X139821176Y-63471176D01*
X140825000Y-63475000D02*
X142275000Y-63475000D01*
D41*
%TO.N,VBUS*%
X148114000Y-65500000D02*
X148480000Y-65134000D01*
X149255000Y-62200000D02*
X148480000Y-62975000D01*
X151520000Y-64280000D02*
X151520000Y-62920000D01*
D42*
X158050000Y-67000000D02*
X158941572Y-67000000D01*
D41*
X150800000Y-62200000D02*
X149255000Y-62200000D01*
D42*
X140044801Y-64091000D02*
X139909000Y-64091000D01*
X159200000Y-62975000D02*
X159200000Y-63579938D01*
D41*
X144400000Y-66700000D02*
X145600000Y-65500000D01*
X141575000Y-66700000D02*
X144400000Y-66700000D01*
D40*
X139219183Y-64780817D02*
X139219183Y-65160755D01*
D41*
X156350000Y-68700000D02*
X151900000Y-68700000D01*
D42*
X159200000Y-63579938D02*
X160780817Y-65160755D01*
D41*
X148480000Y-65134000D02*
X148480000Y-65480000D01*
X139717428Y-65659000D02*
X139219183Y-65160755D01*
X148480000Y-62975000D02*
X148480000Y-64280000D01*
X148480000Y-65480000D02*
X148700000Y-65700000D01*
X148480000Y-65134000D02*
X148480000Y-64280000D01*
D42*
X139909000Y-64091000D02*
X139219183Y-64780817D01*
D41*
X140534000Y-65659000D02*
X139717428Y-65659000D01*
X151520000Y-62920000D02*
X150800000Y-62200000D01*
D40*
X140260801Y-63875000D02*
X140044801Y-64091000D01*
X140825000Y-63875000D02*
X140260801Y-63875000D01*
D41*
X158050000Y-67000000D02*
X156350000Y-68700000D01*
X141575000Y-66700000D02*
X140534000Y-65659000D01*
D42*
X158941572Y-67000000D02*
X160780817Y-65160755D01*
D41*
X145600000Y-65500000D02*
X148114000Y-65500000D01*
D43*
%TO.N,Net-(J1-CC1)*%
X150500000Y-64880000D02*
X150972600Y-65352600D01*
X157700000Y-63915000D02*
X157700000Y-63025000D01*
X156262400Y-65352600D02*
X157700000Y-63915000D01*
X150972600Y-65352600D02*
X156262400Y-65352600D01*
X150500000Y-64280000D02*
X150500000Y-64880000D01*
%TO.N,Net-(J1-CC2)*%
X149500000Y-63606000D02*
X149500000Y-64280000D01*
X155067000Y-62992000D02*
X156167000Y-62992000D01*
X150010000Y-63096000D02*
X149500000Y-63606000D01*
X156167000Y-62992000D02*
X156200000Y-63025000D01*
D44*
%TO.N,Net-(D1-A)*%
X152540000Y-67000000D02*
X155550000Y-67000000D01*
D40*
%TO.N,/UPDI*%
X143600000Y-68300000D02*
X143000000Y-68900000D01*
X148700000Y-68300000D02*
X143600000Y-68300000D01*
X150000000Y-67000000D02*
X148700000Y-68300000D01*
X137220062Y-68900000D02*
X136939245Y-68619183D01*
X143000000Y-68900000D02*
X137220062Y-68900000D01*
X136939245Y-68619183D02*
X136339245Y-68619183D01*
%TO.N,/mode*%
X137760755Y-63639245D02*
X138580817Y-63639245D01*
X138580817Y-62919183D02*
X138825000Y-62675000D01*
X135160755Y-63639245D02*
X138580817Y-63639245D01*
X137600000Y-64149105D02*
X137600000Y-63800000D01*
X133794563Y-66027683D02*
X133794563Y-65005437D01*
X138580817Y-63639245D02*
X138580817Y-62919183D01*
X137114219Y-64634886D02*
X137600000Y-64149105D01*
X133794563Y-65005437D02*
X135160755Y-63639245D01*
X137600000Y-63800000D02*
X137760755Y-63639245D01*
X138825000Y-62675000D02*
X140825000Y-62675000D01*
%TO.N,/brightness*%
X166205438Y-65705438D02*
X164900000Y-64400000D01*
X151800000Y-61700000D02*
X148500000Y-61700000D01*
X161419183Y-63639245D02*
X159945938Y-62166000D01*
X144820323Y-63075000D02*
X143725000Y-63075000D01*
X152266000Y-62166000D02*
X151800000Y-61700000D01*
X161890139Y-63639245D02*
X161419183Y-63639245D01*
X162885781Y-64634887D02*
X161890139Y-63639245D01*
X163120668Y-64400000D02*
X162885781Y-64634887D01*
X147800000Y-62400000D02*
X145495323Y-62400000D01*
X159945938Y-62166000D02*
X152266000Y-62166000D01*
X148500000Y-61700000D02*
X147800000Y-62400000D01*
X164900000Y-64400000D02*
X163120668Y-64400000D01*
X166205438Y-66027683D02*
X166205438Y-65705438D01*
X145495323Y-62400000D02*
X144820323Y-63075000D01*
%TO.N,/DATA*%
X151265000Y-69265000D02*
X151265000Y-70225000D01*
X150900000Y-68900000D02*
X151265000Y-69265000D01*
X143075000Y-64925000D02*
X143500000Y-65350000D01*
X144200000Y-68900000D02*
X150900000Y-68900000D01*
X143500000Y-65350000D02*
X143500000Y-65900000D01*
%TO.N,/CLK*%
X142675000Y-64925000D02*
X142675000Y-65875000D01*
X144865000Y-72765000D02*
X148725000Y-72765000D01*
X144200000Y-71300000D02*
X144200000Y-72100000D01*
X142675000Y-65875000D02*
X142700000Y-65900000D01*
X144200000Y-72100000D02*
X144865000Y-72765000D01*
%TO.N,Net-(U1-~{RESET}{slash}PA0)*%
X138700000Y-67300000D02*
X138541572Y-67300000D01*
X139000000Y-61700000D02*
X139500000Y-61200000D01*
X141750000Y-61200000D02*
X141875000Y-61325000D01*
X141875000Y-61325000D02*
X141875000Y-62025000D01*
X138541572Y-67300000D02*
X137860755Y-67980817D01*
X139500000Y-61200000D02*
X141750000Y-61200000D01*
%TO.N,Net-(U1-PC0)*%
X143800000Y-62600000D02*
X143800000Y-61500000D01*
X143725000Y-62675000D02*
X143800000Y-62600000D01*
X143800000Y-61500000D02*
X143300000Y-61000000D01*
%TD*%
%TA.AperFunction,Conductor*%
%TO.N,GND*%
G36*
X163954508Y-65052181D02*
G01*
X164001885Y-65103534D01*
X164014749Y-65158532D01*
X164014749Y-65244359D01*
X164055286Y-65395643D01*
X164055672Y-65397085D01*
X164055675Y-65397092D01*
X164134724Y-65534011D01*
X164134728Y-65534016D01*
X164134729Y-65534018D01*
X164246533Y-65645822D01*
X164246535Y-65645823D01*
X164246539Y-65645826D01*
X164365536Y-65714528D01*
X164383465Y-65724879D01*
X164536192Y-65765802D01*
X164536194Y-65765802D01*
X164694304Y-65765802D01*
X164694306Y-65765802D01*
X164847033Y-65724879D01*
X164983965Y-65645822D01*
X165040042Y-65589744D01*
X165101361Y-65556262D01*
X165171053Y-65561246D01*
X165226987Y-65603117D01*
X165251404Y-65668581D01*
X165242064Y-65725402D01*
X165155209Y-65932417D01*
X165155206Y-65932425D01*
X165132548Y-66011899D01*
X165130566Y-66018852D01*
X165128716Y-66104405D01*
X165127265Y-66171469D01*
X165165259Y-66319307D01*
X165166322Y-66321906D01*
X165166585Y-66324466D01*
X165167371Y-66327523D01*
X165166912Y-66327640D01*
X165173473Y-66391409D01*
X165141912Y-66453744D01*
X165114333Y-66475763D01*
X165022068Y-66529940D01*
X164922829Y-66635559D01*
X164922829Y-66635560D01*
X164893654Y-66688416D01*
X164865332Y-66755921D01*
X165630697Y-67077038D01*
X165684900Y-67121127D01*
X165706663Y-67187521D01*
X165697067Y-67239356D01*
X165648319Y-67355544D01*
X165764506Y-67404292D01*
X165818709Y-67448381D01*
X165840472Y-67514775D01*
X165830876Y-67566610D01*
X165577464Y-68170601D01*
X165806343Y-68266630D01*
X165806351Y-68266633D01*
X165864189Y-68283904D01*
X165864189Y-68283905D01*
X166009006Y-68289736D01*
X166073425Y-68273607D01*
X166143238Y-68276419D01*
X166200448Y-68316529D01*
X166226892Y-68381201D01*
X166217887Y-68441868D01*
X163814812Y-74169474D01*
X163770723Y-74223677D01*
X163704329Y-74245440D01*
X163700468Y-74245500D01*
X136299531Y-74245500D01*
X136232492Y-74225815D01*
X136186737Y-74173011D01*
X136185187Y-74169474D01*
X135012333Y-71374038D01*
X138899500Y-71374038D01*
X138899500Y-71625962D01*
X138928979Y-71812085D01*
X138938910Y-71874785D01*
X139016760Y-72114383D01*
X139087175Y-72252579D01*
X139122301Y-72321518D01*
X139131132Y-72338848D01*
X139279201Y-72542649D01*
X139279205Y-72542654D01*
X139457345Y-72720794D01*
X139457350Y-72720798D01*
X139623984Y-72841864D01*
X139661155Y-72868870D01*
X139804184Y-72941747D01*
X139885616Y-72983239D01*
X139885618Y-72983239D01*
X139885621Y-72983241D01*
X140125215Y-73061090D01*
X140374038Y-73100500D01*
X140374039Y-73100500D01*
X140625961Y-73100500D01*
X140625962Y-73100500D01*
X140874785Y-73061090D01*
X141114379Y-72983241D01*
X141338845Y-72868870D01*
X141542656Y-72720793D01*
X141720793Y-72542656D01*
X141868870Y-72338845D01*
X141983241Y-72114379D01*
X142061090Y-71874785D01*
X142100500Y-71625962D01*
X142100500Y-71374038D01*
X142061090Y-71125215D01*
X141983241Y-70885621D01*
X141983239Y-70885618D01*
X141983239Y-70885616D01*
X141941747Y-70804184D01*
X141868870Y-70661155D01*
X141775039Y-70532007D01*
X141749259Y-70496523D01*
X141720798Y-70457350D01*
X141720794Y-70457345D01*
X141542654Y-70279205D01*
X141542649Y-70279201D01*
X141338848Y-70131132D01*
X141338847Y-70131131D01*
X141338845Y-70131130D01*
X141268747Y-70095413D01*
X141114383Y-70016760D01*
X140874785Y-69938910D01*
X140742721Y-69917993D01*
X140625962Y-69899500D01*
X140374038Y-69899500D01*
X140257279Y-69917993D01*
X140125214Y-69938910D01*
X139885616Y-70016760D01*
X139661151Y-70131132D01*
X139457350Y-70279201D01*
X139457345Y-70279205D01*
X139279205Y-70457345D01*
X139279201Y-70457350D01*
X139131132Y-70661151D01*
X139016760Y-70885616D01*
X138938910Y-71125214D01*
X138908967Y-71314264D01*
X138899500Y-71374038D01*
X135012333Y-71374038D01*
X133782110Y-68441866D01*
X133774326Y-68372433D01*
X133805316Y-68309812D01*
X133865242Y-68273887D01*
X133926574Y-68273607D01*
X133990994Y-68289737D01*
X134135811Y-68283905D01*
X134193642Y-68266638D01*
X134193654Y-68266633D01*
X134422534Y-68170603D01*
X134169123Y-67566611D01*
X134168114Y-67557613D01*
X134163460Y-67549850D01*
X134164282Y-67523441D01*
X134161338Y-67497177D01*
X134165209Y-67489355D01*
X134678934Y-67489355D01*
X134883598Y-67977158D01*
X135112488Y-67881125D01*
X135165332Y-67851958D01*
X135165339Y-67851953D01*
X135270951Y-67752720D01*
X135344339Y-67627739D01*
X135379539Y-67487155D01*
X135373707Y-67342339D01*
X135356438Y-67284502D01*
X135356436Y-67284497D01*
X135329406Y-67220075D01*
X135327718Y-67217150D01*
X134678934Y-67489355D01*
X134165209Y-67489355D01*
X134165354Y-67489061D01*
X134165636Y-67480014D01*
X134180605Y-67458242D01*
X134192328Y-67434555D01*
X134201140Y-67428376D01*
X134205222Y-67422441D01*
X134235493Y-67404293D01*
X134303827Y-67375623D01*
X134351680Y-67355545D01*
X134302932Y-67239357D01*
X134295147Y-67169923D01*
X134326137Y-67107301D01*
X134369302Y-67077039D01*
X135134666Y-66755922D01*
X135130534Y-66746073D01*
X135480649Y-66746073D01*
X135480649Y-66904187D01*
X135506323Y-67000001D01*
X135521572Y-67056913D01*
X135521575Y-67056920D01*
X135548102Y-67102867D01*
X135600626Y-67193842D01*
X135600628Y-67193845D01*
X135600629Y-67193846D01*
X135712433Y-67305650D01*
X135712435Y-67305651D01*
X135712439Y-67305654D01*
X135833631Y-67375623D01*
X135849365Y-67384707D01*
X136002092Y-67425630D01*
X136002094Y-67425630D01*
X136160204Y-67425630D01*
X136160206Y-67425630D01*
X136312933Y-67384707D01*
X136449865Y-67305650D01*
X136561669Y-67193846D01*
X136640726Y-67056914D01*
X136681649Y-66904187D01*
X136681649Y-66746073D01*
X136640726Y-66593346D01*
X136622667Y-66562066D01*
X136889077Y-66562066D01*
X136890606Y-66567750D01*
X136916669Y-66629868D01*
X136916678Y-66629886D01*
X136945846Y-66682732D01*
X136945846Y-66682733D01*
X137045086Y-66788353D01*
X137170065Y-66861740D01*
X137310650Y-66896939D01*
X137455467Y-66891108D01*
X137513298Y-66873841D01*
X137513310Y-66873836D01*
X137742190Y-66777806D01*
X137537526Y-66290002D01*
X136889077Y-66562066D01*
X136622667Y-66562066D01*
X136604119Y-66529940D01*
X136561673Y-66456420D01*
X136561667Y-66456412D01*
X136449866Y-66344611D01*
X136449858Y-66344605D01*
X136312939Y-66265556D01*
X136312935Y-66265554D01*
X136312933Y-66265553D01*
X136160206Y-66224630D01*
X136002092Y-66224630D01*
X135849365Y-66265553D01*
X135849358Y-66265556D01*
X135712439Y-66344605D01*
X135712431Y-66344611D01*
X135600630Y-66456412D01*
X135600624Y-66456420D01*
X135521575Y-66593339D01*
X135521572Y-66593346D01*
X135480649Y-66746073D01*
X135130534Y-66746073D01*
X135106341Y-66688412D01*
X135077171Y-66635562D01*
X135077171Y-66635561D01*
X134977930Y-66529939D01*
X134885667Y-66475764D01*
X134837824Y-66424844D01*
X134825105Y-66356142D01*
X134833681Y-66321897D01*
X134834735Y-66319317D01*
X134834740Y-66319309D01*
X134872735Y-66171465D01*
X134869434Y-66018852D01*
X134844792Y-65932420D01*
X134757934Y-65725401D01*
X134750150Y-65655968D01*
X134781140Y-65593347D01*
X134841066Y-65557421D01*
X134910901Y-65559596D01*
X134959960Y-65589747D01*
X135016035Y-65645822D01*
X135016037Y-65645823D01*
X135016041Y-65645826D01*
X135135038Y-65714528D01*
X135152967Y-65724879D01*
X135305694Y-65765802D01*
X135305696Y-65765802D01*
X135463806Y-65765802D01*
X135463808Y-65765802D01*
X135616535Y-65724879D01*
X135753467Y-65645822D01*
X135865271Y-65534018D01*
X135944328Y-65397086D01*
X135985251Y-65244359D01*
X135985251Y-65158532D01*
X136004936Y-65091493D01*
X136057740Y-65045738D01*
X136126898Y-65035794D01*
X136190454Y-65064819D01*
X136223595Y-65110558D01*
X136310419Y-65317499D01*
X136354822Y-65395636D01*
X136354823Y-65395637D01*
X136354825Y-65395640D01*
X136461405Y-65504922D01*
X136593515Y-65581396D01*
X136593526Y-65581398D01*
X136596105Y-65582454D01*
X136598113Y-65584057D01*
X136600856Y-65585645D01*
X136600617Y-65586056D01*
X136650709Y-65626045D01*
X136673077Y-65692238D01*
X136669465Y-65727349D01*
X136643478Y-65831138D01*
X136649310Y-65975955D01*
X136666581Y-66033797D01*
X136694906Y-66101307D01*
X137460271Y-65780190D01*
X137529705Y-65772405D01*
X137592326Y-65803395D01*
X137622589Y-65846560D01*
X137671337Y-65962748D01*
X137787525Y-65914000D01*
X137856959Y-65906215D01*
X137919580Y-65937205D01*
X137949843Y-65980370D01*
X138203254Y-66584361D01*
X138319039Y-66535782D01*
X138424110Y-66491699D01*
X138424110Y-66491698D01*
X138424112Y-66491698D01*
X138432146Y-66488327D01*
X138484988Y-66459161D01*
X138484995Y-66459156D01*
X138590607Y-66359923D01*
X138663995Y-66234942D01*
X138699195Y-66094358D01*
X138697400Y-66049785D01*
X138714371Y-65982008D01*
X138765291Y-65934165D01*
X138833993Y-65921446D01*
X138851411Y-65924507D01*
X138990719Y-65959389D01*
X139135903Y-65953542D01*
X139189377Y-65937574D01*
X139203126Y-65937512D01*
X139216009Y-65932707D01*
X139237376Y-65937355D01*
X139259246Y-65937255D01*
X139272279Y-65944947D01*
X139284282Y-65947559D01*
X139312536Y-65968710D01*
X139379193Y-66035367D01*
X139412678Y-66096690D01*
X139407694Y-66166382D01*
X139390779Y-66197359D01*
X139375267Y-66218079D01*
X139327134Y-66347127D01*
X139327133Y-66347132D01*
X139321000Y-66404163D01*
X139321000Y-66450000D01*
X139901000Y-66450000D01*
X139968039Y-66469685D01*
X140013794Y-66522489D01*
X140025000Y-66574000D01*
X140025000Y-66700000D01*
X140151000Y-66700000D01*
X140218039Y-66719685D01*
X140263794Y-66772489D01*
X140275000Y-66824000D01*
X140275000Y-67429000D01*
X140295820Y-67429000D01*
X140295836Y-67428999D01*
X140352867Y-67422866D01*
X140352872Y-67422865D01*
X140481921Y-67374732D01*
X140481924Y-67374730D01*
X140592184Y-67292188D01*
X140670425Y-67187673D01*
X140726359Y-67145802D01*
X140796050Y-67140818D01*
X140857374Y-67174303D01*
X140877958Y-67205686D01*
X140879256Y-67204957D01*
X140883411Y-67212347D01*
X140883412Y-67212349D01*
X140971496Y-67328504D01*
X141087651Y-67416588D01*
X141223263Y-67470066D01*
X141308482Y-67480300D01*
X141841518Y-67480300D01*
X141926737Y-67470066D01*
X142062349Y-67416588D01*
X142178504Y-67328504D01*
X142178506Y-67328502D01*
X142234720Y-67254374D01*
X142290912Y-67212851D01*
X142333523Y-67205300D01*
X144466522Y-67205300D01*
X144466524Y-67205300D01*
X144595038Y-67170864D01*
X144626707Y-67152580D01*
X144710261Y-67104341D01*
X145772983Y-66041619D01*
X145834306Y-66008134D01*
X145860664Y-66005300D01*
X146767491Y-66005300D01*
X146834530Y-66024985D01*
X146855172Y-66041619D01*
X147330590Y-66517037D01*
X147267007Y-66534075D01*
X147152993Y-66599901D01*
X147059901Y-66692993D01*
X146994075Y-66807007D01*
X146977037Y-66870590D01*
X146520845Y-66414398D01*
X146520844Y-66414398D01*
X146515775Y-66421375D01*
X146436884Y-66576206D01*
X146383183Y-66741478D01*
X146356000Y-66913107D01*
X146356000Y-67086892D01*
X146383183Y-67258521D01*
X146436884Y-67423793D01*
X146515776Y-67578624D01*
X146515777Y-67578626D01*
X146520844Y-67585600D01*
X146520846Y-67585601D01*
X146977037Y-67129409D01*
X146994075Y-67192993D01*
X147059901Y-67307007D01*
X147152993Y-67400099D01*
X147267007Y-67465925D01*
X147330590Y-67482962D01*
X146945172Y-67868381D01*
X146883849Y-67901866D01*
X146857491Y-67904700D01*
X143547958Y-67904700D01*
X143447420Y-67931639D01*
X143447413Y-67931642D01*
X143357286Y-67983676D01*
X143357278Y-67983682D01*
X142872580Y-68468381D01*
X142811257Y-68501866D01*
X142784899Y-68504700D01*
X138744295Y-68504700D01*
X138677256Y-68485015D01*
X138631501Y-68432211D01*
X138621557Y-68363053D01*
X138624009Y-68350581D01*
X138659388Y-68209287D01*
X138659387Y-68209285D01*
X138659389Y-68209281D01*
X138653542Y-68064097D01*
X138653540Y-68064089D01*
X138652266Y-68056442D01*
X138653705Y-68056202D01*
X138653428Y-67994902D01*
X138690937Y-67935954D01*
X138754361Y-67906643D01*
X138772562Y-67905300D01*
X138779687Y-67905300D01*
X138779689Y-67905300D01*
X138933637Y-67864050D01*
X139071663Y-67784360D01*
X139184360Y-67671663D01*
X139264050Y-67533637D01*
X139302892Y-67388673D01*
X139339254Y-67329018D01*
X139402101Y-67298488D01*
X139471477Y-67306782D01*
X139496976Y-67321504D01*
X139568080Y-67374732D01*
X139568078Y-67374732D01*
X139697127Y-67422865D01*
X139697132Y-67422866D01*
X139754163Y-67428999D01*
X139754180Y-67429000D01*
X139775000Y-67429000D01*
X139775000Y-66950000D01*
X139295893Y-66950000D01*
X139289859Y-66953294D01*
X139220168Y-66948304D01*
X139175830Y-66919807D01*
X139071665Y-66815642D01*
X139071663Y-66815640D01*
X138996924Y-66772489D01*
X138933638Y-66735950D01*
X138823817Y-66706524D01*
X138779689Y-66694700D01*
X138620311Y-66694700D01*
X138512302Y-66723640D01*
X138512297Y-66723642D01*
X138466363Y-66735950D01*
X138422228Y-66761431D01*
X138422215Y-66761437D01*
X138328343Y-66815635D01*
X138328334Y-66815642D01*
X138215642Y-66928334D01*
X138215640Y-66928337D01*
X138135947Y-67066367D01*
X138134859Y-67068995D01*
X138133347Y-67070869D01*
X138131886Y-67073402D01*
X138131491Y-67073173D01*
X138091015Y-67123396D01*
X138024720Y-67145458D01*
X137999880Y-67142844D01*
X137999870Y-67142948D01*
X137991049Y-67142040D01*
X137991043Y-67142040D01*
X137845858Y-67147887D01*
X137845854Y-67147887D01*
X137845853Y-67147888D01*
X137787870Y-67165201D01*
X137787861Y-67165204D01*
X137787860Y-67165205D01*
X137734671Y-67187521D01*
X137329874Y-67357357D01*
X137276880Y-67386607D01*
X137170986Y-67486103D01*
X137170985Y-67486105D01*
X137097415Y-67611399D01*
X137097413Y-67611404D01*
X137062121Y-67752347D01*
X137062121Y-67752352D01*
X137062121Y-67752353D01*
X137064672Y-67815698D01*
X137067968Y-67897538D01*
X137070107Y-67904700D01*
X137075006Y-67921109D01*
X137075680Y-67923364D01*
X137075998Y-67993233D01*
X137038492Y-68052183D01*
X136975070Y-68081497D01*
X136905866Y-68071869D01*
X136852854Y-68026355D01*
X136848302Y-68018762D01*
X136841312Y-68006098D01*
X136835278Y-67995166D01*
X136752104Y-67906643D01*
X136735786Y-67889275D01*
X136735785Y-67889274D01*
X136735783Y-67889272D01*
X136654627Y-67841619D01*
X136610485Y-67815699D01*
X136610481Y-67815698D01*
X136469538Y-67780406D01*
X136469533Y-67780406D01*
X136324348Y-67786253D01*
X136324344Y-67786253D01*
X136324343Y-67786254D01*
X136266360Y-67803567D01*
X136266351Y-67803570D01*
X136266350Y-67803571D01*
X136237446Y-67815698D01*
X135808364Y-67995723D01*
X135755370Y-68024973D01*
X135649476Y-68124469D01*
X135649475Y-68124471D01*
X135575905Y-68249765D01*
X135575903Y-68249770D01*
X135540611Y-68390713D01*
X135540611Y-68390718D01*
X135540611Y-68390719D01*
X135546458Y-68535903D01*
X135563776Y-68593902D01*
X135751185Y-69040583D01*
X135813962Y-69190208D01*
X135813967Y-69190218D01*
X135843209Y-69243196D01*
X135843213Y-69243201D01*
X135937720Y-69343787D01*
X135942707Y-69349094D01*
X136068006Y-69422667D01*
X136208957Y-69457960D01*
X136354142Y-69452113D01*
X136412140Y-69434795D01*
X136870127Y-69242642D01*
X136886957Y-69233352D01*
X136897506Y-69231006D01*
X136906313Y-69224735D01*
X136931017Y-69223556D01*
X136955158Y-69218190D01*
X136967143Y-69221834D01*
X136976103Y-69221407D01*
X137008863Y-69234520D01*
X137008870Y-69234522D01*
X137008872Y-69234522D01*
X137023902Y-69243200D01*
X137067482Y-69268361D01*
X137168019Y-69295300D01*
X137168020Y-69295300D01*
X137168022Y-69295300D01*
X143052040Y-69295300D01*
X143052042Y-69295300D01*
X143152580Y-69268361D01*
X143242720Y-69216319D01*
X143418456Y-69040582D01*
X143479778Y-69007098D01*
X143549469Y-69012082D01*
X143605403Y-69053953D01*
X143625911Y-69096170D01*
X143635950Y-69133638D01*
X143668617Y-69190218D01*
X143715640Y-69271663D01*
X143828337Y-69384360D01*
X143966363Y-69464050D01*
X144120311Y-69505300D01*
X144120313Y-69505300D01*
X144279687Y-69505300D01*
X144279689Y-69505300D01*
X144433637Y-69464050D01*
X144571663Y-69384360D01*
X144624404Y-69331619D01*
X144685727Y-69298134D01*
X144712085Y-69295300D01*
X147497000Y-69295300D01*
X147564039Y-69314985D01*
X147609794Y-69367789D01*
X147621000Y-69419300D01*
X147621000Y-69975000D01*
X148291988Y-69975000D01*
X148259075Y-70032007D01*
X148225000Y-70159174D01*
X148225000Y-70290826D01*
X148259075Y-70417993D01*
X148291988Y-70475000D01*
X147621001Y-70475000D01*
X147621001Y-71100014D01*
X147635737Y-71174106D01*
X147635738Y-71174109D01*
X147691876Y-71258123D01*
X147775895Y-71314263D01*
X147775896Y-71314264D01*
X147849980Y-71328999D01*
X148474999Y-71328999D01*
X148475000Y-71328998D01*
X148475000Y-70658012D01*
X148532007Y-70690925D01*
X148659174Y-70725000D01*
X148790826Y-70725000D01*
X148917993Y-70690925D01*
X148975000Y-70658012D01*
X148975000Y-71328999D01*
X149600015Y-71328999D01*
X149674106Y-71314262D01*
X149674109Y-71314261D01*
X149758123Y-71258123D01*
X149814263Y-71174104D01*
X149814264Y-71174103D01*
X149828999Y-71100021D01*
X149829000Y-71100018D01*
X149829000Y-70475000D01*
X149158012Y-70475000D01*
X149190925Y-70417993D01*
X149225000Y-70290826D01*
X149225000Y-70159174D01*
X149190925Y-70032007D01*
X149158012Y-69975000D01*
X149828999Y-69975000D01*
X149828999Y-69419300D01*
X149848684Y-69352261D01*
X149901488Y-69306506D01*
X149952999Y-69295300D01*
X150269075Y-69295300D01*
X150336114Y-69314985D01*
X150381869Y-69367789D01*
X150391813Y-69436947D01*
X150369394Y-69492182D01*
X150314584Y-69567621D01*
X150276899Y-69619490D01*
X150194342Y-69781518D01*
X150194340Y-69781521D01*
X150138148Y-69954462D01*
X150138148Y-69954465D01*
X150109700Y-70134076D01*
X150109700Y-70315923D01*
X150138148Y-70495534D01*
X150138148Y-70495537D01*
X150194340Y-70668478D01*
X150194342Y-70668481D01*
X150276899Y-70830509D01*
X150383787Y-70977627D01*
X150512373Y-71106213D01*
X150659491Y-71213101D01*
X150821519Y-71295658D01*
X150821521Y-71295659D01*
X150924129Y-71328998D01*
X150994467Y-71351852D01*
X151108869Y-71369972D01*
X151125000Y-71372527D01*
X151188135Y-71402456D01*
X151225066Y-71461768D01*
X151224068Y-71531631D01*
X151185458Y-71589863D01*
X151125000Y-71617473D01*
X150994465Y-71638148D01*
X150994462Y-71638148D01*
X150821521Y-71694340D01*
X150821518Y-71694342D01*
X150659490Y-71776899D01*
X150575553Y-71837883D01*
X150512373Y-71883787D01*
X150512371Y-71883789D01*
X150512370Y-71883789D01*
X150383789Y-72012370D01*
X150383789Y-72012371D01*
X150383787Y-72012373D01*
X150357933Y-72047958D01*
X150276899Y-72159490D01*
X150194342Y-72321518D01*
X150194340Y-72321521D01*
X150138148Y-72494462D01*
X150138148Y-72494465D01*
X150117473Y-72625000D01*
X150087544Y-72688135D01*
X150028232Y-72725066D01*
X149958369Y-72724068D01*
X149900137Y-72685458D01*
X149872527Y-72625000D01*
X149870506Y-72612243D01*
X149851852Y-72494467D01*
X149851851Y-72494463D01*
X149851851Y-72494462D01*
X149795659Y-72321521D01*
X149795657Y-72321518D01*
X149713100Y-72159490D01*
X149707688Y-72152041D01*
X149606213Y-72012373D01*
X149477627Y-71883787D01*
X149330509Y-71776899D01*
X149168481Y-71694342D01*
X149168478Y-71694340D01*
X148995535Y-71638148D01*
X148875793Y-71619182D01*
X148815924Y-71609700D01*
X148634076Y-71609700D01*
X148574206Y-71619182D01*
X148454465Y-71638148D01*
X148454462Y-71638148D01*
X148281521Y-71694340D01*
X148281518Y-71694342D01*
X148119490Y-71776899D01*
X148035553Y-71837883D01*
X147972373Y-71883787D01*
X147972371Y-71883789D01*
X147972370Y-71883789D01*
X147843789Y-72012370D01*
X147843789Y-72012371D01*
X147843787Y-72012373D01*
X147817933Y-72047958D01*
X147736899Y-72159490D01*
X147664290Y-72301995D01*
X147616316Y-72352791D01*
X147553805Y-72369700D01*
X145080101Y-72369700D01*
X145013062Y-72350015D01*
X144992420Y-72333381D01*
X144631619Y-71972580D01*
X144616915Y-71945652D01*
X144600323Y-71919834D01*
X144599431Y-71913633D01*
X144598134Y-71911257D01*
X144595300Y-71884899D01*
X144595300Y-71812085D01*
X144614985Y-71745046D01*
X144631619Y-71724404D01*
X144684360Y-71671663D01*
X144764050Y-71533637D01*
X144805300Y-71379689D01*
X144805300Y-71220311D01*
X144764050Y-71066363D01*
X144684360Y-70928337D01*
X144571663Y-70815640D01*
X144502650Y-70775795D01*
X144433638Y-70735950D01*
X144356663Y-70715325D01*
X144279689Y-70694700D01*
X144120311Y-70694700D01*
X143966361Y-70735950D01*
X143828337Y-70815640D01*
X143828334Y-70815642D01*
X143715642Y-70928334D01*
X143715640Y-70928337D01*
X143635950Y-71066361D01*
X143607080Y-71174109D01*
X143594700Y-71220311D01*
X143594700Y-71379689D01*
X143604735Y-71417140D01*
X143635950Y-71533638D01*
X143667073Y-71587544D01*
X143715640Y-71671663D01*
X143715642Y-71671665D01*
X143768381Y-71724404D01*
X143801866Y-71785727D01*
X143804700Y-71812085D01*
X143804700Y-72152041D01*
X143831639Y-72252579D01*
X143831642Y-72252586D01*
X143883676Y-72342713D01*
X143883680Y-72342718D01*
X143883681Y-72342720D01*
X144622280Y-73081319D01*
X144622282Y-73081320D01*
X144622286Y-73081323D01*
X144712413Y-73133357D01*
X144712420Y-73133361D01*
X144812958Y-73160300D01*
X144917042Y-73160300D01*
X147553805Y-73160300D01*
X147620844Y-73179985D01*
X147664289Y-73228004D01*
X147736899Y-73370509D01*
X147843787Y-73517627D01*
X147972373Y-73646213D01*
X148119491Y-73753101D01*
X148281519Y-73835658D01*
X148281521Y-73835659D01*
X148442834Y-73888072D01*
X148454467Y-73891852D01*
X148634076Y-73920300D01*
X148634077Y-73920300D01*
X148815923Y-73920300D01*
X148815924Y-73920300D01*
X148995533Y-73891852D01*
X148995536Y-73891851D01*
X148995537Y-73891851D01*
X149168478Y-73835659D01*
X149168478Y-73835658D01*
X149168481Y-73835658D01*
X149330509Y-73753101D01*
X149477627Y-73646213D01*
X149606213Y-73517627D01*
X149713101Y-73370509D01*
X149795658Y-73208481D01*
X149836974Y-73081323D01*
X149851851Y-73035537D01*
X149851851Y-73035536D01*
X149851852Y-73035533D01*
X149872527Y-72904998D01*
X149902456Y-72841864D01*
X149961768Y-72804933D01*
X150031630Y-72805931D01*
X150089863Y-72844541D01*
X150117473Y-72904999D01*
X150138148Y-73035534D01*
X150138148Y-73035537D01*
X150194340Y-73208478D01*
X150194342Y-73208481D01*
X150276899Y-73370509D01*
X150383787Y-73517627D01*
X150512373Y-73646213D01*
X150659491Y-73753101D01*
X150821519Y-73835658D01*
X150821521Y-73835659D01*
X150982834Y-73888072D01*
X150994467Y-73891852D01*
X151174076Y-73920300D01*
X151174077Y-73920300D01*
X151355923Y-73920300D01*
X151355924Y-73920300D01*
X151535533Y-73891852D01*
X151535536Y-73891851D01*
X151535537Y-73891851D01*
X151708478Y-73835659D01*
X151708478Y-73835658D01*
X151708481Y-73835658D01*
X151870509Y-73753101D01*
X152017627Y-73646213D01*
X152146213Y-73517627D01*
X152253101Y-73370509D01*
X152335658Y-73208481D01*
X152376974Y-73081323D01*
X152391851Y-73035537D01*
X152391851Y-73035536D01*
X152391852Y-73035533D01*
X152420300Y-72855924D01*
X152420300Y-72674076D01*
X152391852Y-72494467D01*
X152391851Y-72494463D01*
X152391851Y-72494462D01*
X152335659Y-72321521D01*
X152335657Y-72321518D01*
X152253100Y-72159490D01*
X152247688Y-72152041D01*
X152146213Y-72012373D01*
X152017627Y-71883787D01*
X151870509Y-71776899D01*
X151708481Y-71694342D01*
X151708478Y-71694340D01*
X151535535Y-71638148D01*
X151432458Y-71621822D01*
X151404998Y-71617472D01*
X151341864Y-71587544D01*
X151304933Y-71528232D01*
X151305931Y-71458370D01*
X151344541Y-71400137D01*
X151401689Y-71374038D01*
X157899500Y-71374038D01*
X157899500Y-71625962D01*
X157928979Y-71812085D01*
X157938910Y-71874785D01*
X158016760Y-72114383D01*
X158087175Y-72252579D01*
X158122301Y-72321518D01*
X158131132Y-72338848D01*
X158279201Y-72542649D01*
X158279205Y-72542654D01*
X158457345Y-72720794D01*
X158457350Y-72720798D01*
X158623984Y-72841864D01*
X158661155Y-72868870D01*
X158804184Y-72941747D01*
X158885616Y-72983239D01*
X158885618Y-72983239D01*
X158885621Y-72983241D01*
X159125215Y-73061090D01*
X159374038Y-73100500D01*
X159374039Y-73100500D01*
X159625961Y-73100500D01*
X159625962Y-73100500D01*
X159874785Y-73061090D01*
X160114379Y-72983241D01*
X160338845Y-72868870D01*
X160542656Y-72720793D01*
X160720793Y-72542656D01*
X160868870Y-72338845D01*
X160983241Y-72114379D01*
X161061090Y-71874785D01*
X161100500Y-71625962D01*
X161100500Y-71374038D01*
X161061090Y-71125215D01*
X160983241Y-70885621D01*
X160983239Y-70885618D01*
X160983239Y-70885616D01*
X160941747Y-70804184D01*
X160868870Y-70661155D01*
X160775039Y-70532007D01*
X160720798Y-70457350D01*
X160720794Y-70457345D01*
X160542654Y-70279205D01*
X160542649Y-70279201D01*
X160338848Y-70131132D01*
X160338847Y-70131131D01*
X160338845Y-70131130D01*
X160268747Y-70095413D01*
X160114383Y-70016760D01*
X159874785Y-69938910D01*
X159742721Y-69917993D01*
X159625962Y-69899500D01*
X159374038Y-69899500D01*
X159257279Y-69917993D01*
X159125214Y-69938910D01*
X158885616Y-70016760D01*
X158661151Y-70131132D01*
X158457350Y-70279201D01*
X158457345Y-70279205D01*
X158279205Y-70457345D01*
X158279201Y-70457350D01*
X158131132Y-70661151D01*
X158016760Y-70885616D01*
X157938910Y-71125214D01*
X157908967Y-71314264D01*
X157899500Y-71374038D01*
X151401689Y-71374038D01*
X151404998Y-71372527D01*
X151535533Y-71351852D01*
X151535536Y-71351851D01*
X151535537Y-71351851D01*
X151708478Y-71295659D01*
X151708478Y-71295658D01*
X151708481Y-71295658D01*
X151870509Y-71213101D01*
X152017627Y-71106213D01*
X152146213Y-70977627D01*
X152253101Y-70830509D01*
X152335658Y-70668481D01*
X152380001Y-70532007D01*
X152391851Y-70495537D01*
X152391851Y-70495536D01*
X152391852Y-70495533D01*
X152420300Y-70315924D01*
X152420300Y-70134076D01*
X152391852Y-69954467D01*
X152391851Y-69954463D01*
X152391851Y-69954462D01*
X152335659Y-69781521D01*
X152335657Y-69781518D01*
X152253100Y-69619490D01*
X152146213Y-69472373D01*
X152123806Y-69449966D01*
X152111824Y-69428024D01*
X152096369Y-69408370D01*
X152095367Y-69397885D01*
X152090321Y-69388643D01*
X152092104Y-69363705D01*
X152089728Y-69338817D01*
X152094553Y-69329456D01*
X152095305Y-69318951D01*
X152110288Y-69298935D01*
X152121745Y-69276714D01*
X152134337Y-69266811D01*
X152137177Y-69263018D01*
X152149471Y-69254907D01*
X152206621Y-69221911D01*
X152268620Y-69205300D01*
X156416522Y-69205300D01*
X156416524Y-69205300D01*
X156545038Y-69170864D01*
X156573655Y-69154342D01*
X156660261Y-69104341D01*
X157922984Y-67841619D01*
X157984307Y-67808134D01*
X158010665Y-67805300D01*
X158343470Y-67805300D01*
X158343476Y-67805300D01*
X158432711Y-67794584D01*
X158574717Y-67738584D01*
X158696348Y-67646348D01*
X158788584Y-67524717D01*
X158788585Y-67524714D01*
X158792065Y-67518526D01*
X158824227Y-67487154D01*
X164620460Y-67487154D01*
X164655660Y-67627738D01*
X164729048Y-67752719D01*
X164834662Y-67851953D01*
X164834664Y-67851955D01*
X164887518Y-67881129D01*
X165116400Y-67977158D01*
X165321064Y-67489354D01*
X164672281Y-67217150D01*
X164670589Y-67220080D01*
X164643567Y-67284487D01*
X164626293Y-67342338D01*
X164620460Y-67487154D01*
X158824227Y-67487154D01*
X158842081Y-67469738D01*
X158900151Y-67455300D01*
X159001510Y-67455300D01*
X159001513Y-67455300D01*
X159117311Y-67424272D01*
X159142391Y-67409792D01*
X159221133Y-67364331D01*
X159305903Y-67279561D01*
X159305903Y-67279559D01*
X159316107Y-67269356D01*
X159316111Y-67269351D01*
X159807657Y-66777805D01*
X162257808Y-66777805D01*
X162486687Y-66873834D01*
X162486695Y-66873837D01*
X162544533Y-66891108D01*
X162544533Y-66891109D01*
X162689350Y-66896940D01*
X162829934Y-66861740D01*
X162954913Y-66788353D01*
X162994639Y-66746073D01*
X163318351Y-66746073D01*
X163318351Y-66904187D01*
X163344025Y-67000001D01*
X163359274Y-67056913D01*
X163359277Y-67056920D01*
X163438326Y-67193839D01*
X163438330Y-67193844D01*
X163438331Y-67193846D01*
X163550135Y-67305650D01*
X163550137Y-67305651D01*
X163550141Y-67305654D01*
X163671333Y-67375623D01*
X163687067Y-67384707D01*
X163839794Y-67425630D01*
X163839796Y-67425630D01*
X163997906Y-67425630D01*
X163997908Y-67425630D01*
X164150635Y-67384707D01*
X164287567Y-67305650D01*
X164399371Y-67193846D01*
X164478428Y-67056914D01*
X164519351Y-66904187D01*
X164519351Y-66746073D01*
X164478428Y-66593346D01*
X164441821Y-66529940D01*
X164399375Y-66456420D01*
X164399369Y-66456412D01*
X164287568Y-66344611D01*
X164287560Y-66344605D01*
X164150641Y-66265556D01*
X164150637Y-66265554D01*
X164150635Y-66265553D01*
X163997908Y-66224630D01*
X163839794Y-66224630D01*
X163687067Y-66265553D01*
X163687060Y-66265556D01*
X163550141Y-66344605D01*
X163550133Y-66344611D01*
X163438332Y-66456412D01*
X163438326Y-66456420D01*
X163359370Y-66593176D01*
X163359368Y-66593182D01*
X163359274Y-66593346D01*
X163347141Y-66638625D01*
X163346742Y-66640110D01*
X163346743Y-66640111D01*
X163321063Y-66735950D01*
X163318351Y-66746073D01*
X162994639Y-66746073D01*
X163054152Y-66682734D01*
X163054152Y-66682733D01*
X163083322Y-66629885D01*
X163083322Y-66629884D01*
X163109396Y-66567736D01*
X163110922Y-66562066D01*
X162462472Y-66290002D01*
X162257808Y-66777805D01*
X159807657Y-66777805D01*
X160636725Y-65948736D01*
X160698046Y-65915253D01*
X160767738Y-65920237D01*
X160772325Y-65922054D01*
X160806098Y-65936224D01*
X160864097Y-65953542D01*
X161009281Y-65959389D01*
X161148582Y-65924509D01*
X161218392Y-65927320D01*
X161275603Y-65967428D01*
X161302047Y-66032100D01*
X161302599Y-66049783D01*
X161300804Y-66094358D01*
X161336004Y-66234942D01*
X161409392Y-66359923D01*
X161515006Y-66459157D01*
X161515008Y-66459159D01*
X161567862Y-66488333D01*
X161796744Y-66584362D01*
X162050156Y-65980370D01*
X162094245Y-65926167D01*
X162160639Y-65904404D01*
X162212474Y-65914000D01*
X162328662Y-65962748D01*
X162377410Y-65846561D01*
X162421498Y-65792358D01*
X162487892Y-65770595D01*
X162539728Y-65780191D01*
X163305091Y-66101307D01*
X163305092Y-66101307D01*
X163333412Y-66033810D01*
X163333418Y-66033793D01*
X163350688Y-65975955D01*
X163356521Y-65831139D01*
X163330534Y-65727351D01*
X163333346Y-65657538D01*
X163373456Y-65600328D01*
X163403898Y-65582454D01*
X163406478Y-65581398D01*
X163406485Y-65581397D01*
X163538595Y-65504923D01*
X163645175Y-65395641D01*
X163689580Y-65317501D01*
X163776405Y-65110558D01*
X163820494Y-65056356D01*
X163886888Y-65034593D01*
X163954508Y-65052181D01*
G37*
%TD.AperFunction*%
%TA.AperFunction,Conductor*%
G36*
X158544108Y-63544301D02*
G01*
X158555231Y-63557057D01*
X158571493Y-63578501D01*
X158571494Y-63578502D01*
X158571496Y-63578504D01*
X158675764Y-63657574D01*
X158687651Y-63666588D01*
X158701325Y-63671980D01*
X158756470Y-63714886D01*
X158772317Y-63748294D01*
X158772619Y-63748170D01*
X158775100Y-63754161D01*
X158775608Y-63755231D01*
X158775728Y-63755677D01*
X158827871Y-63845993D01*
X158835668Y-63859497D01*
X158835670Y-63859500D01*
X158927504Y-63951334D01*
X158927510Y-63951339D01*
X159935723Y-64959553D01*
X159969208Y-65020876D01*
X159965100Y-65084364D01*
X159966155Y-65084679D01*
X159965205Y-65087858D01*
X159965205Y-65087860D01*
X159962876Y-65095660D01*
X159948187Y-65144854D01*
X159947887Y-65145858D01*
X159942040Y-65291043D01*
X159942040Y-65291045D01*
X159941684Y-65299904D01*
X159940381Y-65299851D01*
X159929308Y-65359652D01*
X159906362Y-65391317D01*
X158903723Y-66393956D01*
X158842400Y-66427441D01*
X158772708Y-66422457D01*
X158717238Y-66381200D01*
X158705861Y-66366197D01*
X158696347Y-66353650D01*
X158574719Y-66261417D01*
X158574717Y-66261416D01*
X158464822Y-66218079D01*
X158432709Y-66205415D01*
X158386904Y-66199915D01*
X158343476Y-66194700D01*
X157756524Y-66194700D01*
X157716353Y-66199523D01*
X157667290Y-66205415D01*
X157525280Y-66261417D01*
X157403651Y-66353651D01*
X157311417Y-66475280D01*
X157255415Y-66617290D01*
X157252675Y-66640110D01*
X157244700Y-66706524D01*
X157244700Y-66706530D01*
X157244700Y-67039335D01*
X157225015Y-67106374D01*
X157208381Y-67127016D01*
X156177017Y-68158381D01*
X156115694Y-68191866D01*
X156089336Y-68194700D01*
X153761837Y-68194700D01*
X153694798Y-68175015D01*
X153649043Y-68122211D01*
X153639099Y-68053053D01*
X153648403Y-68020614D01*
X153687687Y-67931642D01*
X153692338Y-67921109D01*
X153695300Y-67895579D01*
X153695300Y-67581700D01*
X153714985Y-67514661D01*
X153767789Y-67468906D01*
X153819300Y-67457700D01*
X154701199Y-67457700D01*
X154768238Y-67477385D01*
X154809287Y-67520930D01*
X154811417Y-67524719D01*
X154903651Y-67646348D01*
X154937037Y-67671665D01*
X155025283Y-67738584D01*
X155167289Y-67794584D01*
X155256524Y-67805300D01*
X155256530Y-67805300D01*
X155843470Y-67805300D01*
X155843476Y-67805300D01*
X155932711Y-67794584D01*
X156074717Y-67738584D01*
X156196348Y-67646348D01*
X156288584Y-67524717D01*
X156344584Y-67382711D01*
X156355300Y-67293476D01*
X156355300Y-66706524D01*
X156344584Y-66617289D01*
X156288584Y-66475283D01*
X156288582Y-66475280D01*
X156196348Y-66353651D01*
X156074719Y-66261417D01*
X156074717Y-66261416D01*
X155964822Y-66218079D01*
X155932709Y-66205415D01*
X155886904Y-66199915D01*
X155843476Y-66194700D01*
X155256524Y-66194700D01*
X155216353Y-66199523D01*
X155167290Y-66205415D01*
X155025280Y-66261417D01*
X154903651Y-66353651D01*
X154811417Y-66475280D01*
X154809287Y-66479070D01*
X154806431Y-66481855D01*
X154806291Y-66482041D01*
X154806263Y-66482019D01*
X154759273Y-66527860D01*
X154701199Y-66542300D01*
X153819299Y-66542300D01*
X153752260Y-66522615D01*
X153706505Y-66469811D01*
X153695299Y-66418300D01*
X153695299Y-66104428D01*
X153695299Y-66104422D01*
X153692338Y-66078891D01*
X153646234Y-65974475D01*
X153641340Y-65969581D01*
X153607855Y-65908258D01*
X153612839Y-65838566D01*
X153654711Y-65782633D01*
X153720175Y-65758216D01*
X153729021Y-65757900D01*
X156315757Y-65757900D01*
X156315759Y-65757900D01*
X156418840Y-65730279D01*
X156428186Y-65724882D01*
X156428194Y-65724881D01*
X156428193Y-65724879D01*
X156428200Y-65724875D01*
X156511260Y-65676921D01*
X158024321Y-64163860D01*
X158077679Y-64071440D01*
X158077834Y-64070864D01*
X158082285Y-64054251D01*
X158082286Y-64054248D01*
X158105300Y-63968359D01*
X158105300Y-63801798D01*
X158124985Y-63734759D01*
X158177789Y-63689004D01*
X158185954Y-63685621D01*
X158219655Y-63673052D01*
X158237171Y-63659940D01*
X158269552Y-63635699D01*
X158335975Y-63585975D01*
X158357162Y-63557672D01*
X158413093Y-63515802D01*
X158482785Y-63510816D01*
X158544108Y-63544301D01*
G37*
%TD.AperFunction*%
%TA.AperFunction,Conductor*%
G36*
X148902076Y-66292885D02*
G01*
X148959939Y-66332047D01*
X148987443Y-66396276D01*
X148975857Y-66465178D01*
X148974805Y-66467292D01*
X148929342Y-66556518D01*
X148929340Y-66556521D01*
X148873148Y-66729462D01*
X148873148Y-66729465D01*
X148859500Y-66815635D01*
X148844700Y-66909076D01*
X148844700Y-67090924D01*
X148854466Y-67152580D01*
X148873148Y-67270534D01*
X148873148Y-67270537D01*
X148922570Y-67422641D01*
X148924565Y-67492482D01*
X148892320Y-67548640D01*
X148572580Y-67868381D01*
X148511257Y-67901866D01*
X148484899Y-67904700D01*
X148062509Y-67904700D01*
X147995470Y-67885015D01*
X147974828Y-67868381D01*
X147589409Y-67482962D01*
X147652993Y-67465925D01*
X147767007Y-67400099D01*
X147860099Y-67307007D01*
X147925925Y-67192993D01*
X147942962Y-67129409D01*
X148399153Y-67585600D01*
X148404224Y-67578624D01*
X148483115Y-67423793D01*
X148536816Y-67258521D01*
X148564000Y-67086892D01*
X148564000Y-66913107D01*
X148536816Y-66741478D01*
X148483115Y-66576206D01*
X148428003Y-66468044D01*
X148415107Y-66399375D01*
X148441383Y-66334634D01*
X148498490Y-66294377D01*
X148568295Y-66291385D01*
X148570440Y-66291937D01*
X148620311Y-66305300D01*
X148620315Y-66305300D01*
X148779686Y-66305300D01*
X148779689Y-66305300D01*
X148832228Y-66291222D01*
X148902076Y-66292885D01*
G37*
%TD.AperFunction*%
%TA.AperFunction,Conductor*%
G36*
X144869204Y-63489985D02*
G01*
X144914959Y-63542789D01*
X144924903Y-63611947D01*
X144916726Y-63641753D01*
X144906897Y-63665481D01*
X144906895Y-63665489D01*
X144876000Y-63820808D01*
X144876000Y-63950000D01*
X145380000Y-63950000D01*
X145380000Y-64450000D01*
X144876000Y-64450000D01*
X144876000Y-64579191D01*
X144906895Y-64734510D01*
X144906897Y-64734518D01*
X144967504Y-64880835D01*
X144967506Y-64880839D01*
X145055489Y-65012515D01*
X145055495Y-65012523D01*
X145126503Y-65083531D01*
X145159988Y-65144854D01*
X145155004Y-65214546D01*
X145126503Y-65258893D01*
X144316981Y-66068416D01*
X144255658Y-66101901D01*
X144185967Y-66096917D01*
X144130033Y-66055045D01*
X144105616Y-65989581D01*
X144105300Y-65980735D01*
X144105300Y-65820313D01*
X144105300Y-65820311D01*
X144064050Y-65666363D01*
X144063258Y-65664992D01*
X144037463Y-65620313D01*
X143984360Y-65528337D01*
X143931619Y-65475596D01*
X143898134Y-65414273D01*
X143895300Y-65387915D01*
X143895300Y-65297960D01*
X143895300Y-65297958D01*
X143868361Y-65197420D01*
X143845398Y-65157647D01*
X143816323Y-65107286D01*
X143816317Y-65107278D01*
X143611020Y-64901981D01*
X143577535Y-64840658D01*
X143582519Y-64770966D01*
X143624391Y-64715033D01*
X143689855Y-64690616D01*
X143698701Y-64690300D01*
X144074971Y-64690300D01*
X144075000Y-64690300D01*
X144082166Y-64690217D01*
X144193746Y-64666680D01*
X144232637Y-64650571D01*
X144245752Y-64644780D01*
X144338317Y-64578179D01*
X144400571Y-64482637D01*
X144416680Y-64443746D01*
X144419346Y-64437093D01*
X144440300Y-64325000D01*
X144440300Y-64225000D01*
X144440217Y-64217834D01*
X144422864Y-64135568D01*
X144415497Y-64100644D01*
X144417540Y-64100212D01*
X144416634Y-64039619D01*
X144417650Y-64036151D01*
X144420233Y-64027790D01*
X144420238Y-64027782D01*
X144430300Y-63958721D01*
X144430299Y-63791280D01*
X144420238Y-63722218D01*
X144420235Y-63722212D01*
X144417394Y-63713014D01*
X144420792Y-63711963D01*
X144412018Y-63660600D01*
X144413334Y-63651981D01*
X144416436Y-63635557D01*
X144420238Y-63627782D01*
X144428099Y-63573824D01*
X144428580Y-63571281D01*
X144443332Y-63542404D01*
X144456864Y-63512922D01*
X144459139Y-63511465D01*
X144460368Y-63509061D01*
X144488392Y-63492743D01*
X144515713Y-63475258D01*
X144519303Y-63474745D01*
X144520748Y-63473904D01*
X144524146Y-63474053D01*
X144550425Y-63470300D01*
X144802165Y-63470300D01*
X144869204Y-63489985D01*
G37*
%TD.AperFunction*%
%TA.AperFunction,Conductor*%
G36*
X150618025Y-59432767D02*
G01*
X151846030Y-59470077D01*
X151849757Y-59470248D01*
X153076018Y-59544834D01*
X153079742Y-59545116D01*
X153489989Y-59582603D01*
X153554956Y-59608306D01*
X153595717Y-59665054D01*
X153599326Y-59734830D01*
X153593264Y-59753540D01*
X153546898Y-59865477D01*
X153546895Y-59865489D01*
X153516000Y-60020808D01*
X153516000Y-60150000D01*
X154020000Y-60150000D01*
X154020000Y-60650000D01*
X153516000Y-60650000D01*
X153516000Y-60779191D01*
X153546895Y-60934510D01*
X153546897Y-60934518D01*
X153607504Y-61080835D01*
X153607506Y-61080839D01*
X153695489Y-61212515D01*
X153695495Y-61212523D01*
X153807476Y-61324504D01*
X153807484Y-61324510D01*
X153939160Y-61412493D01*
X153939164Y-61412495D01*
X154069999Y-61466689D01*
X154070000Y-61466689D01*
X154070000Y-60866988D01*
X154079940Y-60884205D01*
X154135795Y-60940060D01*
X154204204Y-60979556D01*
X154280504Y-61000000D01*
X154359496Y-61000000D01*
X154435796Y-60979556D01*
X154504205Y-60940060D01*
X154560060Y-60884205D01*
X154570000Y-60866988D01*
X154570000Y-61466689D01*
X154700835Y-61412495D01*
X154700839Y-61412493D01*
X154832515Y-61324510D01*
X154832523Y-61324504D01*
X154944504Y-61212523D01*
X154944510Y-61212515D01*
X155006120Y-61120309D01*
X155471000Y-61120309D01*
X155471000Y-61125000D01*
X155950000Y-61125000D01*
X156450000Y-61125000D01*
X157450000Y-61125000D01*
X157950000Y-61125000D01*
X158457638Y-61125000D01*
X158524677Y-61144685D01*
X158545319Y-61161319D01*
X158559000Y-61175000D01*
X158950000Y-61175000D01*
X158950000Y-60721000D01*
X158904163Y-60721000D01*
X158847132Y-60727133D01*
X158847127Y-60727134D01*
X158718078Y-60775267D01*
X158718075Y-60775269D01*
X158607814Y-60857811D01*
X158555385Y-60927847D01*
X158499451Y-60969717D01*
X158429759Y-60974701D01*
X158368437Y-60941215D01*
X158356348Y-60927168D01*
X158299650Y-60850345D01*
X158189536Y-60769078D01*
X158060364Y-60723877D01*
X158060352Y-60723875D01*
X158029690Y-60721000D01*
X157950000Y-60721000D01*
X157950000Y-61125000D01*
X157450000Y-61125000D01*
X157450000Y-60721000D01*
X157370310Y-60721000D01*
X157339647Y-60723875D01*
X157339635Y-60723877D01*
X157210463Y-60769078D01*
X157210462Y-60769078D01*
X157100348Y-60850345D01*
X157049770Y-60918877D01*
X156994123Y-60961127D01*
X156924466Y-60966586D01*
X156862917Y-60933518D01*
X156850230Y-60918877D01*
X156799651Y-60850345D01*
X156689536Y-60769078D01*
X156560364Y-60723877D01*
X156560352Y-60723875D01*
X156529690Y-60721000D01*
X156450000Y-60721000D01*
X156450000Y-61125000D01*
X155950000Y-61125000D01*
X155950000Y-60721000D01*
X155870310Y-60721000D01*
X155839647Y-60723875D01*
X155839635Y-60723877D01*
X155710463Y-60769078D01*
X155710462Y-60769078D01*
X155600347Y-60850346D01*
X155600346Y-60850347D01*
X155519078Y-60960462D01*
X155519078Y-60960463D01*
X155473877Y-61089635D01*
X155473875Y-61089647D01*
X155471000Y-61120309D01*
X155006120Y-61120309D01*
X155032493Y-61080839D01*
X155032498Y-61080830D01*
X155036998Y-61069966D01*
X155037000Y-61069962D01*
X155093102Y-60934518D01*
X155093104Y-60934510D01*
X155123999Y-60779191D01*
X155124000Y-60779188D01*
X155124000Y-60650000D01*
X154620000Y-60650000D01*
X154620000Y-60150000D01*
X155124000Y-60150000D01*
X155124000Y-60020812D01*
X155123999Y-60020808D01*
X155103659Y-59918549D01*
X155109886Y-59848958D01*
X155152749Y-59793780D01*
X155218639Y-59770536D01*
X155240299Y-59771271D01*
X155526435Y-59806208D01*
X155530158Y-59806720D01*
X156744604Y-59992592D01*
X156748270Y-59993211D01*
X157956452Y-60215867D01*
X157960111Y-60216598D01*
X159161040Y-60475859D01*
X159164699Y-60476708D01*
X159214984Y-60489173D01*
X159376023Y-60529093D01*
X159436356Y-60564329D01*
X159468062Y-60626591D01*
X159461073Y-60696110D01*
X159450000Y-60712806D01*
X159450000Y-61175000D01*
X159929000Y-61175000D01*
X159929000Y-61154180D01*
X159928999Y-61154163D01*
X159922866Y-61097132D01*
X159922865Y-61097127D01*
X159874732Y-60968079D01*
X159793212Y-60859183D01*
X159768795Y-60793719D01*
X159783646Y-60725446D01*
X159833051Y-60676040D01*
X159901324Y-60661188D01*
X159922307Y-60664513D01*
X160357177Y-60772315D01*
X160360750Y-60773259D01*
X161543704Y-61104945D01*
X161547218Y-61105988D01*
X162719610Y-61473465D01*
X162723151Y-61474634D01*
X163883800Y-61877533D01*
X163887251Y-61878790D01*
X164897002Y-62264050D01*
X165035124Y-62316749D01*
X165038622Y-62318145D01*
X166172614Y-62790742D01*
X166176054Y-62792238D01*
X167295191Y-63299065D01*
X167298597Y-63300669D01*
X167344021Y-63322927D01*
X168086351Y-63686668D01*
X168137890Y-63733843D01*
X168155743Y-63801393D01*
X168146133Y-63845993D01*
X167404541Y-65613538D01*
X167360452Y-65667741D01*
X167294058Y-65689504D01*
X167226438Y-65671916D01*
X167182881Y-65627686D01*
X167169139Y-65603946D01*
X167059858Y-65497367D01*
X167059857Y-65497366D01*
X166981717Y-65452960D01*
X166194943Y-65122860D01*
X166155236Y-65096197D01*
X165142721Y-64083682D01*
X165142713Y-64083676D01*
X165052586Y-64031642D01*
X165052582Y-64031640D01*
X165052580Y-64031639D01*
X164952042Y-64004700D01*
X164952041Y-64004700D01*
X163554823Y-64004700D01*
X163506849Y-63995044D01*
X163446407Y-63969685D01*
X163183788Y-63859500D01*
X162751968Y-63678325D01*
X162665536Y-63653683D01*
X162651580Y-63653381D01*
X162512922Y-63650381D01*
X162512921Y-63650381D01*
X162508937Y-63650295D01*
X162480915Y-63641404D01*
X162452192Y-63635156D01*
X162445549Y-63630183D01*
X162442339Y-63629165D01*
X162423938Y-63614005D01*
X162261876Y-63451943D01*
X162229270Y-63394378D01*
X162222667Y-63368006D01*
X162215039Y-63355015D01*
X162149094Y-63242707D01*
X162148206Y-63241873D01*
X162059700Y-63158715D01*
X162043200Y-63143212D01*
X162043198Y-63143210D01*
X161990218Y-63113967D01*
X161990208Y-63113962D01*
X161889450Y-63071688D01*
X161393902Y-62863776D01*
X161393897Y-62863774D01*
X161393890Y-62863772D01*
X161335907Y-62846458D01*
X161242657Y-62842702D01*
X161227541Y-62842093D01*
X161161349Y-62819727D01*
X161144852Y-62805875D01*
X160188659Y-61849682D01*
X160188651Y-61849676D01*
X160098524Y-61797642D01*
X160098519Y-61797639D01*
X160020906Y-61776843D01*
X159961246Y-61740477D01*
X159930717Y-61677630D01*
X159930633Y-61676633D01*
X159929000Y-61675000D01*
X158442362Y-61675000D01*
X158375323Y-61655315D01*
X158354681Y-61638681D01*
X158341000Y-61625000D01*
X155471000Y-61625000D01*
X155471000Y-61629681D01*
X155471510Y-61635117D01*
X155458174Y-61703702D01*
X155409875Y-61754189D01*
X155348052Y-61770700D01*
X152481101Y-61770700D01*
X152414062Y-61751015D01*
X152393420Y-61734381D01*
X152042721Y-61383682D01*
X152042713Y-61383676D01*
X151952586Y-61331642D01*
X151952582Y-61331640D01*
X151952580Y-61331639D01*
X151852042Y-61304700D01*
X148552042Y-61304700D01*
X148447957Y-61304700D01*
X148347418Y-61331639D01*
X148320086Y-61347420D01*
X148320085Y-61347419D01*
X148257279Y-61383681D01*
X147672580Y-61968381D01*
X147611257Y-62001866D01*
X147584899Y-62004700D01*
X145443281Y-62004700D01*
X145342743Y-62031639D01*
X145342736Y-62031642D01*
X145252609Y-62083676D01*
X145252601Y-62083682D01*
X144692903Y-62643381D01*
X144665975Y-62658084D01*
X144640157Y-62674677D01*
X144633956Y-62675568D01*
X144631580Y-62676866D01*
X144605222Y-62679700D01*
X144553839Y-62679700D01*
X144486800Y-62660015D01*
X144441045Y-62607211D01*
X144432509Y-62581293D01*
X144424382Y-62542767D01*
X144416680Y-62506254D01*
X144400571Y-62467363D01*
X144394780Y-62454248D01*
X144328179Y-62361683D01*
X144328178Y-62361682D01*
X144328176Y-62361680D01*
X144251605Y-62311787D01*
X144206184Y-62258696D01*
X144195300Y-62207896D01*
X144195300Y-61447960D01*
X144195300Y-61447958D01*
X144168361Y-61347420D01*
X144162910Y-61337978D01*
X144116323Y-61257286D01*
X144116317Y-61257278D01*
X143941619Y-61082580D01*
X143908134Y-61021257D01*
X143905300Y-60994899D01*
X143905300Y-60920313D01*
X143905300Y-60920311D01*
X143864050Y-60766363D01*
X143784360Y-60628337D01*
X143671663Y-60515640D01*
X143540550Y-60439941D01*
X143533638Y-60435950D01*
X143456663Y-60415325D01*
X143379689Y-60394700D01*
X143220311Y-60394700D01*
X143066361Y-60435950D01*
X142928337Y-60515640D01*
X142928334Y-60515642D01*
X142815642Y-60628334D01*
X142815640Y-60628337D01*
X142735950Y-60766361D01*
X142695084Y-60918877D01*
X142694700Y-60920311D01*
X142694700Y-61079689D01*
X142699372Y-61097127D01*
X142717186Y-61163607D01*
X142715523Y-61233457D01*
X142676360Y-61291319D01*
X142616548Y-61318214D01*
X142607028Y-61319700D01*
X142591280Y-61319701D01*
X142522218Y-61329762D01*
X142512638Y-61334444D01*
X142494137Y-61337335D01*
X142477303Y-61335123D01*
X142460566Y-61337978D01*
X142437420Y-61331181D01*
X142436981Y-61332605D01*
X142427776Y-61329760D01*
X142360511Y-61319960D01*
X142297010Y-61290816D01*
X142259346Y-61231966D01*
X142258632Y-61229413D01*
X142243361Y-61172420D01*
X142232830Y-61154180D01*
X142191323Y-61082286D01*
X142191317Y-61082278D01*
X141992721Y-60883682D01*
X141992713Y-60883676D01*
X141902586Y-60831642D01*
X141902582Y-60831640D01*
X141902580Y-60831639D01*
X141802042Y-60804700D01*
X141802041Y-60804700D01*
X140527753Y-60804700D01*
X140460714Y-60785015D01*
X140414959Y-60732211D01*
X140405015Y-60663053D01*
X140434040Y-60599497D01*
X140492818Y-60561723D01*
X140497917Y-60560343D01*
X140835322Y-60476702D01*
X140838945Y-60475862D01*
X142039900Y-60216596D01*
X142043534Y-60215869D01*
X143251740Y-59993209D01*
X143255384Y-59992593D01*
X144469850Y-59806719D01*
X144473555Y-59806209D01*
X144759695Y-59771272D01*
X144828625Y-59782686D01*
X144880443Y-59829556D01*
X144898695Y-59896999D01*
X144896341Y-59918548D01*
X144876000Y-60020814D01*
X144876000Y-60150000D01*
X145380000Y-60150000D01*
X145380000Y-60650000D01*
X144876000Y-60650000D01*
X144876000Y-60779191D01*
X144906895Y-60934510D01*
X144906897Y-60934518D01*
X144967504Y-61080835D01*
X144967506Y-61080839D01*
X145055489Y-61212515D01*
X145055495Y-61212523D01*
X145167476Y-61324504D01*
X145167484Y-61324510D01*
X145299160Y-61412493D01*
X145299164Y-61412495D01*
X145429999Y-61466689D01*
X145430000Y-61466689D01*
X145430000Y-60866988D01*
X145439940Y-60884205D01*
X145495795Y-60940060D01*
X145564204Y-60979556D01*
X145640504Y-61000000D01*
X145719496Y-61000000D01*
X145795796Y-60979556D01*
X145864205Y-60940060D01*
X145920060Y-60884205D01*
X145930000Y-60866988D01*
X145930000Y-61466689D01*
X146060835Y-61412495D01*
X146060839Y-61412493D01*
X146192515Y-61324510D01*
X146192523Y-61324504D01*
X146304504Y-61212523D01*
X146304510Y-61212515D01*
X146392493Y-61080839D01*
X146392495Y-61080835D01*
X146453102Y-60934518D01*
X146453104Y-60934510D01*
X146483999Y-60779191D01*
X146484000Y-60779188D01*
X146484000Y-60650000D01*
X145980000Y-60650000D01*
X145980000Y-60150000D01*
X146484000Y-60150000D01*
X146484000Y-60020812D01*
X146483999Y-60020808D01*
X146453104Y-59865489D01*
X146453102Y-59865481D01*
X146406735Y-59753541D01*
X146399266Y-59684072D01*
X146430541Y-59621592D01*
X146490630Y-59585940D01*
X146509997Y-59582604D01*
X146920262Y-59545116D01*
X146923976Y-59544834D01*
X148150245Y-59470248D01*
X148153966Y-59470077D01*
X149381975Y-59432767D01*
X149385741Y-59432710D01*
X150614259Y-59432710D01*
X150618025Y-59432767D01*
G37*
%TD.AperFunction*%
%TA.AperFunction,Conductor*%
G36*
X138515724Y-61162224D02*
G01*
X138545897Y-61225243D01*
X138537210Y-61294571D01*
X138519290Y-61320896D01*
X138520587Y-61321891D01*
X138515640Y-61328337D01*
X138435950Y-61466361D01*
X138433898Y-61474021D01*
X138394700Y-61620311D01*
X138394700Y-61779689D01*
X138413453Y-61849676D01*
X138435950Y-61933638D01*
X138475342Y-62001866D01*
X138515640Y-62071663D01*
X138515642Y-62071665D01*
X138607725Y-62163748D01*
X138641210Y-62225071D01*
X138636226Y-62294763D01*
X138594354Y-62350696D01*
X138582469Y-62358536D01*
X138582278Y-62358682D01*
X138264499Y-62676461D01*
X138264493Y-62676469D01*
X138212459Y-62766596D01*
X138212456Y-62766603D01*
X138185517Y-62867141D01*
X138185517Y-62957787D01*
X138165832Y-63024826D01*
X138113028Y-63070581D01*
X138109492Y-63072130D01*
X138009794Y-63113960D01*
X137956801Y-63143210D01*
X137956798Y-63143212D01*
X137885382Y-63210314D01*
X137823046Y-63241873D01*
X137800474Y-63243945D01*
X135212797Y-63243945D01*
X135108712Y-63243945D01*
X135048389Y-63260108D01*
X135008173Y-63270884D01*
X135008168Y-63270887D01*
X134918041Y-63322921D01*
X134918033Y-63322927D01*
X134844434Y-63396527D01*
X133534402Y-64706558D01*
X133534401Y-64706558D01*
X133534402Y-64706559D01*
X133478242Y-64762719D01*
X133478239Y-64762723D01*
X133426205Y-64852850D01*
X133426202Y-64852857D01*
X133399263Y-64953395D01*
X133399263Y-65210669D01*
X133379578Y-65277708D01*
X133326774Y-65323463D01*
X133323237Y-65325013D01*
X133018283Y-65452960D01*
X133018282Y-65452960D01*
X132940142Y-65497366D01*
X132845420Y-65589747D01*
X132830861Y-65603946D01*
X132821920Y-65619392D01*
X132817117Y-65627689D01*
X132766494Y-65675846D01*
X132697872Y-65688990D01*
X132633037Y-65662947D01*
X132595457Y-65613539D01*
X132595457Y-65613538D01*
X131853864Y-63845990D01*
X131846080Y-63776558D01*
X131877070Y-63713937D01*
X131913644Y-63686669D01*
X132701427Y-63300657D01*
X132704808Y-63299065D01*
X133823945Y-62792238D01*
X133827361Y-62790752D01*
X134961399Y-62318135D01*
X134964852Y-62316758D01*
X136112769Y-61878782D01*
X136116178Y-61877540D01*
X137276868Y-61474627D01*
X137280369Y-61473471D01*
X138386415Y-61126789D01*
X138456270Y-61125523D01*
X138515724Y-61162224D01*
G37*
%TD.AperFunction*%
%TA.AperFunction,Conductor*%
G36*
X155450198Y-63500473D02*
G01*
X155459377Y-63499622D01*
X155482686Y-63511717D01*
X155507512Y-63520309D01*
X155516887Y-63529464D01*
X155521395Y-63531803D01*
X155524086Y-63536493D01*
X155534853Y-63547007D01*
X155564023Y-63585973D01*
X155564026Y-63585976D01*
X155680341Y-63673050D01*
X155680344Y-63673052D01*
X155816479Y-63723828D01*
X155816482Y-63723828D01*
X155816486Y-63723830D01*
X155845772Y-63726978D01*
X155876651Y-63730299D01*
X155876668Y-63730300D01*
X156523332Y-63730300D01*
X156523348Y-63730299D01*
X156550215Y-63727409D01*
X156583514Y-63723830D01*
X156583518Y-63723828D01*
X156583520Y-63723828D01*
X156719655Y-63673052D01*
X156719658Y-63673050D01*
X156749087Y-63651019D01*
X156835975Y-63585975D01*
X156850734Y-63566258D01*
X156906667Y-63524389D01*
X156976359Y-63519405D01*
X157030238Y-63546031D01*
X157040892Y-63555073D01*
X157064025Y-63585975D01*
X157176566Y-63670223D01*
X157179468Y-63672686D01*
X157196656Y-63698839D01*
X157215412Y-63723894D01*
X157215691Y-63727800D01*
X157217843Y-63731074D01*
X157218163Y-63762371D01*
X157220396Y-63793585D01*
X157218518Y-63797022D01*
X157218559Y-63800940D01*
X157201907Y-63827443D01*
X157186911Y-63854907D01*
X156130838Y-64910981D01*
X156069515Y-64944466D01*
X156043157Y-64947300D01*
X155190545Y-64947300D01*
X155123506Y-64927615D01*
X155077751Y-64874811D01*
X155067807Y-64805653D01*
X155075984Y-64775848D01*
X155093101Y-64734522D01*
X155093104Y-64734510D01*
X155123999Y-64579191D01*
X155124000Y-64579188D01*
X155124000Y-64450000D01*
X154620000Y-64450000D01*
X154620000Y-63950000D01*
X155124000Y-63950000D01*
X155124000Y-63820812D01*
X155123999Y-63820809D01*
X155105596Y-63728288D01*
X155108502Y-63695807D01*
X155110141Y-63663230D01*
X155111599Y-63661193D01*
X155111823Y-63658697D01*
X155131831Y-63632939D01*
X155150820Y-63606423D01*
X155153448Y-63605111D01*
X155154686Y-63603519D01*
X155181433Y-63588857D01*
X155188134Y-63586194D01*
X155300637Y-63556050D01*
X155381418Y-63509410D01*
X155389807Y-63506078D01*
X155415959Y-63503651D01*
X155441485Y-63497458D01*
X155450198Y-63500473D01*
G37*
%TD.AperFunction*%
%TA.AperFunction,Conductor*%
G36*
X147917739Y-62814985D02*
G01*
X147963494Y-62867789D01*
X147974700Y-62919300D01*
X147974700Y-63426275D01*
X147955015Y-63493314D01*
X147938381Y-63513956D01*
X147936166Y-63516170D01*
X147933602Y-63519596D01*
X147930178Y-63522158D01*
X147929897Y-63522440D01*
X147929856Y-63522399D01*
X147877667Y-63561465D01*
X147807976Y-63566447D01*
X147760705Y-63545053D01*
X147664534Y-63474077D01*
X147535364Y-63428877D01*
X147535352Y-63428875D01*
X147504690Y-63426000D01*
X147500000Y-63426000D01*
X147500000Y-64156000D01*
X147480315Y-64223039D01*
X147427511Y-64268794D01*
X147376000Y-64280000D01*
X147250000Y-64280000D01*
X147250000Y-64406000D01*
X147230315Y-64473039D01*
X147177511Y-64518794D01*
X147126000Y-64530000D01*
X146590000Y-64530000D01*
X146522961Y-64510315D01*
X146501190Y-64485190D01*
X146466000Y-64450000D01*
X145980000Y-64450000D01*
X145980000Y-63950000D01*
X146490000Y-63950000D01*
X146557039Y-63969685D01*
X146578809Y-63994809D01*
X146614000Y-64030000D01*
X147000000Y-64030000D01*
X147000000Y-63426000D01*
X146995310Y-63426000D01*
X146964647Y-63428875D01*
X146964635Y-63428877D01*
X146835463Y-63474078D01*
X146835462Y-63474078D01*
X146725348Y-63555345D01*
X146652086Y-63654612D01*
X146596438Y-63696863D01*
X146526782Y-63702321D01*
X146465233Y-63669253D01*
X146437755Y-63628430D01*
X146392497Y-63519167D01*
X146392493Y-63519160D01*
X146304510Y-63387484D01*
X146304504Y-63387476D01*
X146192523Y-63275495D01*
X146192515Y-63275489D01*
X146060841Y-63187507D01*
X145930000Y-63133309D01*
X145930000Y-63733011D01*
X145920060Y-63715795D01*
X145864205Y-63659940D01*
X145795796Y-63620444D01*
X145719496Y-63600000D01*
X145640504Y-63600000D01*
X145564204Y-63620444D01*
X145495795Y-63659940D01*
X145439940Y-63715795D01*
X145430000Y-63733011D01*
X145430000Y-63075723D01*
X145438644Y-63046282D01*
X145445168Y-63016296D01*
X145448922Y-63011280D01*
X145449685Y-63008684D01*
X145466319Y-62988042D01*
X145622742Y-62831619D01*
X145684065Y-62798134D01*
X145710423Y-62795300D01*
X147850700Y-62795300D01*
X147917739Y-62814985D01*
G37*
%TD.AperFunction*%
%TA.AperFunction,Conductor*%
G36*
X152118811Y-62535805D02*
G01*
X152213958Y-62561301D01*
X152318043Y-62561301D01*
X152318047Y-62561300D01*
X154401950Y-62561300D01*
X154468989Y-62580985D01*
X154514744Y-62633789D01*
X154524688Y-62702947D01*
X154509336Y-62747302D01*
X154502950Y-62758360D01*
X154469745Y-62882286D01*
X154461700Y-62912311D01*
X154461700Y-63071689D01*
X154501066Y-63218607D01*
X154502951Y-63225639D01*
X154502952Y-63225642D01*
X154553386Y-63312994D01*
X154570000Y-63374995D01*
X154570000Y-63733011D01*
X154560060Y-63715795D01*
X154504205Y-63659940D01*
X154435796Y-63620444D01*
X154359496Y-63600000D01*
X154280504Y-63600000D01*
X154204204Y-63620444D01*
X154135795Y-63659940D01*
X154079940Y-63715795D01*
X154070000Y-63733011D01*
X154070000Y-63133309D01*
X153939158Y-63187507D01*
X153807484Y-63275489D01*
X153807476Y-63275495D01*
X153695495Y-63387476D01*
X153695489Y-63387484D01*
X153607506Y-63519160D01*
X153607504Y-63519164D01*
X153562244Y-63628431D01*
X153518403Y-63682834D01*
X153452108Y-63704899D01*
X153384409Y-63687620D01*
X153347913Y-63654611D01*
X153274653Y-63555347D01*
X153274652Y-63555346D01*
X153164536Y-63474078D01*
X153035364Y-63428877D01*
X153035352Y-63428875D01*
X153004690Y-63426000D01*
X153000000Y-63426000D01*
X153000000Y-64030000D01*
X153386000Y-64030000D01*
X153404290Y-64011709D01*
X153405685Y-64006961D01*
X153458489Y-63961206D01*
X153510000Y-63950000D01*
X154020000Y-63950000D01*
X154020000Y-64450000D01*
X153534000Y-64450000D01*
X153515709Y-64468290D01*
X153514315Y-64473039D01*
X153461511Y-64518794D01*
X153410000Y-64530000D01*
X152874000Y-64530000D01*
X152806961Y-64510315D01*
X152761206Y-64457511D01*
X152750000Y-64406000D01*
X152750000Y-64280000D01*
X152624000Y-64280000D01*
X152556961Y-64260315D01*
X152511206Y-64207511D01*
X152500000Y-64156000D01*
X152500000Y-63426000D01*
X152495310Y-63426000D01*
X152464647Y-63428875D01*
X152464635Y-63428877D01*
X152335463Y-63474077D01*
X152239293Y-63545053D01*
X152235214Y-63546542D01*
X152232359Y-63549816D01*
X152202683Y-63558423D01*
X152173664Y-63569023D01*
X152169426Y-63568070D01*
X152165255Y-63569281D01*
X152135642Y-63560480D01*
X152105494Y-63553707D01*
X152101265Y-63550264D01*
X152098280Y-63549377D01*
X152085401Y-63537347D01*
X152071683Y-63526177D01*
X152068920Y-63522967D01*
X152063831Y-63516169D01*
X152061685Y-63514563D01*
X152055322Y-63507170D01*
X152042746Y-63479393D01*
X152028134Y-63452633D01*
X152027356Y-63445400D01*
X152026505Y-63443520D01*
X152026880Y-63440970D01*
X152025300Y-63426275D01*
X152025300Y-62853477D01*
X152024618Y-62850930D01*
X151990864Y-62724962D01*
X151987931Y-62719883D01*
X151984764Y-62706826D01*
X151977228Y-62695704D01*
X151976688Y-62673532D01*
X151971461Y-62651983D01*
X151975854Y-62639287D01*
X151975528Y-62625855D01*
X151987059Y-62606913D01*
X151994313Y-62585957D01*
X152004874Y-62577651D01*
X152011861Y-62566176D01*
X152031802Y-62556475D01*
X152049235Y-62542767D01*
X152062610Y-62541489D01*
X152074692Y-62535613D01*
X152109975Y-62534754D01*
X152118811Y-62535805D01*
G37*
%TD.AperFunction*%
%TA.AperFunction,Conductor*%
G36*
X142512571Y-62718824D02*
G01*
X142513013Y-62717394D01*
X142522213Y-62720235D01*
X142522218Y-62720238D01*
X142591279Y-62730300D01*
X142758720Y-62730299D01*
X142827782Y-62720238D01*
X142827787Y-62720235D01*
X142835137Y-62717965D01*
X142899069Y-62715485D01*
X142908702Y-62717661D01*
X142912907Y-62719346D01*
X142931773Y-62722872D01*
X142934037Y-62723384D01*
X142962608Y-62739281D01*
X142991781Y-62754115D01*
X142992993Y-62756188D01*
X142995092Y-62757356D01*
X143010538Y-62786189D01*
X143027054Y-62814428D01*
X143028045Y-62818741D01*
X143034503Y-62849354D01*
X143032462Y-62849784D01*
X143033360Y-62910397D01*
X143032352Y-62913835D01*
X143029763Y-62922212D01*
X143029762Y-62922217D01*
X143029762Y-62922218D01*
X143019700Y-62991279D01*
X143019700Y-62991283D01*
X143019700Y-62991284D01*
X143019700Y-63158719D01*
X143022173Y-63175689D01*
X143029762Y-63227782D01*
X143029763Y-63227784D01*
X143032606Y-63236985D01*
X143029211Y-63238033D01*
X143037978Y-63289434D01*
X143031181Y-63312579D01*
X143032605Y-63313019D01*
X143029762Y-63322217D01*
X143029659Y-63322926D01*
X143019700Y-63391279D01*
X143019700Y-63391283D01*
X143019700Y-63391284D01*
X143019700Y-63558719D01*
X143024086Y-63588819D01*
X143029762Y-63627782D01*
X143029763Y-63627785D01*
X143032606Y-63636985D01*
X143029211Y-63638033D01*
X143037978Y-63689434D01*
X143031181Y-63712579D01*
X143032605Y-63713019D01*
X143029762Y-63722217D01*
X143029113Y-63726672D01*
X143019700Y-63791279D01*
X143019700Y-63791283D01*
X143019700Y-63791284D01*
X143019700Y-63958719D01*
X143021105Y-63968359D01*
X143029762Y-64027782D01*
X143029763Y-64027784D01*
X143032036Y-64035141D01*
X143034515Y-64099067D01*
X143032338Y-64108704D01*
X143030654Y-64112907D01*
X143027127Y-64131772D01*
X143026616Y-64134036D01*
X143010711Y-64162619D01*
X142995881Y-64191784D01*
X142993810Y-64192994D01*
X142992644Y-64195091D01*
X142963807Y-64210540D01*
X142935567Y-64227055D01*
X142931259Y-64228044D01*
X142931056Y-64228086D01*
X142931056Y-64228087D01*
X142931055Y-64228086D01*
X142900647Y-64234502D01*
X142900219Y-64232475D01*
X142839539Y-64233342D01*
X142836168Y-64232353D01*
X142827784Y-64229762D01*
X142806182Y-64226615D01*
X142758721Y-64219700D01*
X142758715Y-64219700D01*
X142591280Y-64219700D01*
X142550859Y-64225589D01*
X142522218Y-64229762D01*
X142522216Y-64229763D01*
X142513015Y-64232606D01*
X142511966Y-64229211D01*
X142460566Y-64237978D01*
X142437420Y-64231181D01*
X142436981Y-64232605D01*
X142427782Y-64229762D01*
X142424000Y-64229211D01*
X142358721Y-64219700D01*
X142358715Y-64219700D01*
X142191280Y-64219700D01*
X142150859Y-64225589D01*
X142122218Y-64229762D01*
X142122216Y-64229763D01*
X142113015Y-64232606D01*
X142111966Y-64229211D01*
X142060566Y-64237978D01*
X142037420Y-64231181D01*
X142036981Y-64232605D01*
X142027782Y-64229762D01*
X142024000Y-64229211D01*
X141958721Y-64219700D01*
X141958715Y-64219700D01*
X141791280Y-64219700D01*
X141743820Y-64226615D01*
X141722218Y-64229762D01*
X141722216Y-64229762D01*
X141722214Y-64229763D01*
X141714851Y-64232038D01*
X141650930Y-64234514D01*
X141641293Y-64232337D01*
X141637093Y-64230654D01*
X141618242Y-64227130D01*
X141615962Y-64226615D01*
X141587383Y-64210713D01*
X141558215Y-64195881D01*
X141557003Y-64193809D01*
X141554907Y-64192643D01*
X141539462Y-64163813D01*
X141522944Y-64135568D01*
X141521954Y-64131255D01*
X141515497Y-64100643D01*
X141517540Y-64100211D01*
X141516634Y-64039619D01*
X141517650Y-64036151D01*
X141520233Y-64027790D01*
X141520238Y-64027782D01*
X141530300Y-63958721D01*
X141530299Y-63791280D01*
X141520238Y-63722218D01*
X141488634Y-63657572D01*
X141476862Y-63588819D01*
X141478999Y-63570402D01*
X141478999Y-63379618D01*
X141478997Y-63379597D01*
X141476861Y-63361174D01*
X141488635Y-63292427D01*
X141520237Y-63227784D01*
X141520236Y-63227784D01*
X141520238Y-63227782D01*
X141530300Y-63158721D01*
X141530299Y-62991280D01*
X141520238Y-62922218D01*
X141520236Y-62922215D01*
X141517964Y-62914860D01*
X141515485Y-62850930D01*
X141517660Y-62841298D01*
X141519346Y-62837093D01*
X141522873Y-62818221D01*
X141523384Y-62815962D01*
X141539280Y-62787391D01*
X141554111Y-62758222D01*
X141556187Y-62757007D01*
X141557356Y-62754907D01*
X141586177Y-62739466D01*
X141614422Y-62722946D01*
X141618745Y-62721954D01*
X141649358Y-62715497D01*
X141649789Y-62717540D01*
X141710381Y-62716635D01*
X141713832Y-62717647D01*
X141722213Y-62720235D01*
X141722218Y-62720238D01*
X141791279Y-62730300D01*
X141958720Y-62730299D01*
X142027782Y-62720238D01*
X142027789Y-62720234D01*
X142036986Y-62717394D01*
X142038037Y-62720797D01*
X142089364Y-62712014D01*
X142112571Y-62718824D01*
X142113013Y-62717394D01*
X142122213Y-62720235D01*
X142122218Y-62720238D01*
X142191279Y-62730300D01*
X142358720Y-62730299D01*
X142427782Y-62720238D01*
X142427789Y-62720234D01*
X142436986Y-62717394D01*
X142438037Y-62720797D01*
X142489364Y-62712014D01*
X142512571Y-62718824D01*
G37*
%TD.AperFunction*%
%TA.AperFunction,Conductor*%
G36*
X140066615Y-63089985D02*
G01*
X140112370Y-63142789D01*
X140122279Y-63176420D01*
X140122898Y-63180664D01*
X140129762Y-63227783D01*
X140161365Y-63292428D01*
X140164424Y-63307611D01*
X140170739Y-63318791D01*
X140172325Y-63346827D01*
X140173762Y-63353955D01*
X140170798Y-63405870D01*
X140160200Y-63435581D01*
X140151315Y-63465841D01*
X140148423Y-63468597D01*
X140147325Y-63471678D01*
X140136173Y-63480278D01*
X140109000Y-63506189D01*
X140018084Y-63558678D01*
X140018079Y-63558682D01*
X139977382Y-63599380D01*
X139916059Y-63632865D01*
X139889701Y-63635699D01*
X139849059Y-63635699D01*
X139733261Y-63666728D01*
X139733260Y-63666728D01*
X139629440Y-63726668D01*
X139629434Y-63726672D01*
X139626241Y-63729866D01*
X139564916Y-63763348D01*
X139495225Y-63758359D01*
X139439294Y-63716485D01*
X139414880Y-63651019D01*
X139414668Y-63647237D01*
X139413747Y-63624348D01*
X139396429Y-63566350D01*
X139260458Y-63242271D01*
X139252674Y-63172839D01*
X139283664Y-63110218D01*
X139343590Y-63074293D01*
X139374803Y-63070300D01*
X139999576Y-63070300D01*
X140066615Y-63089985D01*
G37*
%TD.AperFunction*%
%TD*%
D45*
X136047870Y-74500002D02*
X163952131Y-74500000D01*
X163952130Y-74500000D02*
X168518935Y-63615255D01*
X131481065Y-63615255D02*
G75*
G02*
X168518935Y-63615255I18518935J-36384742D01*
G01*
X131481065Y-63615255D02*
X136047870Y-74500000D01*
M02*
