M48
; DRILL file {KiCad 9.0.5} date 2025-12-07T22:14:28-0500
; FORMAT={-:-/ absolute / metric / decimal}
; #@! TF.CreationDate,2025-12-07T22:14:28-05:00
; #@! TF.GenerationSoftware,Kicad,Pcbnew,9.0.5
; #@! TF.FileFunction,MixedPlating,1,2
FMAT,2
METRIC
; #@! TA.AperFunction,Plated,PTH,ViaDrill
T1C0.300
; #@! TA.AperFunction,Plated,PTH,ComponentDrill
T2C0.600
; #@! TA.AperFunction,Plated,PTH,ComponentDrill
T3C1.000
; #@! TA.AperFunction,NonPlated,NPTH,ComponentDrill
T4C0.700
; #@! TA.AperFunction,NonPlated,NPTH,ComponentDrill
T5C2.700
%
G90
G05
T1
X134.6Y-68.6
X136.2Y-65.8
X136.8Y-73.6
X136.9Y-62.5
X138.7Y-67.3
X139.0Y-61.7
X139.6Y-67.9
X139.821Y-63.447
X140.025Y-66.7
X142.275Y-63.475
X142.7Y-65.9
X143.3Y-61.0
X143.5Y-65.9
X144.2Y-68.9
X144.2Y-71.3
X146.3Y-66.2
X147.1Y-73.6
X148.7Y-65.7
X150.01Y-63.096
X151.9Y-68.7
X154.3Y-67.8
X155.067Y-62.992
X156.0Y-73.6
X156.2Y-60.4
X159.2Y-65.5
X160.4Y-61.4
X163.5Y-73.6
X163.7Y-65.8
X165.6Y-68.6
T3
X147.46Y-67.0
X148.725Y-70.225
X148.725Y-72.765
X150.0Y-67.0
X151.265Y-70.225
X151.265Y-72.765
X152.54Y-67.0
T4
X135.385Y-65.165
X136.081Y-66.825
X163.919Y-66.825
X164.615Y-65.165
T5
X140.5Y-71.5
X159.5Y-71.5
T2
X145.68Y-60.7G85X145.68Y-60.1
G05
X145.68Y-64.5G85X145.68Y-63.9
G05
X154.32Y-60.7G85X154.32Y-60.1
G05
X154.32Y-64.5G85X154.32Y-63.9
G05
M30
